<svg width="573" height="382" viewBox="0 0 573 382" fill="none" xmlns="http://www.w3.org/2000/svg">
<path d="M446.24 226.718C446.24 226.718 446.288 226.678 446.304 226.654L446.24 226.718Z" fill="#82A2D1"/>
<path d="M437.792 263.206C438.28 262.542 438.152 261.941 437.792 261.349V263.206Z" fill="#82A2D1"/>
<path d="M571.108 104.386C561.749 100.042 555.131 89.1911 545.508 85.6863C537.252 86.6545 529.467 78.3087 521.978 83.5498C521.122 84.358 519.676 83.5578 519.924 82.4136C521.874 73.0675 510.149 74.4918 505.049 70.4429C497.361 69.6828 490.471 83.2618 480.752 74.7239C506.32 76.2362 499.415 58.9284 486.227 69.4747C470.018 81.3093 480.288 65.6899 487.594 60.3367C493.156 55.9357 483.597 55.2316 483.981 50.5585C481.511 31.1702 454.32 29.0418 439.111 27.3934C439.526 20.1198 425.323 15.5908 425.891 13.7424C427.673 7.08488 418.498 10.2296 416.076 7.07688C413.966 4.04421 411.312 4.29226 408.675 5.09244C394.936 14.8706 373.595 -8.78264 364.444 6.63678C359.64 7.39695 359.456 -3.49347 351.84 2.26781C348.595 6.75681 340.818 5.20446 340.41 9.91751C338.588 15.8148 333.049 18.0873 332.266 24.2727C331.211 22.8324 325.32 26.9213 327.662 28.8257C330.515 36.0273 331.786 49.7904 325.44 55.1035C322.539 57.6801 324.921 65.9619 323.17 63.9455C314.586 61.569 314.242 71.6672 311.381 77.2685C306.226 91.7517 329.388 77.6845 310.622 94.6083C308.48 99.8735 311.997 108.123 317.288 110.14C344.478 148.164 330.755 148.052 373.004 171.049C387.83 214.595 368.712 264.47 373.42 309.696C381.756 323.971 375.034 344.264 381.18 358.747C382.028 355.282 400.626 352.025 400.283 349.169C400.722 335.542 404.223 314.353 389.197 309.416L398.029 309.48C395.727 292.7 366.634 294.293 397.973 293.884C398.3 293.564 387.431 293.236 387.758 292.908C395.231 294.653 393.992 289.003 397.054 282.554C397.293 281.122 388.829 279.449 390.955 279.121L398.9 279.177C396.142 272.296 403.128 267.167 400.826 260.853C404.327 249.115 385.816 252.347 386.831 247.874L397.989 247.914C399.571 231.143 404.511 233.463 390.388 230.39C403.911 229.83 404.087 223.253 403.44 211.594C403.831 210.242 393.449 208.906 394.984 208.322C395.983 208.241 404.319 207.625 407.748 210.586C408.043 193.734 405.965 195.679 416.052 208.057C417.419 208.482 411.912 234.647 412.679 232.719C413.207 229.486 442.515 224.309 445.545 225.789C446.368 225.629 448.078 225.469 446.288 226.654C445.728 228.166 453.449 228.494 454.56 228.534C454.536 228.534 442.651 228.486 442.627 228.486C459.811 228.03 451.068 235.536 440.134 235.928C453.721 235.624 446.136 236.408 439.199 237.76L447.231 237.672C429.328 243.457 437.192 266.726 445.385 278.257C449.205 278.889 449.988 266.614 454.257 266.75C467.508 266.814 461.897 251.955 480.32 241.665C493.692 229.934 484.908 211.514 506.504 205.265C513.913 198.455 527.101 205.353 531.169 195.543C539.465 182.724 548.161 168.705 547.946 152.485C550.2 135.393 580.819 127.328 571.1 104.378L571.108 104.386ZM387.494 188.125C387.478 188.077 387.526 188.117 387.542 188.125H387.494ZM383.858 176.178C383.802 176.154 383.714 176.09 383.634 176.05C383.826 175.626 383.794 175.306 383.858 176.178ZM400.075 207.121C396.079 206.713 391.395 206.529 392.162 206.505C391.842 206.761 397.741 205.881 400.075 207.121Z" fill="#82A2D1"/>
<path d="M383.842 176.162C383.842 176.162 383.858 176.171 383.866 176.179C383.842 176.162 383.738 176.05 383.842 176.162Z" fill="#82A2D1"/>
<path d="M403.56 225.797C403.56 225.797 403.52 225.822 403.52 225.846L403.56 225.797Z" fill="#82A2D1"/>
<path d="M382.995 360.86C386.08 361.268 388.134 362.524 388.35 366.085C388.51 368.773 390.252 369.742 392.858 368.773C394.464 368.173 396.087 368.117 397.893 368.565C396.126 371.206 392.394 370.462 390.723 372.982C389.708 371.19 386.304 373.534 386.056 370.078C385.832 366.829 382.339 364.62 382.811 361.028L382.987 360.852L382.995 360.86Z" fill="#82A2D1"/>
<path d="M414.797 381.328C405.981 382.952 404.599 381.928 405.31 374.975C407.868 377.639 410.737 379.448 414.797 381.328Z" fill="#82A2D1"/>
<path d="M396.559 373.718C397.262 372.334 398.053 372.91 398.397 372.678C403.049 369.574 403.296 372.718 403.488 376.143C403.544 377.119 404.591 378.511 403.216 378.848C401.89 379.168 399.636 378.896 399.596 377.143C399.548 374.967 397.678 374.775 396.559 373.718Z" fill="#82A2D1"/>
<path d="M470.849 251.003L469.643 251.955L470.849 251.003Z" fill="#BFBFBF"/>
<path d="M382.819 361.035L382.459 360.443C382.635 360.579 382.819 360.723 382.995 360.859L382.819 361.035Z" fill="#BFBFBF"/>
<path d="M408.675 5.10051L408.292 4.87646C408.403 4.96448 408.523 5.0525 408.635 5.14052L408.675 5.10051Z" fill="#BFBFBF"/>
<path d="M384.593 322.603C383.386 313.193 379.158 303.399 382.867 293.548C387.055 291.036 380.653 287.379 382.635 284.274C378.767 272.92 392.098 266.302 383.594 255.012C385.417 252.131 378.655 250.603 382.172 248.626C384.41 240.433 383.53 230.726 389.637 223.165C384.857 205.497 393.561 211.722 395.088 203.296C395.088 201.64 407.9 192.998 408.579 196.847C410.266 202.336 410.809 186.109 421.024 197.743C423.301 204.073 448.262 210.018 443.842 214.475C443.051 216.347 437.496 223.117 441.341 223.461C448.302 225.429 458.94 225.669 460.163 217.083C464.216 208.418 471.281 223.261 453.354 230.006C444.362 239.704 439.063 252.795 440.366 265.854C441.461 268.351 448.838 268.215 446.32 272.08C454.281 284.586 433.14 293.868 422.99 290.58C425.643 297.765 421.895 294.101 422.838 300.206C424.125 307.183 414.39 301.942 411.736 302.406C409.498 315.505 420.184 306.047 417.994 312.785C407.548 318.114 414.038 318.538 410.793 325.62C410.29 328.1 406.397 325.467 404.799 328.852C396.862 342.879 423.957 332.485 405.19 348.625C404.119 350.145 406.141 355.274 402.377 354.714C400.658 354.138 400.147 364.572 402.121 365.348C406.253 366.861 402.633 369.309 400.107 367.773C394.368 365.812 388.094 370.549 388.925 360.811C376.481 356.994 391.323 331.397 384.593 322.619V322.603Z" fill="#1E4EA6"/>
<path d="M359.75 218.946C341.53 221.952 234 243 177 181.5" stroke="#251F1C" stroke-width="3" stroke-linecap="round" stroke-linejoin="round"/>
<path d="M350.392 232.822L348.587 230.839L358.704 219.018L349.086 210.147L351.004 207.61L362.713 218.41L350.392 232.822Z" fill="#251F1C"/>
<g clip-path="url(#clip0_267_337)">
<path d="M23.1999 168.85V168.93C23.1999 169.17 22.9599 169.42 22.7099 169.46C21.6599 169.66 20.6499 169.7 19.7599 169.7C18.4299 169.7 17.3699 169.54 16.7699 169.46C16.4899 169.42 16.2799 169.18 16.2799 168.89C16.2399 167.47 16.1199 166.14 15.9999 164.85C15.9999 164.57 15.7599 164.32 15.4299 164.32H8.63986C8.35986 164.32 8.10986 164.52 8.06986 164.85C7.82986 166.63 7.70986 168.04 7.61986 168.77C7.57986 169.13 7.29986 169.42 6.92986 169.46C6.11986 169.58 5.26986 169.62 4.45986 169.62C3.28986 169.62 2.19986 169.54 1.54986 169.46C1.14986 169.42 0.859863 169.06 0.859863 168.65C1.43986 156.03 5.72986 147.13 7.46986 143.98C7.90986 143.17 8.75986 142.65 9.68986 142.56C10.4199 142.52 11.1899 142.48 11.9499 142.48C13.2399 142.48 14.4999 142.56 15.4299 142.6C16.3999 142.68 17.2499 143.25 17.6899 144.06C21.6899 151.5 22.9499 165.9 23.1899 168.85H23.1999ZM14.3799 158.38C14.6999 158.38 14.9499 158.14 14.9499 157.81V157.69C14.1799 153.93 13.2499 151.22 12.8099 150.01C12.7299 149.81 12.5699 149.73 12.3699 149.73C12.2499 149.73 12.0899 149.77 12.0099 149.93C10.8399 151.91 9.94986 154.78 9.29986 157.69V157.81C9.29986 158.13 9.49986 158.38 9.82986 158.38H14.3999H14.3799Z" fill="#251F1C"/>
<path d="M39.4199 169.58C38.4099 169.5 38.0399 168.49 37.7599 167.92L33.5099 160.52C33.3899 160.32 33.2299 160.24 33.0599 160.24C32.7799 160.24 32.5299 160.4 32.4899 160.73V160.93L32.8099 168.53C32.8099 169.06 32.4499 169.54 31.9199 169.62C30.9499 169.78 30.0599 169.82 29.2499 169.82C28.0799 169.82 27.1499 169.7 26.4999 169.62C26.0099 169.54 25.6099 169.13 25.6099 168.61V168.53L25.8099 143.99C25.8099 143.18 26.4599 142.53 27.2699 142.49C28.5199 142.45 29.8999 142.41 31.2699 142.41C33.5299 142.41 35.7599 142.49 37.2099 142.81C41.0499 143.62 44.7699 145.2 44.7699 150.65C44.7699 150.93 44.7699 151.26 44.7299 151.58C44.4899 155.14 41.9799 157.16 39.3499 158.29C39.1099 158.37 38.9899 158.53 38.9899 158.69C38.9899 158.81 39.0299 158.93 39.1499 159.05L44.8099 165.12C44.9699 165.36 45.0499 165.61 45.0499 165.89C45.0499 166.29 44.8499 166.74 44.4399 166.98C43.0599 167.79 40.1499 169.57 39.3899 169.57L39.4199 169.58ZM32.0999 153.65C32.0999 154.18 32.5399 154.58 33.0699 154.58C33.1499 154.58 33.2299 154.58 33.3099 154.54C34.5999 154.18 37.2299 153.77 37.2299 151.43C37.2299 148.76 34.5199 148.88 32.9799 148.8H32.8999C32.3699 148.8 31.9699 149.24 31.9699 149.77L32.0899 153.65H32.0999Z" fill="#251F1C"/>
<path d="M66.4698 155.14C66.4698 161.41 65.0098 164.36 62.6298 166.83C60.2498 169.3 54.4198 169.66 51.0198 169.66C50.4498 169.66 49.9698 169.62 49.5598 169.62C48.9898 169.58 48.5898 169.13 48.5898 168.61L48.7498 165.05C48.7898 164.56 49.2298 164.16 49.7998 164.16C50.6098 164.16 51.4198 164.2 53.3198 164.2H53.5198C58.9798 164.2 60.1098 160.6 60.2298 158.62V158.54C60.2298 158.26 60.0298 158.01 59.7398 158.01C59.6598 158.01 59.5798 158.05 59.4998 158.09C58.5298 158.62 56.4698 158.9 54.9298 158.9C54.4798 158.9 54.1198 158.86 53.7998 158.82C49.6398 158.33 46.8498 155.71 46.7998 150.49V150.33C46.7998 145.24 50.8798 142.41 54.7298 142.41C57.3998 142.41 58.9398 143.3 59.6198 143.87C59.6598 143.91 59.6998 143.91 59.7798 143.91C59.8998 143.91 60.0598 143.83 60.0598 143.67V143.47C60.0598 142.98 60.4598 142.58 60.9898 142.54C61.5198 142.5 62.0398 142.5 62.5698 142.5C63.4198 142.5 64.1898 142.54 64.7498 142.58C65.2398 142.62 65.6398 142.98 65.6798 143.47C65.7998 144.52 65.9598 146.83 66.3298 152C66.4098 153.13 66.4498 154.18 66.4498 155.15L66.4698 155.14ZM60.1598 150.04C60.1598 149.6 60.0798 149.11 59.8798 148.79C59.3098 147.82 58.0198 146.77 56.2398 146.77C55.9198 146.77 55.5498 146.81 55.1498 146.89C53.3298 147.33 52.4398 148.67 52.4398 150C52.4398 151.46 53.5298 152.95 55.6298 153.23C55.9498 153.27 56.2398 153.31 56.5198 153.31C58.0198 153.31 58.9498 152.62 59.5098 152.02C59.9098 151.58 60.1598 150.81 60.1598 150.04Z" fill="#251F1C"/>
<path d="M91.4198 151.42C91.4598 151.7 91.4998 151.99 91.4998 152.27C91.4998 154.33 90.2098 156.19 88.3098 156.64C84.8298 157.53 79.2898 159.03 76.4598 159.75C76.1398 159.83 75.9298 160.11 75.9298 160.44C75.9298 160.52 75.9298 160.6 75.9698 160.68C76.7398 162.58 78.3598 163.63 80.4998 163.63C80.7398 163.63 81.0298 163.63 81.2698 163.59C83.8198 163.31 85.3498 161.77 86.1198 160.88C86.3598 160.6 86.6898 160.48 87.0098 160.48C87.2898 160.48 87.5798 160.6 87.8198 160.84L89.8398 162.86C90.1198 163.14 90.2398 163.47 90.2398 163.83C90.2398 164.15 90.1598 164.44 89.9598 164.68C88.6698 166.38 85.5898 169.61 80.7398 169.61C73.4198 169.61 69.5398 164.88 69.0898 156.51C69.0498 156.11 69.0498 155.74 69.0498 155.34C69.0498 147.7 73.6198 143.21 77.9498 142.28C78.7598 142.12 79.5298 142.04 80.2098 142C84.3298 142 86.9998 143.42 88.6998 145.32C90.3198 147.14 91.0898 149.44 91.4098 151.43L91.4198 151.42ZM83.6998 152.63C84.2298 152.47 84.5098 151.94 84.5098 151.42C84.5098 151.1 84.4298 150.73 84.1898 150.49C83.5398 149.72 82.4898 149.03 80.9998 149.03C80.5998 149.03 80.1498 149.07 79.6698 149.19H79.6298C76.7198 150 75.3798 152.59 75.2198 154.73V154.81C75.2198 155.21 75.5398 155.5 75.9098 155.5C75.9898 155.5 76.0698 155.5 76.1498 155.46L83.7098 152.63H83.6998Z" fill="#251F1C"/>
<path d="M113.31 169.38C112.62 169.46 111.89 169.5 111.17 169.5C110.08 169.5 109.07 169.42 108.46 169.38C107.97 169.34 107.57 168.93 107.57 168.45V157.81C107.57 148.59 105.79 148.51 104.66 148.51C103.53 148.51 101.02 149.4 100.86 155.34C100.74 159.5 100.58 165.85 100.54 168.28C100.5 168.85 100.05 169.33 99.4898 169.41C98.9198 169.45 98.3598 169.49 97.7498 169.49C96.8598 169.49 96.0098 169.45 95.3598 169.41C94.7898 169.37 94.3098 168.92 94.2698 168.32C93.9098 163.1 93.8198 155.14 93.8198 149.52C93.8198 146.85 93.8598 144.71 93.8598 143.58C93.8598 143.1 94.2198 142.65 94.7498 142.61C95.7598 142.49 96.8898 142.45 97.8998 142.45C98.6298 142.45 99.3198 142.49 99.7598 142.53C100.29 142.57 100.65 143.02 100.65 143.5V143.58L100.57 144.63C100.57 144.75 100.65 144.83 100.73 144.83C100.81 144.83 100.89 144.79 100.93 144.75C101.78 143.86 103.8 142.41 106.39 142.41C113.55 142.41 114.19 151.43 114.19 154.62C114.19 155.31 114.15 155.71 114.15 155.71V168.45C114.15 168.94 113.79 169.34 113.3 169.38H113.31Z" fill="#251F1C"/>
<path d="M114.56 143.82C114.56 143.17 115.09 142.61 115.73 142.57C117.91 142.45 120.78 142.41 123.7 142.41C128.55 142.41 133.57 142.53 135.43 142.61C136.12 142.65 136.64 143.22 136.64 143.9V144.02L136.24 147.7C136.16 148.31 135.63 148.79 134.99 148.79C134.35 148.79 132.97 148.83 131.67 148.83C130.37 148.83 129.12 148.79 128.72 148.79C128.23 148.79 127.83 149.15 127.83 149.64V149.72L128.15 167.75V167.83C128.15 168.56 127.54 169.21 126.82 169.29C125.36 169.45 124.27 169.53 123.34 169.53C122.94 169.53 122.53 169.53 122.17 169.49C121.4 169.41 120.84 168.72 120.84 167.95L121.16 149.71C121.16 149.22 120.76 148.82 120.23 148.82C119.22 148.86 118.25 148.9 117.44 148.9C116.91 148.9 116.43 148.86 116.11 148.86C115.46 148.82 114.94 148.33 114.86 147.69L114.58 143.93V143.81L114.56 143.82ZM131.34 153.77C131.34 152.52 132.51 151.55 134.01 151.55C135.51 151.55 136.64 152.52 136.64 153.77C136.64 155.02 135.47 155.99 134.01 155.99C132.55 155.99 131.34 155.02 131.34 153.77ZM135.67 157.29C136.28 157.29 136.64 157.61 136.64 157.98C136.64 157.98 136.56 165.14 136.56 165.18L136.52 168.9C136.52 169.26 136.07 169.55 135.51 169.55H132.68C132.19 169.55 131.79 169.31 131.79 168.98C131.79 168.98 131.35 163.76 131.35 160.12C131.35 159.31 131.39 158.58 131.43 157.98C131.43 157.66 131.79 157.37 132.32 157.37C133.05 157.33 134.38 157.33 135.68 157.29H135.67Z" fill="#251F1C"/>
<path d="M160.22 169.38C159.53 169.46 158.8 169.5 158.08 169.5C156.99 169.5 155.98 169.42 155.37 169.38C154.88 169.34 154.48 168.93 154.48 168.45V157.81C154.48 148.59 152.7 148.51 151.57 148.51C150.44 148.51 147.93 149.4 147.77 155.34C147.65 159.5 147.49 165.85 147.45 168.28C147.41 168.85 146.96 169.33 146.4 169.41C145.83 169.45 145.27 169.49 144.66 169.49C143.77 169.49 142.92 169.45 142.27 169.41C141.7 169.37 141.22 168.92 141.18 168.32C140.82 163.1 140.73 155.14 140.73 149.52C140.73 146.85 140.77 144.71 140.77 143.58C140.77 143.1 141.13 142.65 141.66 142.61C142.67 142.49 143.8 142.45 144.81 142.45C145.54 142.45 146.23 142.49 146.67 142.53C147.2 142.57 147.56 143.02 147.56 143.5V143.58L147.48 144.63C147.48 144.75 147.56 144.83 147.64 144.83C147.72 144.83 147.8 144.79 147.84 144.75C148.69 143.86 150.71 142.41 153.3 142.41C160.46 142.41 161.1 151.43 161.1 154.62C161.1 155.31 161.06 155.71 161.06 155.71V168.45C161.06 168.94 160.7 169.34 160.21 169.38H160.22Z" fill="#251F1C"/>
<path d="M186.18 151.42C186.22 151.7 186.26 151.99 186.26 152.27C186.26 154.33 184.97 156.19 183.07 156.64C179.59 157.53 174.05 159.03 171.22 159.75C170.9 159.83 170.69 160.11 170.69 160.44C170.69 160.52 170.69 160.6 170.73 160.68C171.5 162.58 173.12 163.63 175.26 163.63C175.5 163.63 175.79 163.63 176.03 163.59C178.58 163.31 180.11 161.77 180.88 160.88C181.12 160.6 181.45 160.48 181.77 160.48C182.05 160.48 182.34 160.6 182.58 160.84L184.6 162.86C184.88 163.14 185 163.47 185 163.83C185 164.15 184.92 164.44 184.72 164.68C183.43 166.38 180.35 169.61 175.5 169.61C168.18 169.61 164.3 164.88 163.85 156.51C163.81 156.11 163.81 155.74 163.81 155.34C163.81 147.7 168.38 143.21 172.71 142.28C173.52 142.12 174.29 142.04 174.97 142C179.09 142 181.76 143.42 183.46 145.32C185.08 147.14 185.85 149.44 186.17 151.43L186.18 151.42ZM178.46 152.63C178.99 152.47 179.27 151.94 179.27 151.42C179.27 151.1 179.19 150.73 178.95 150.49C178.3 149.72 177.25 149.03 175.76 149.03C175.36 149.03 174.91 149.07 174.43 149.19H174.39C171.48 150 170.14 152.59 169.98 154.73V154.81C169.98 155.21 170.3 155.5 170.67 155.5C170.75 155.5 170.83 155.5 170.91 155.46L178.47 152.63H178.46Z" fill="#251F1C"/>
<path d="M11.04 194.84V194.88C11.04 195 10.92 195.12 10.8 195.14C10.28 195.24 9.78 195.26 9.34 195.26C8.68 195.26 8.16 195.18 7.86 195.14C7.72 195.12 7.62 195 7.62 194.86C7.6 194.16 7.54 193.5 7.48 192.86C7.48 192.72 7.36 192.6 7.2 192.6H3.84C3.7 192.6 3.58 192.7 3.56 192.86C3.44 193.74 3.38 194.44 3.34 194.8C3.32 194.98 3.18 195.12 3 195.14C2.6 195.2 2.18 195.22 1.78 195.22C1.2 195.22 0.66 195.18 0.34 195.14C0.14 195.12 0 194.94 0 194.74C0.28 188.5 2.4 184.1 3.26 182.54C3.48 182.14 3.9 181.88 4.36 181.84C4.72 181.82 5.1 181.8 5.48 181.8C6.12 181.8 6.74 181.84 7.2 181.86C7.68 181.9 8.1 182.18 8.32 182.58C10.3 186.26 10.92 193.38 11.04 194.84ZM6.68 189.66C6.84 189.66 6.96 189.54 6.96 189.38V189.32C6.58 187.46 6.12 186.12 5.9 185.52C5.86 185.42 5.78 185.38 5.68 185.38C5.62 185.38 5.54 185.4 5.5 185.48C4.92 186.46 4.48 187.88 4.16 189.32V189.38C4.16 189.54 4.26 189.66 4.42 189.66H6.68Z" fill="#251F1C"/>
<path d="M13.3802 181.8C13.5602 181.8 13.7402 181.78 13.9002 181.78C14.4802 181.78 14.9602 181.82 15.3202 181.86C15.6602 181.9 15.9602 182.08 16.1402 182.36C16.8802 183.42 18.1402 185.84 18.5602 186.68C18.6002 186.74 18.6602 186.78 18.7202 186.78C18.7802 186.78 18.8402 186.74 18.8602 186.68C19.7202 185 20.9602 183.02 21.4602 182.24C21.6002 182.04 21.8202 181.9 22.0602 181.86C22.5602 181.8 23.0002 181.78 23.3802 181.78C23.7002 181.78 23.9802 181.8 24.2002 181.82C24.6202 181.86 24.9402 182.18 24.9602 182.6C25.1202 185.22 25.1802 192.4 25.2002 194.5C25.2002 194.86 24.9402 195.14 24.5802 195.18C24.1802 195.24 23.7802 195.24 23.4002 195.24C22.8802 195.24 22.3802 195.22 22.0202 195.18C21.6802 195.14 21.4002 194.84 21.4002 194.48C21.4202 193.6 21.4202 192.62 21.4202 191.7C21.4202 190.44 21.4202 189.26 21.4002 188.5C21.4002 188.38 21.3002 188.32 21.2202 188.32C21.1602 188.32 21.1002 188.34 21.0602 188.42L19.2802 192.16C19.1602 192.42 18.9202 192.54 18.6802 192.54C18.4402 192.54 18.2002 192.42 18.0802 192.18L16.1602 188.38C16.1202 188.3 16.0602 188.28 15.9802 188.28C15.9002 188.28 15.8002 188.34 15.8002 188.46L15.9402 194.48C15.9402 194.84 15.6802 195.12 15.3402 195.14C14.8202 195.18 14.3602 195.2 13.9802 195.2C13.5202 195.2 13.1602 195.18 12.9002 195.16C12.5602 195.14 12.3002 194.86 12.3002 194.54C12.2602 193.04 12.2402 191.28 12.2402 189.56C12.2402 186.88 12.2802 184.3 12.3002 182.92C12.3002 182.32 12.7802 181.84 13.3802 181.8Z" fill="#251F1C"/>
<path d="M35.7602 194.5C35.7602 194.84 35.4802 195.12 35.1402 195.14C34.2802 195.2 33.2802 195.22 32.2602 195.22C30.5202 195.22 28.8002 195.16 27.9202 195.12C27.5802 195.1 27.3002 194.82 27.3002 194.48C27.2602 193.84 27.2402 193.04 27.2402 192.16C27.2402 188.1 27.5602 182.36 27.5602 182.36C27.5602 182.02 27.8402 181.74 28.1802 181.74H28.7002C30.9202 181.74 33.7002 181.84 34.8202 181.9C35.0802 181.9 35.3202 182.12 35.3202 182.4V182.44L35.3002 184.5C35.3002 184.78 35.0602 185.02 34.7802 185.02C34.2202 184.98 33.6402 184.96 33.1402 184.96C32.1202 184.96 31.3202 185.02 31.3202 185.02C31.0602 185.02 30.8402 185.26 30.8402 185.52L30.8802 186.56C30.8802 186.82 31.1002 187.04 31.3602 187.04L34.1402 187.06C34.4802 187.06 34.7402 187.34 34.7402 187.68L34.6802 189.66C34.6802 189.98 34.4202 190.24 34.1002 190.24H31.3802C31.0602 190.24 30.8002 190.5 30.8002 190.82L30.8202 191.78C30.8202 192.1 31.0402 192.38 31.3602 192.38C31.6602 192.4 32.0202 192.4 32.4002 192.4C33.3002 192.4 34.3402 192.36 34.9802 192.34H35.0202C35.3602 192.34 35.6402 192.62 35.6602 192.94L35.7602 194.46V194.5ZM30.3802 180.08C30.3802 180.08 30.3202 180 30.3202 179.94C30.3202 179.9 30.3402 179.84 30.3802 179.8L32.9602 177.16C33.0202 177.12 33.0802 177.08 33.1602 177.08C33.2202 177.08 33.3002 177.12 33.3402 177.16L33.7602 177.64C33.8002 177.7 33.8402 177.76 33.8402 177.84C33.8402 177.9 33.8002 177.98 33.7402 178.02L30.8002 180.26C30.8002 180.26 30.7202 180.32 30.6802 180.32C30.5002 180.32 30.5202 180.24 30.3802 180.08Z" fill="#251F1C"/>
<path d="M47.5998 194.9V194.94C47.5998 195.14 47.4198 195.3 47.2198 195.32C46.7798 195.36 46.3598 195.36 45.9598 195.36C45.6398 195.36 45.3598 195.36 45.0998 195.34C44.5998 195.32 44.1598 195 43.9798 194.54L41.8998 190.88C41.8398 190.78 41.7598 190.74 41.6598 190.74C41.5398 190.74 41.3998 190.82 41.3798 190.98V191.08L41.5598 194.84C41.5598 195.1 41.3598 195.32 41.1198 195.36C40.5998 195.44 40.1398 195.48 39.7198 195.48C39.1798 195.48 38.7198 195.42 38.4198 195.38C38.1598 195.34 37.9798 195.1 37.9798 194.84L38.0998 185.56V185.52C38.0998 185.3 37.8798 185.12 37.6598 185.12L36.8598 185.16H36.8198C36.6198 185.16 36.4798 185 36.4598 184.82L36.3198 182.48V182.44C36.3198 182.26 36.4798 182.1 36.6598 182.08C37.4198 182.04 39.1798 181.92 40.8398 181.92C41.9598 181.92 43.0198 181.96 43.7198 182.12C45.6198 182.52 47.4598 183.3 47.4598 186C47.4598 186.14 47.4598 186.3 47.4398 186.46C47.3198 188.2 46.0998 189.2 44.7798 189.76C44.6398 189.82 44.5798 189.96 44.5798 190.08C44.5798 190.14 44.5998 190.2 44.6398 190.26L45.7798 191.74C45.9398 191.96 46.1998 192.1 46.4798 192.1H47.0798C47.2998 192.1 47.4798 192.26 47.4798 192.48L47.5998 194.9ZM41.1798 187.48C41.1998 187.74 41.3998 187.94 41.6598 187.94C41.6998 187.94 41.7398 187.94 41.7798 187.92C42.4398 187.74 43.7198 187.54 43.7198 186.38C43.7198 185.06 42.3798 185.12 41.6398 185.06H41.5998C41.3398 185.06 41.1198 185.3 41.1198 185.56L41.1798 187.48Z" fill="#251F1C"/>
<path d="M55.5801 194.58C55.5801 194.86 55.3201 195.08 54.9001 195.12C54.1201 195.2 53.3001 195.22 52.5401 195.22C50.7201 195.22 49.2001 195.08 49.2001 195.08C49.0401 195.04 48.9401 194.8 48.9401 194.62L49.1001 192.48C49.1001 192.3 49.2601 192.16 49.4401 192.16L50.0601 192.18C50.3401 192.16 50.4801 191.96 50.4801 191.72L50.4201 185.28C50.4201 185.04 50.3201 184.8 50.0201 184.8L49.2801 184.86C48.9601 184.86 48.7001 184.6 48.7001 184.28L48.5801 182.56C48.5801 182.26 48.8201 181.98 49.4201 181.92C50.0401 181.86 51.1001 181.78 52.2601 181.78C53.0201 181.78 53.8201 181.8 54.5801 181.92C55.1601 182 55.3801 182.26 55.3801 182.54V182.58L55.3401 184.18C55.3201 184.58 55.0001 184.9 54.6201 184.9H54.5801L53.9201 184.84C53.6401 184.84 53.5401 185.12 53.5401 185.4L53.7001 191.56C53.7001 191.84 53.8801 192.12 54.1601 192.12L54.9001 192.06C55.1001 192.06 55.2601 192.2 55.3001 192.4L55.5801 194.54V194.58Z" fill="#251F1C"/>
<path d="M67.2598 194.62C67.3998 194.78 67.4798 194.98 67.4798 195.16C67.4798 195.44 67.3398 195.7 67.0998 195.86L65.5798 196.84C65.4398 196.94 65.2798 196.98 65.1198 196.98C64.8398 196.98 64.5798 196.84 64.4198 196.56L63.6798 195.3C63.5598 195.1 63.3598 195 63.1598 195C63.0798 195 63.0198 195 62.9398 195.04C62.3798 195.24 61.8398 195.34 61.3598 195.34C59.7398 195.34 55.8798 194.72 55.7598 188.42V188.18C55.7598 181.86 61.3198 181.78 61.3198 181.78C65.1198 181.78 66.8398 184.28 66.8398 187.92C66.8398 188.14 66.8398 188.38 66.8198 188.6C66.7398 190.18 66.3798 191.42 65.8598 192.38C65.7998 192.48 65.7798 192.6 65.7798 192.7C65.7798 192.86 65.8398 193.02 65.9598 193.14L67.2598 194.62ZM61.6398 191.84C61.6398 191.84 61.6398 191.78 61.6198 191.74L60.6598 190.08C60.6198 190 60.5998 189.92 60.5998 189.82C60.5998 189.66 60.6798 189.5 60.8198 189.42L61.6798 188.92C61.7598 188.88 61.8398 188.86 61.9198 188.86C62.0598 188.86 62.1798 188.9 62.2798 189L63.0398 189.86C63.0398 189.86 63.1198 189.92 63.1798 189.92C63.2598 189.92 63.3598 189.86 63.3798 189.76C63.4598 189.34 63.5198 188.82 63.5198 188.2C63.5198 185.52 61.7598 185.38 61.3798 185.38H61.2998C61.2998 185.38 59.1998 185.58 59.1998 188.24C59.2198 190.96 60.1398 192.04 61.4598 192.04C61.5598 192.04 61.6398 191.94 61.6398 191.84Z" fill="#251F1C"/>
<path d="M70.2198 181.8C70.7598 181.8 71.2198 181.82 71.5598 181.86C71.8598 181.88 72.0998 182.14 72.0998 182.46V182.5C72.0198 183.84 71.7998 187.26 71.7798 189.5V189.62C71.7798 192.34 73.1598 192.4 73.1598 192.4H73.2198C73.4398 192.4 74.1198 192.3 74.5798 190.96C74.7998 190.34 74.8598 188.86 74.8598 187.28C74.8598 185.38 74.7598 183.34 74.7198 182.42V182.38C74.7198 182.1 74.9398 181.88 75.2198 181.84C75.5198 181.82 75.8198 181.8 76.1198 181.8C76.6798 181.8 77.2198 181.84 77.5798 181.88C77.8598 181.9 78.0798 182.12 78.0798 182.4C78.0998 183.22 78.1998 184.98 78.1998 186.88C78.1998 188.92 78.0998 191.1 77.7198 192.36C76.8598 195.22 73.3398 195.28 73.3398 195.28H73.1198C72.2798 195.28 69.2198 195.08 68.6198 192.14C68.3398 190.78 68.2598 188.9 68.2598 187.12C68.2598 185.14 68.3598 183.28 68.4198 182.42C68.4398 182.12 68.6598 181.88 68.9598 181.86C69.3998 181.8 69.8198 181.8 70.2198 181.8Z" fill="#251F1C"/>
<path d="M88.5801 194.5C88.5801 194.84 88.3001 195.12 87.9601 195.14C87.1001 195.2 86.1001 195.22 85.0801 195.22C83.3401 195.22 81.6201 195.16 80.7401 195.12C80.4001 195.1 80.1201 194.82 80.1201 194.48C80.0801 193.84 80.0601 193.04 80.0601 192.16C80.0601 188.1 80.3801 182.36 80.3801 182.36C80.3801 182.02 80.6601 181.74 81.0001 181.74H81.5201C83.7401 181.74 86.5201 181.84 87.6401 181.9C87.9001 181.9 88.1401 182.12 88.1401 182.4V182.44L88.1201 184.5C88.1201 184.78 87.8801 185.02 87.6001 185.02C87.0401 184.98 86.4601 184.96 85.9601 184.96C84.9401 184.96 84.1401 185.02 84.1401 185.02C83.8801 185.02 83.6601 185.26 83.6601 185.52L83.7001 186.56C83.7001 186.82 83.9201 187.04 84.1801 187.04L86.9601 187.06C87.3001 187.06 87.5601 187.34 87.5601 187.68L87.5001 189.66C87.5001 189.98 87.2401 190.24 86.9201 190.24H84.2001C83.8801 190.24 83.6201 190.5 83.6201 190.82L83.6401 191.78C83.6401 192.1 83.8601 192.38 84.1801 192.38C84.4801 192.4 84.8401 192.4 85.2201 192.4C86.1201 192.4 87.1601 192.36 87.8001 192.34H87.8401C88.1801 192.34 88.4601 192.62 88.4801 192.94L88.5801 194.46V194.5Z" fill="#251F1C"/>
<path d="M106.76 188.2V188.22C106.76 193.22 103.36 194.5 101.68 194.94C100.88 195.16 98.7202 195.22 97.1202 195.22C96.2402 195.22 95.5202 195.2 95.3202 195.18C95.1602 195.16 95.0202 195.04 95.0202 194.88C94.9402 194.24 94.9002 192.82 94.9002 192.2V192.16C94.9002 192 95.0402 191.86 95.2002 191.84L95.7002 191.78C95.9402 191.76 96.1202 191.54 96.1202 191.3V185.46C96.1202 185.2 95.9202 184.98 95.6602 184.98H95.1402C94.9602 184.98 94.7802 184.82 94.7602 184.62C94.7002 184.22 94.6802 183.84 94.6802 183.48C94.6802 182.94 94.7402 182.46 94.7802 182.18C94.8002 182 94.9402 181.84 95.1402 181.82C96.2202 181.72 99.1802 181.7 99.3202 181.7C106.62 181.7 106.76 187.76 106.76 188.2ZM102.88 188.62V188.58C102.88 188.32 102.86 185.24 100.1 185.04C100.02 185.02 99.9402 185.02 99.8802 185.02C99.6002 185.02 99.3802 185.24 99.3802 185.52V191.2C99.3802 191.46 99.5802 191.66 99.8402 191.68C99.9202 191.68 100 191.7 100.1 191.7C100.18 191.7 100.28 191.68 100.36 191.68C102.24 191.46 102.88 189.54 102.88 188.62Z" fill="#251F1C"/>
<path d="M109.98 181.8C110.52 181.8 110.98 181.82 111.32 181.86C111.62 181.88 111.86 182.14 111.86 182.46V182.5C111.78 183.84 111.56 187.26 111.54 189.5V189.62C111.54 192.34 112.92 192.4 112.92 192.4H112.98C113.2 192.4 113.88 192.3 114.34 190.96C114.56 190.34 114.62 188.86 114.62 187.28C114.62 185.38 114.52 183.34 114.48 182.42V182.38C114.48 182.1 114.7 181.88 114.98 181.84C115.28 181.82 115.58 181.8 115.88 181.8C116.44 181.8 116.98 181.84 117.34 181.88C117.62 181.9 117.84 182.12 117.84 182.4C117.86 183.22 117.96 184.98 117.96 186.88C117.96 188.92 117.86 191.1 117.48 192.36C116.62 195.22 113.1 195.28 113.1 195.28H112.88C112.04 195.28 108.98 195.08 108.38 192.14C108.1 190.78 108.02 188.9 108.02 187.12C108.02 185.14 108.12 183.28 108.18 182.42C108.2 182.12 108.42 181.88 108.72 181.86C109.16 181.8 109.58 181.8 109.98 181.8Z" fill="#251F1C"/>
<path d="M134.48 184.44C134.48 184.8 134.18 185.08 133.82 185.08H133.78C133.32 185.06 132.7 185 132.08 185C131.12 185 130.16 185.12 129.76 185.56C129.7 185.62 129.58 185.8 129.58 186.06C129.58 186.32 129.7 186.64 130.12 187C131.26 188 135.12 188.84 135.12 191.78V191.96C134.98 194.54 132.98 195.38 130.46 195.38H126.74C126.38 195.38 126.08 195.08 126.08 194.74V194.7L126.16 192.72C126.18 192.38 126.46 192.1 126.8 192.1H126.84C127.38 192.14 128.34 192.2 129.22 192.2C130.1 192.2 130.92 192.14 131.14 191.96C131.26 191.86 131.32 191.76 131.32 191.66C131.32 191.28 130.6 190.92 130.6 190.92C130.6 190.92 125.98 188.86 125.98 185.7C125.98 185.16 126.12 184.58 126.46 183.96C127.48 182.04 130.16 181.68 132.04 181.68C132.64 181.68 133.16 181.72 133.52 181.76C133.8 181.78 134.04 182 134.1 182.3L134.46 184.32C134.46 184.32 134.48 184.4 134.48 184.44Z" fill="#251F1C"/>
<path d="M138 181.8C138.54 181.8 139 181.82 139.34 181.86C139.64 181.88 139.88 182.14 139.88 182.46V182.5C139.8 183.84 139.58 187.26 139.56 189.5V189.62C139.56 192.34 140.94 192.4 140.94 192.4H141C141.22 192.4 141.9 192.3 142.36 190.96C142.58 190.34 142.64 188.86 142.64 187.28C142.64 185.38 142.54 183.34 142.5 182.42V182.38C142.5 182.1 142.72 181.88 143 181.84C143.3 181.82 143.6 181.8 143.9 181.8C144.46 181.8 145 181.84 145.36 181.88C145.64 181.9 145.86 182.12 145.86 182.4C145.88 183.22 145.98 184.98 145.98 186.88C145.98 188.92 145.88 191.1 145.5 192.36C144.64 195.22 141.12 195.28 141.12 195.28H140.9C140.06 195.28 137 195.08 136.4 192.14C136.12 190.78 136.04 188.9 136.04 187.12C136.04 185.14 136.14 183.28 136.2 182.42C136.22 182.12 136.44 181.88 136.74 181.86C137.18 181.8 137.6 181.8 138 181.8Z" fill="#251F1C"/>
<path d="M159.32 188.2V188.22C159.32 193.22 155.92 194.5 154.24 194.94C153.44 195.16 151.28 195.22 149.68 195.22C148.8 195.22 148.08 195.2 147.88 195.18C147.72 195.16 147.58 195.04 147.58 194.88C147.5 194.24 147.46 192.82 147.46 192.2V192.16C147.46 192 147.6 191.86 147.76 191.84L148.26 191.78C148.5 191.76 148.68 191.54 148.68 191.3V185.46C148.68 185.2 148.48 184.98 148.22 184.98H147.7C147.52 184.98 147.34 184.82 147.32 184.62C147.26 184.22 147.24 183.84 147.24 183.48C147.24 182.94 147.3 182.46 147.34 182.18C147.36 182 147.5 181.84 147.7 181.82C148.78 181.72 151.74 181.7 151.88 181.7C159.18 181.7 159.32 187.76 159.32 188.2ZM155.44 188.62V188.58C155.44 188.32 155.42 185.24 152.66 185.04C152.58 185.02 152.5 185.02 152.44 185.02C152.16 185.02 151.94 185.24 151.94 185.52V191.2C151.94 191.46 152.14 191.66 152.4 191.68C152.48 191.68 152.56 191.7 152.66 191.7C152.74 191.7 152.84 191.68 152.92 191.68C154.8 191.46 155.44 189.54 155.44 188.62Z" fill="#251F1C"/>
</g>
<defs>
<clipPath id="clip0_267_337">
<rect width="186.26" height="54.98" fill="white" transform="translate(0 142)"/>
</clipPath>
</defs>
</svg>
