<svg width="51" height="40" viewBox="0 0 51 40" fill="none" xmlns="http://www.w3.org/2000/svg">
<g clip-path="url(#clip0_108_90)">
<path d="M50.1499 21.7127L29.3295 39.2661C28.3798 40.0749 26.9512 39.9478 26.1425 38.9981C25.3337 38.0485 25.4607 36.6199 26.4104 35.8111L42.3617 22.36L2.23452 21.8823C0.98461 21.8675 -0.0132974 20.8455 0.00158261 19.5956C0.0164627 18.3457 1.03842 17.3478 2.28833 17.3627L42.9954 17.8473L34.0918 9.7007L27.1285 4.05741C26.1578 3.2658 26.0047 1.84387 26.7964 0.873228C27.253 0.318624 27.9165 0.0265014 28.5865 0.0344771C29.0764 0.0403101 29.5745 0.206252 29.9805 0.54111L37.0428 6.27558L50.2104 18.3132C50.6953 18.749 50.9579 19.3722 50.9501 20.0221C50.9424 20.6721 50.645 21.2886 50.1501 21.7027L50.1499 21.7127Z" fill="white"/>
</g>
<defs>
<clipPath id="clip0_108_90">
<rect width="50.95" height="39.77" fill="white"/>
</clipPath>
</defs>
</svg>
