<svg width="156" height="137" viewBox="0 0 156 137" fill="none" xmlns="http://www.w3.org/2000/svg">
<path d="M85.432 37.8176C84.7743 37.6691 84.1134 37.524 83.4557 37.3755C83.282 32.779 86.1611 28.3278 90.4675 26.5459C94.7738 24.7608 100.259 25.7441 103.824 28.9382C108.918 33.505 109.371 40.9787 108.791 47.4956C106.07 78.11 89.0837 105.659 86.0867 136.24L83.5364 129.539L79.0718 136.062C84.9791 103.943 101.283 74.1306 102.704 41.3549C102.831 38.3951 102.819 35.3264 101.624 32.5415C100.43 29.7565 97.7771 27.3082 94.6994 27.1498C92.0312 27.0112 89.5988 28.6148 88.1344 30.7068C86.67 32.7988 86.0122 35.3264 85.4382 37.8176H85.432Z" fill="#E85944"/>
<path d="M75.3765 37.8704C78.4077 34.7918 83.4152 33.6831 87.7123 35.1416C92.0093 36.6 95.3725 40.5465 96.0023 44.869C87.8581 43.8131 79.779 42.0874 71.8799 39.7215L75.3765 37.8704Z" fill="#F7F4ED"/>
<path d="M74.4209 39.1474C77.4521 36.0688 82.4596 34.9601 86.7567 36.4186C91.0537 37.877 94.4169 41.8234 95.0467 46.146C86.9025 45.0901 78.8234 43.3644 70.9243 40.9985L74.4209 39.1474Z" fill="#3A7B8F"/>
<path d="M30.4888 9.32494C30.9542 8.12056 31.4195 6.91288 31.888 5.7085C41.5525 8.36804 51.2946 11.0606 60.2796 15.5349C69.2677 20.0093 77.5578 26.4569 82.466 35.003L61.5485 25.3317L30.4888 9.32494Z" fill="#E5E2D8"/>
<path d="M86.2637 35.6299C76.4813 19.5011 60.7885 6.64225 42.7875 0C42.3345 3.68244 41.8815 7.36488 41.4316 11.0473C49.0298 15.5976 56.6311 20.1478 64.2293 24.6981C70.633 28.5323 77.1484 32.4589 82.1249 37.943L86.2668 35.6266L86.2637 35.6299Z" fill="#E5E2D8"/>
<path d="M85.73 38.0387C102.841 37.0422 120.007 36.5472 137.195 36.5637C137.611 35.4517 138.024 34.3431 138.439 33.2311C127.428 30.7134 90.1884 18.6927 85.73 38.0387Z" fill="#E5E2D8"/>
<path d="M17.3369 10.9384C30.1257 17.5609 42.4584 26.6614 54.8934 33.9141C67.3285 41.1668 80.4369 47.6738 94.4666 50.7392C113.917 54.9891 134.629 52.2108 151.582 43.0806C149.748 38.1806 143.661 36.2899 138.421 35.1548C129.46 33.2179 120.398 31.4393 111.295 31.3635C102.192 31.2909 92.9619 33.0232 85.4382 37.6658C80.6913 29.2913 72.6215 22.9493 63.8599 18.5343C55.1013 14.116 35.3969 8.92234 25.9713 7.13062C25.9713 7.13062 19.3381 10.1168 17.3369 10.9417V10.9384Z" fill="#E5E2D8"/>
<path d="M17.3713 8.42084L15.0226 9.43714L0 94.1597L54.6455 121.554C54.6455 121.554 53.5844 125.239 63.6863 127.958C73.7914 130.677 75.1038 127.107 75.1038 127.107L137.667 122.844L156 43.1334L153.738 40.9062L93.2755 38.9792C93.2755 38.9792 91.3519 42.6385 84.2222 40.8534C76.8257 39.0022 76.1648 34.7622 76.1648 34.7622L17.3713 8.42084Z" fill="#609A94"/>
<path d="M74.514 38.5204C74.5388 38.3059 73.8842 37.9496 73.7849 38.1773C72.5315 41.048 71.9482 44.3015 71.1508 47.3306C70.2821 50.6434 69.4848 53.9761 68.6812 57.3055C67.1299 63.7366 65.5817 70.1676 64.1018 76.6152C61.1451 89.5103 58.0642 102.534 56.3051 115.687C56.2772 115.895 56.9256 116.201 56.9752 116C60.0064 103.362 62.2403 90.4936 65.0543 77.7998C66.5311 71.1377 68.0669 64.4922 69.733 57.8796C70.5676 54.5668 71.4425 51.2605 72.2771 47.9476C73.0589 44.8492 74.1355 41.7079 74.514 38.5204Z" fill="#3A7B8F"/>
<path d="M89.6458 65.7164C90.2663 62.3243 90.8651 58.9323 91.4515 55.5336C91.7648 53.7221 92.0813 51.9073 92.3605 50.0891C92.6429 48.2578 93.1176 46.377 92.9035 44.5061C92.8911 44.4038 92.5901 44.1992 92.5219 44.3279C91.8703 45.5521 91.7369 46.9412 91.4856 48.2941C91.1505 50.0957 90.8248 51.9007 90.5021 53.7089C89.9002 57.0976 89.2766 60.4831 88.6437 63.8686C87.3747 70.6362 86.0561 77.3973 84.6786 84.1418C83.2607 91.0843 81.7653 98.007 80.2078 104.917C79.4508 108.272 78.6751 111.625 77.8871 114.974C77.1021 118.303 75.9604 121.761 75.6967 125.193C75.678 125.424 76.3761 125.813 76.4878 125.566C77.8405 122.514 78.3773 118.914 79.1436 115.664C79.9348 112.314 80.7042 108.962 81.4612 105.603C82.9318 99.0827 84.3373 92.5494 85.6869 85.9995C87.0769 79.255 88.4017 72.4972 89.6396 65.7164H89.6458Z" fill="#3A7B8F"/>
<path d="M101.442 54.3226L96.7163 76.7175L137.36 77.9417L141.461 57.1141L101.442 54.3226Z" fill="#B2DFE5"/>
<path d="M90.0329 57.8829C88.4227 57.5794 86.6604 57.8169 85.0161 57.6849C83.1732 57.5398 81.3489 57.2065 79.5525 56.7478C76.242 55.9031 73.3722 54.3259 70.3286 52.841C69.8259 52.5935 69.8663 53.9497 70.1548 54.1774C72.9968 56.4278 76.574 57.7641 80.0644 58.6286C83.0491 59.3678 87.3182 60.1795 90.216 59.1302C90.5976 58.9916 90.4332 57.9588 90.0329 57.8829Z" fill="#3A7B8F"/>
<path d="M80.4805 105.722C76.8349 106.065 73.1925 105.87 69.5501 105.204C67.6762 104.861 65.8395 104.319 64.0369 103.689C62.4235 103.125 60.8319 102.138 59.172 101.808C58.7408 101.723 58.9052 102.861 59.1038 103.029C61.6851 105.227 65.8177 106.184 69.0568 106.906C72.8699 107.754 76.7884 107.873 80.617 107.467C81.2375 107.401 81.0668 105.666 80.4805 105.722Z" fill="#3A7B8F"/>
</svg>
