<svg width="322" height="145" viewBox="0 0 322 145" fill="none" xmlns="http://www.w3.org/2000/svg">
<path d="M3.19343 39.0002C3.97665 39.0002 4.61342 38.3661 4.61342 37.5789V30.8229C4.61342 30.1345 5.07508 29.5227 5.73413 29.3346L29.8931 22.3778C30.6477 22.1611 31.0807 21.374 30.8642 20.6219C30.6477 19.8666 29.8613 19.4332 29.1099 19.6499L4.94772 26.6035C3.07881 27.1421 1.77344 28.8757 1.77344 30.8229V37.5789C1.77344 38.3629 2.40702 39.0002 3.19343 39.0002Z" fill="#737373"/>
<path d="M4.86809 34.5037H1.51551C0.678516 34.5037 0 35.1828 0 36.0206V55.6609C0 56.4987 0.678516 57.1778 1.51551 57.1778H4.86809C5.70508 57.1778 6.38359 56.4987 6.38359 55.6609V36.0206C6.38359 35.1828 5.70508 34.5037 4.86809 34.5037Z" fill="#5A5A5A"/>
<path d="M316.391 0H368.95C370.45 0 371.663 1.21736 371.663 2.71517V7.30418H313.679V2.71517C313.679 1.21418 314.895 0 316.391 0Z" fill="#588580"/>
<path d="M112.091 0.108398H164.649C166.149 0.108398 167.362 1.32576 167.362 2.82356V7.41257H109.378V2.82675C109.378 1.32576 110.594 0.111585 112.091 0.111585V0.108398Z" fill="#588580"/>
<path d="M14.6582 87.6756V132.326H411.88V12.6357C411.88 9.07924 409.04 6.19836 405.535 6.19836H36.6999C33.7612 6.19836 31.2014 8.25067 30.5265 11.1507L27.158 25.6061L16.5749 71.0118C15.6006 75.1897 14.9957 79.4473 14.7665 83.7303C14.6964 85.0433 14.6614 86.3563 14.6614 87.6756H14.6582Z" fill="#609A94"/>
<path d="M29.4949 99.5849H14.6582V117.578H29.4949V99.5849Z" fill="#F1C549"/>
<path d="M29.4948 99.5847C31.8795 99.5847 33.8089 101.519 33.8089 103.903V113.256C33.8089 115.64 31.8763 117.574 29.4948 117.574H25.1807V99.5815H29.4948V99.5847Z" fill="#E6E6E6"/>
<path d="M94.0665 132.718H11.6911C9.30636 132.718 7.37695 130.784 7.37695 128.4V121.896C7.37695 119.509 9.30954 117.577 11.6911 117.577H94.0665V132.718Z" fill="#888888"/>
<path d="M336.318 25.6061H305.049C302.667 25.6061 300.735 27.5394 300.735 29.9242V64.0773C300.735 66.4621 302.667 68.3954 305.049 68.3954H336.318C338.701 68.3954 340.632 66.4621 340.632 64.0773V29.9242C340.632 27.5394 338.701 25.6061 336.318 25.6061Z" fill="#B2DFE5"/>
<path d="M289.509 25.6061H258.241C255.858 25.6061 253.927 27.5394 253.927 29.9242V64.0773C253.927 66.4621 255.858 68.3954 258.241 68.3954H289.509C291.892 68.3954 293.823 66.4621 293.823 64.0773V29.9242C293.823 27.5394 291.892 25.6061 289.509 25.6061Z" fill="#B2DFE5"/>
<path d="M242.522 25.6061H211.254C208.871 25.6061 206.939 27.5394 206.939 29.9242V64.0773C206.939 66.4621 208.871 68.3954 211.254 68.3954H242.522C244.905 68.3954 246.836 66.4621 246.836 64.0773V29.9242C246.836 27.5394 244.905 25.6061 242.522 25.6061Z" fill="#B2DFE5"/>
<path d="M135.781 25.6061H104.512C102.13 25.6061 100.198 27.5394 100.198 29.9242V64.0773C100.198 66.4621 102.13 68.3954 104.512 68.3954H135.781C138.163 68.3954 140.095 66.4621 140.095 64.0773V29.9242C140.095 27.5394 138.163 25.6061 135.781 25.6061Z" fill="#B2DFE5"/>
<path d="M313.678 100.356H100.198V132.326H313.678V100.356Z" fill="#5C9089"/>
<path d="M320.685 145C334.156 145 345.077 134.069 345.077 120.586C345.077 107.102 334.156 96.1716 320.685 96.1716C307.214 96.1716 296.294 107.102 296.294 120.586C296.294 134.069 307.214 145 320.685 145Z" fill="#5A5A5A"/>
<path d="M331.521 125.077C334 119.086 331.158 112.219 325.173 109.738C319.188 107.256 312.327 110.101 309.848 116.091C307.369 122.082 310.211 128.949 316.196 131.431C322.181 133.912 329.042 131.067 331.521 125.077Z" fill="#E6E6E6"/>
<path d="M94.0662 145C107.537 145 118.458 134.069 118.458 120.586C118.458 107.102 107.537 96.1716 94.0662 96.1716C80.5952 96.1716 69.6748 107.102 69.6748 120.586C69.6748 134.069 80.5952 145 94.0662 145Z" fill="#5A5A5A"/>
<path d="M96.7574 132.016C103.062 130.527 106.967 124.204 105.479 117.893C103.991 111.583 97.6734 107.674 91.3687 109.164C85.0641 110.653 81.1594 116.976 82.6475 123.287C84.1355 129.598 90.4527 133.506 96.7574 132.016Z" fill="#E6E6E6"/>
<path d="M190.826 25.6061H155.833C153.45 25.6061 151.519 27.5394 151.519 29.9242V120.828C151.519 123.213 153.45 125.146 155.833 125.146H190.826C193.209 125.146 195.14 123.213 195.14 120.828V29.9242C195.14 27.5394 193.209 25.6061 190.826 25.6061Z" fill="#8FBEB9"/>
<path d="M169.708 34.5037H157.975C157.04 34.5037 156.281 35.2627 156.281 36.199V94.4731C156.281 95.4095 157.04 96.1685 157.975 96.1685H169.708C170.643 96.1685 171.401 95.4095 171.401 94.4731V36.199C171.401 35.2627 170.643 34.5037 169.708 34.5037Z" fill="#B2DFE5"/>
<path d="M188.683 34.5037H176.951C176.015 34.5037 175.257 35.2627 175.257 36.199V94.4731C175.257 95.4095 176.015 96.1685 176.951 96.1685H188.683C189.619 96.1685 190.377 95.4095 190.377 94.4731V36.199C190.377 35.2627 189.619 34.5037 188.683 34.5037Z" fill="#B2DFE5"/>
<path d="M41.0554 71.7193C40.7593 73.0514 41.1414 74.4472 42.071 75.4319C43.0007 76.4198 44.357 76.866 45.6783 76.6238L89.8509 68.5261C91.7612 68.1755 93.1494 66.4897 93.1494 64.5171V29.6788C93.1494 27.4289 91.3537 25.6061 89.1409 25.6061H54.5135C52.6382 25.6061 51.0144 26.9254 50.6005 28.7833L41.0554 71.7193Z" fill="#B2DFE5"/>
<path d="M16.575 71.0118L27.1581 25.6124H35.1814C36.0506 25.6093 36.8752 26.0076 37.4164 26.6896C37.9577 27.3716 38.1583 28.2639 37.9577 29.1148L25.7827 81.1713C25.4325 82.6723 24.0952 83.7335 22.5543 83.7335H14.7666C14.9958 79.4473 15.6008 75.1929 16.575 71.015V71.0118Z" fill="#B2DFE5"/>
</svg>
