<svg width="33" height="33" viewBox="0 0 33 33" fill="none" xmlns="http://www.w3.org/2000/svg">
<g clip-path="url(#clip0_119_311)">
<path d="M16.5 0C7.40205 0 0 7.40205 0 16.5C0 25.598 7.40143 33 16.5 33C25.5986 33 33 25.598 33 16.5C33 7.40205 25.5986 0 16.5 0ZM16.5 31.1577C8.41748 31.1577 1.84229 24.5825 1.84229 16.5C1.84229 8.41748 8.4181 1.84229 16.5 1.84229C24.5819 1.84229 31.1577 8.41748 31.1577 16.5C31.1577 24.5825 24.5819 31.1577 16.5 31.1577Z" fill="#FF6948"/>
<path d="M17.4212 16.1185V6.69117C17.4212 6.18252 17.0093 5.77002 16.5 5.77002C15.9907 5.77002 15.5789 6.18252 15.5789 6.69117V16.5C15.5789 16.7444 15.6756 16.9782 15.8487 17.1513L21.0418 22.3445C21.2217 22.5243 21.4574 22.6143 21.6932 22.6143C21.9289 22.6143 22.1646 22.5243 22.3445 22.3445C22.7043 21.9847 22.7043 21.4016 22.3445 21.0418L17.4212 16.1185Z" fill="#FF6948"/>
</g>
<defs>
<clipPath id="clip0_119_311">
<rect width="33" height="33" fill="white"/>
</clipPath>
</defs>
</svg>
