<svg width="220" height="236" viewBox="0 0 220 236" fill="none" xmlns="http://www.w3.org/2000/svg">
<path d="M113.485 223.331C166.238 223.331 209.003 180.653 209.003 128.007C209.003 75.36 166.238 32.6816 113.485 32.6816C60.7325 32.6816 17.9678 75.36 17.9678 128.007C17.9678 180.653 60.7325 223.331 113.485 223.331Z" fill="#ECE7D4"/>
<path d="M111.032 21.5396C51.6891 21.5396 3.58496 69.5503 3.58496 128.77C3.58496 187.989 51.6891 236 111.032 236C170.375 236 218.479 187.993 218.479 128.77C218.479 69.5466 170.375 21.5396 111.032 21.5396ZM111.032 212.756C64.5542 212.756 26.8759 175.154 26.8759 128.77C26.8759 82.3858 64.5542 44.7835 111.032 44.7835C157.51 44.7835 195.188 82.3858 195.188 128.77C195.188 175.154 157.51 212.756 111.032 212.756Z" fill="#C39031"/>
<path d="M87.905 0H137.999C141.79 0 144.868 3.07177 144.868 6.85497V28.55H81.0361V6.85497C81.0361 3.07177 84.1141 0 87.905 0Z" fill="#C39031"/>
<path d="M39.4881 28.7247L26.9794 39.1998C25.717 40.2559 25.5537 42.1308 26.6118 43.3869L37.5723 56.4225L54.6441 42.1271L43.6837 29.0915C42.6255 27.8354 40.7468 27.6687 39.4881 28.7247Z" fill="#C39031"/>
<path d="M198.921 39.1991L186.412 28.724C185.153 27.6679 183.271 27.831 182.216 29.0908L171.256 42.1264L188.328 56.4218L199.288 43.3862C200.346 42.1301 200.183 40.2514 198.921 39.1991Z" fill="#C39031"/>
</svg>
