<svg width="221" height="236" viewBox="0 0 221 236" fill="none" xmlns="http://www.w3.org/2000/svg">
<path d="M113.737 223.331C166.49 223.331 209.255 180.653 209.255 128.007C209.255 75.36 166.49 32.6816 113.737 32.6816C60.9844 32.6816 18.2197 75.36 18.2197 128.007C18.2197 180.653 60.9844 223.331 113.737 223.331Z" fill="#EEF8FF"/>
<path d="M111.284 21.5396C51.941 21.5396 3.83691 69.5503 3.83691 128.77C3.83691 187.989 51.941 236 111.284 236C170.627 236 218.731 187.993 218.731 128.77C218.731 69.5466 170.627 21.5396 111.284 21.5396ZM111.284 212.756C64.8062 212.756 27.1278 175.154 27.1278 128.77C27.1278 82.3858 64.8062 44.7835 111.284 44.7835C157.762 44.7835 195.44 82.3858 195.44 128.77C195.44 175.154 157.762 212.756 111.284 212.756Z" fill="#5683C4"/>
<path d="M88.1569 0H138.251C142.042 0 145.12 3.07177 145.12 6.85497V28.55H81.2881V6.85497C81.2881 3.07177 84.3661 0 88.1569 0Z" fill="#5683C4"/>
<path d="M39.7401 28.7247L27.2314 39.1998C25.969 40.2559 25.8056 42.1308 26.8638 43.3869L37.8242 56.4225L54.8961 42.1271L43.9356 29.0915C42.8775 27.8354 40.9988 27.6687 39.7401 28.7247Z" fill="#5683C4"/>
<path d="M199.173 39.1991L186.664 28.724C185.405 27.6679 183.523 27.831 182.468 29.0908L171.508 42.1264L188.58 56.4218L199.54 43.3862C200.598 42.1301 200.435 40.2514 199.173 39.1991Z" fill="#5683C4"/>
</svg>
