<svg width="220" height="236" viewBox="0 0 220 236" fill="none" xmlns="http://www.w3.org/2000/svg">
<path d="M112.624 223.331C165.377 223.331 208.142 180.653 208.142 128.007C208.142 75.36 165.377 32.6816 112.624 32.6816C59.8711 32.6816 17.1064 75.36 17.1064 128.007C17.1064 180.653 59.8711 223.331 112.624 223.331Z" fill="#ECE7D4"/>
<path d="M110.171 21.5396C50.8278 21.5396 2.72363 69.5503 2.72363 128.77C2.72363 187.989 50.8278 236 110.171 236C169.514 236 217.618 187.993 217.618 128.77C217.618 69.5466 169.514 21.5396 110.171 21.5396ZM110.171 212.756C63.6929 212.756 26.0146 175.154 26.0146 128.77C26.0146 82.3858 63.6929 44.7835 110.171 44.7835C156.649 44.7835 194.327 82.3858 194.327 128.77C194.327 175.154 156.649 212.756 110.171 212.756Z" fill="#A54F00"/>
<path d="M87.0427 0H137.137C140.928 0 144.006 3.07177 144.006 6.85497V28.55H80.1738V6.85497C80.1738 3.07177 83.2518 0 87.0427 0Z" fill="#A54F00"/>
<path d="M38.6268 28.7249L26.1181 39.2001C24.8557 40.2561 24.6923 42.131 25.7505 43.3872L36.711 56.4227L53.7828 42.1273L42.8224 29.0918C41.7642 27.8357 39.8855 27.6689 38.6268 28.7249Z" fill="#A54F00"/>
<path d="M198.059 39.1993L185.551 28.7242C184.292 27.6682 182.409 27.8312 181.355 29.091L170.395 42.1266L187.466 56.422L198.427 43.3864C199.485 42.1303 199.322 40.2517 198.059 39.1993Z" fill="#A54F00"/>
</svg>
