<svg width="33" height="33" viewBox="0 0 33 33" fill="none" xmlns="http://www.w3.org/2000/svg">
<g clip-path="url(#clip0_119_333)">
<path d="M16.5 0C7.40205 0 0 7.40205 0 16.5C0 25.598 7.40143 33 16.5 33C25.5986 33 33 25.598 33 16.5C33 7.40205 25.5986 0 16.5 0ZM16.5 31.1577C8.41748 31.1577 1.84229 24.5825 1.84229 16.5C1.84229 8.41748 8.4181 1.84229 16.5 1.84229C24.5819 1.84229 31.1577 8.41748 31.1577 16.5C31.1577 24.5825 24.5819 31.1577 16.5 31.1577Z" fill="white"/>
<path d="M17.4209 16.1185V6.69117C17.4209 6.18252 17.009 5.77002 16.4998 5.77002C15.9905 5.77002 15.5786 6.18252 15.5786 6.69117V16.5C15.5786 16.7444 15.6754 16.9782 15.8484 17.1513L21.0416 22.3445C21.2215 22.5243 21.4572 22.6143 21.6929 22.6143C21.9286 22.6143 22.1643 22.5243 22.3442 22.3445C22.704 21.9847 22.704 21.4016 22.3442 21.0418L17.4209 16.1185Z" fill="white"/>
</g>
<defs>
<clipPath id="clip0_119_333">
<rect width="33" height="33" fill="white"/>
</clipPath>
</defs>
</svg>
