<svg width="222" height="236" viewBox="0 0 222 236" fill="none" xmlns="http://www.w3.org/2000/svg">
<path d="M114.348 223.331C167.101 223.331 209.865 180.653 209.865 128.007C209.865 75.36 167.101 32.6816 114.348 32.6816C61.5948 32.6816 18.8301 75.36 18.8301 128.007C18.8301 180.653 61.5948 223.331 114.348 223.331Z" fill="#FCF9EE"/>
<path d="M111.894 21.5396C52.5514 21.5396 4.44727 69.5503 4.44727 128.77C4.44727 187.989 52.5514 236 111.894 236C171.237 236 219.342 187.993 219.342 128.77C219.342 69.5466 171.237 21.5396 111.894 21.5396ZM111.894 212.756C65.4165 212.756 27.7382 175.154 27.7382 128.77C27.7382 82.3858 65.4165 44.7835 111.894 44.7835C158.372 44.7835 196.051 82.3858 196.051 128.77C196.051 175.154 158.372 212.756 111.894 212.756Z" fill="#EDE7D2"/>
<path d="M88.7663 0H138.861C142.651 0 145.729 3.07177 145.729 6.85497V28.55H81.8975V6.85497C81.8975 3.07177 84.9754 0 88.7663 0Z" fill="#EDE7D2"/>
<path d="M40.3504 28.7249L27.8417 39.2001C26.5793 40.2561 26.416 42.131 27.4742 43.3872L38.4346 56.4227L55.5064 42.1273L44.546 29.0918C43.4878 27.8357 41.6091 27.6689 40.3504 28.7249Z" fill="#EDE7D2"/>
<path d="M199.783 39.1993L187.274 28.7242C186.015 27.6682 184.133 27.8312 183.079 29.091L172.118 42.1266L189.19 56.422L200.15 43.3864C201.209 42.1303 201.045 40.2517 199.783 39.1993Z" fill="#EDE7D2"/>
</svg>
