<svg width="25" height="24" viewBox="0 0 25 24" fill="none" xmlns="http://www.w3.org/2000/svg">
<path d="M4.67776 10.8961C4.8958 10.8961 5.09947 10.7871 5.22047 10.6055L8.05696 6.34149C8.40685 5.74631 8.59043 5.06807 8.58878 4.37771C8.59099 3.15642 8.02269 2.00416 7.05221 1.26279C6.08173 0.521374 4.82065 0.275712 3.64284 0.598924C2.46521 0.922112 1.50595 1.77693 1.04979 2.90987C0.593463 4.04257 0.692722 5.32353 1.31792 6.37284L4.13508 10.6058C4.25607 10.7871 4.45974 10.8962 4.67779 10.8962L4.67776 10.8961ZM2.07034 4.37766C2.07181 3.44716 2.56921 2.58807 3.37525 2.12329C4.18149 1.65849 5.17404 1.65849 5.98027 2.12329C6.78632 2.58809 7.28368 3.44716 7.28519 4.37766C7.2874 4.82534 7.17175 5.26584 6.94966 5.65458L4.6778 9.06857L2.42527 5.68588C2.19213 5.2894 2.06949 4.83768 2.07041 4.37766H2.07034Z" fill="white"/>
<path d="M5.9814 4.37776C5.9814 5.09777 5.39782 5.68135 4.67781 5.68135C3.95779 5.68135 3.37402 5.09777 3.37402 4.37776C3.37402 3.65774 3.95779 3.07397 4.67781 3.07397C5.39782 3.07397 5.9814 3.65774 5.9814 4.37776" fill="white"/>
<path d="M17.2959 5.02958C15.4565 5.03161 13.6931 5.76322 12.3925 7.06389C11.0919 8.36456 10.3604 10.128 10.3584 11.9672C10.3571 13.2038 10.6897 14.4179 11.3212 15.4814L16.7534 23.6428C16.874 23.8242 17.0777 23.9334 17.2958 23.9334C17.5138 23.9334 17.7173 23.8242 17.8381 23.6428L22.831 16.148L23.2906 15.45L23.2904 15.4499C23.9107 14.3941 24.2362 13.1914 24.2337 11.9672C24.2315 10.1277 23.5 8.36424 22.1994 7.06385C20.8987 5.76318 19.1353 5.03157 17.296 5.02954L17.2959 5.02958ZM22.1827 14.7636L17.2959 22.1057L12.4288 14.7952C11.9248 13.9382 11.6602 12.9616 11.662 11.9676C11.6596 10.4718 12.252 9.03644 13.3089 7.97795C14.3657 6.91945 15.8001 6.32465 17.2959 6.32465C18.7916 6.32465 20.226 6.91945 21.2828 7.97795C22.3397 9.03644 22.9321 10.4717 22.9297 11.9676C22.933 12.9493 22.6752 13.9143 22.1828 14.7636L22.1827 14.7636Z" fill="white"/>
<path d="M17.2957 9.45312C16.6287 9.45312 15.9893 9.71794 15.5177 10.1895C15.0462 10.661 14.7812 11.3005 14.7812 11.9673C14.7812 12.6342 15.0462 13.2737 15.5177 13.7452C15.9893 14.2168 16.6286 14.4816 17.2955 14.4816C17.9625 14.4816 18.6018 14.2168 19.0735 13.7452C19.5449 13.2737 19.8099 12.6342 19.8099 11.9673C19.8099 11.3005 19.5449 10.661 19.0735 10.1895C18.6018 9.71793 17.9625 9.45312 17.2957 9.45312Z" fill="white"/>
<path d="M14.4552 22.6295C12.0358 22.6267 9.71591 21.6643 8.0051 19.9536C6.29414 18.2428 5.33177 15.9231 5.32917 13.5035V12.8516C5.32917 12.4916 5.03729 12.1997 4.67728 12.1997C4.31727 12.1997 4.02539 12.4916 4.02539 12.8516V13.5035C4.02852 16.2685 5.12844 18.9197 7.08359 20.8747C9.03894 22.8301 11.69 23.9298 14.4549 23.9331C14.8149 23.9331 15.1067 23.6413 15.1067 23.2812C15.1067 22.9212 14.8149 22.6294 14.4549 22.6294L14.4552 22.6295Z" fill="white"/>
</svg>
