<svg width="25" height="24" viewBox="0 0 25 24" fill="none" xmlns="http://www.w3.org/2000/svg">
<path d="M4.67776 10.896C4.8958 10.896 5.09947 10.787 5.22047 10.6054L8.05696 6.34137C8.40685 5.74619 8.59043 5.06795 8.58878 4.37758C8.59099 3.1563 8.02269 2.00404 7.05221 1.26267C6.08173 0.521252 4.82065 0.27559 3.64284 0.598802C2.46521 0.92199 1.50595 1.77681 1.04979 2.90974C0.593463 4.04245 0.692722 5.32341 1.31792 6.37272L4.13508 10.6056C4.25607 10.787 4.45974 10.896 4.67779 10.896L4.67776 10.896ZM2.07034 4.37754C2.07181 3.44704 2.56921 2.58795 3.37525 2.12317C4.18149 1.65837 5.17404 1.65837 5.98027 2.12317C6.78632 2.58797 7.28368 3.44704 7.28519 4.37754C7.2874 4.82522 7.17175 5.26571 6.94966 5.65445L4.6778 9.06845L2.42527 5.68576C2.19213 5.28928 2.06949 4.83756 2.07041 4.37754H2.07034Z" fill="#5A8777"/>
<path d="M5.9814 4.37751C5.9814 5.09753 5.39782 5.68111 4.67781 5.68111C3.95779 5.68111 3.37402 5.09753 3.37402 4.37751C3.37402 3.6575 3.95779 3.07373 4.67781 3.07373C5.39782 3.07373 5.9814 3.6575 5.9814 4.37751Z" fill="#5A8777"/>
<path d="M17.2959 5.02958C15.4565 5.03161 13.6931 5.76322 12.3925 7.06389C11.0919 8.36456 10.3604 10.128 10.3584 11.9672C10.3571 13.2038 10.6897 14.4179 11.3212 15.4814L16.7534 23.6428C16.874 23.8242 17.0777 23.9334 17.2958 23.9334C17.5138 23.9334 17.7173 23.8242 17.8381 23.6428L22.831 16.148L23.2906 15.45L23.2904 15.4499C23.9107 14.3941 24.2362 13.1914 24.2337 11.9672C24.2315 10.1277 23.5 8.36424 22.1994 7.06385C20.8987 5.76318 19.1353 5.03157 17.296 5.02954L17.2959 5.02958ZM22.1827 14.7636L17.2959 22.1057L12.4288 14.7952C11.9248 13.9382 11.6602 12.9616 11.662 11.9676C11.6596 10.4718 12.252 9.03644 13.3089 7.97795C14.3657 6.91945 15.8001 6.32465 17.2959 6.32465C18.7916 6.32465 20.226 6.91945 21.2828 7.97795C22.3397 9.03644 22.9321 10.4717 22.9297 11.9676C22.933 12.9493 22.6752 13.9143 22.1828 14.7636L22.1827 14.7636Z" fill="#5A8777"/>
<path d="M17.2957 9.45288C16.6287 9.45288 15.9893 9.71769 15.5177 10.1893C15.0462 10.6607 14.7812 11.3003 14.7812 11.9671C14.7812 12.6339 15.0462 13.2735 15.5177 13.7449C15.9893 14.2165 16.6286 14.4813 17.2955 14.4813C17.9625 14.4813 18.6018 14.2165 19.0735 13.7449C19.5449 13.2735 19.8099 12.6339 19.8099 11.9671C19.8099 11.3003 19.5449 10.6607 19.0735 10.1893C18.6018 9.71768 17.9625 9.45288 17.2957 9.45288Z" fill="#5A8777"/>
<path d="M14.4552 22.6294C12.0358 22.6266 9.71591 21.6642 8.0051 19.9535C6.29414 18.2427 5.33177 15.9229 5.32917 13.5034V12.8515C5.32917 12.4915 5.03729 12.1996 4.67728 12.1996C4.31727 12.1996 4.02539 12.4915 4.02539 12.8515V13.5034C4.02852 16.2684 5.12844 18.9196 7.0836 20.8746C9.03894 22.83 11.69 23.9297 14.4549 23.933C14.8149 23.933 15.1067 23.6411 15.1067 23.2811C15.1067 22.9211 14.8149 22.6292 14.4549 22.6292L14.4552 22.6294Z" fill="#5A8777"/>
</svg>
