<svg width="120" height="307" viewBox="0 0 120 307" fill="none" xmlns="http://www.w3.org/2000/svg">
<path d="M21.4373 125.409C21.3079 124.407 20.8181 123.464 20.0835 122.665C18.7157 121.174 16.5537 119.375 11.4358 119.695C5.41173 120.072 2.66209 124.885 2.59562 127.064C2.49767 130.418 3.27779 130.925 4.78554 134.328C6.66412 138.563 7.87802 139.794 8.56368 142.128C9.10941 143.985 10.2184 147.198 10.5577 149.219C10.9005 151.24 12.7546 155.142 17.6102 154.738C20.8251 154.468 22.6792 152.828 22.7667 149.808C22.8506 146.952 20.5068 144.064 19.153 143.185C15.4168 140.757 15.081 138.569 15.3608 135.889C15.6407 133.209 18.1385 131.097 20.5977 128.277C21.4163 127.339 21.5458 126.291 21.4303 125.409H21.4373Z" fill="#9A531D"/>
<path d="M12.7651 116.068C12.8805 117.457 12.1599 118.628 11.1559 118.687C10.1519 118.745 9.24233 117.668 9.12689 116.279C9.01145 114.891 9.73209 113.719 10.7361 113.661C11.7401 113.602 12.6497 114.68 12.7651 116.068V116.068Z" fill="#9A531D"/>
<path d="M8.13694 117.603C8.49376 118.71 8.13344 119.756 7.33234 119.935C6.53123 120.116 5.5937 119.364 5.23687 118.256C4.88005 117.149 5.24037 116.104 6.04147 115.925C6.84258 115.743 7.78012 116.496 8.13694 117.603V117.603Z" fill="#9A531D"/>
<path d="M4.68061 119.762C4.99196 120.726 4.67711 121.636 3.97746 121.795C3.2778 121.953 2.4592 121.297 2.15136 120.333C1.84001 119.369 2.15485 118.458 2.85451 118.3C3.55416 118.142 4.37276 118.798 4.68061 119.762V119.762Z" fill="#9A531D"/>
<path d="M2.38921 122.981C2.80201 123.804 2.65508 124.642 2.06038 124.85C1.46567 125.061 0.647073 124.563 0.234277 123.74C-0.17852 122.916 -0.0315923 122.079 0.563114 121.871C1.15782 121.663 1.97642 122.158 2.38921 122.981Z" fill="#9A531D"/>
<path d="M19.9925 115.635C20.1709 117.788 19.0514 119.604 17.4947 119.694C15.938 119.785 14.5282 118.113 14.3497 115.963C14.1713 113.81 15.2908 111.994 16.8475 111.903C18.4042 111.812 19.814 113.485 19.9925 115.635Z" fill="#9A531D"/>
<path d="M30.1759 154.872C30.3613 153.876 30.9106 152.954 31.6907 152.186C33.146 150.754 35.4094 149.046 40.5063 149.579C46.5024 150.206 48.9617 155.127 48.8987 157.306C48.8007 160.66 47.9891 161.135 46.282 164.471C44.155 168.624 42.8712 169.802 42.0456 172.104C41.3914 173.937 40.0935 177.098 39.6318 179.104C39.17 181.108 37.085 184.93 32.2609 184.324C29.067 183.922 27.3108 182.206 27.4018 179.186C27.4858 176.33 29.9975 173.545 31.4003 172.722C35.2764 170.452 35.7417 168.278 35.6192 165.593C35.4968 162.904 33.1285 160.692 30.8371 157.772C30.078 156.802 30.008 155.748 30.1724 154.872H30.1759Z" fill="#9A531D"/>
<path d="M39.3869 145.901C39.191 147.283 39.8416 148.484 40.8421 148.584C41.8427 148.683 42.8117 147.646 43.0111 146.264C43.2105 144.881 42.5563 143.68 41.5558 143.581C40.5553 143.481 39.5863 144.518 39.3869 145.901Z" fill="#9A531D"/>
<path d="M43.9208 147.626C43.501 148.715 43.7984 149.776 44.589 149.989C45.3796 150.203 46.3591 149.492 46.7824 148.402C47.2022 147.309 46.9048 146.252 46.1142 146.038C45.3236 145.824 44.3441 146.536 43.9208 147.626V147.626Z" fill="#9A531D"/>
<path d="M47.248 149.922C46.8807 150.874 47.1395 151.794 47.8287 151.981C48.5178 152.169 49.3714 151.548 49.7422 150.596C50.1096 149.644 49.8507 148.724 49.1615 148.537C48.4724 148.349 47.6188 148.97 47.2515 149.922H47.248Z" fill="#9A531D"/>
<path d="M49.3433 153.232C48.8816 154.038 48.9795 154.878 49.5637 155.112C50.1444 155.347 50.991 154.884 51.4528 154.081C51.9146 153.276 51.8166 152.435 51.2324 152.201C50.6517 151.967 49.8051 152.429 49.3433 153.232Z" fill="#9A531D"/>
<path d="M32.1948 145.168C31.8905 147.309 32.898 149.172 34.4477 149.328C35.9975 149.483 37.5017 147.872 37.8096 145.731C38.1139 143.59 37.1064 141.727 35.5567 141.571C34.007 141.416 32.5027 143.027 32.1948 145.168Z" fill="#9A531D"/>
<path d="M59.7086 60.9848C60.0619 60.0212 60.0514 58.9931 59.754 58.0148C59.1978 56.1929 58.0539 53.8262 53.1948 52.4379C47.4786 50.8035 42.6895 54.3213 41.6085 56.3042C39.9433 59.3563 40.4226 60.0768 40.2127 63.703C39.9503 68.2166 40.4891 69.7485 40.0238 72.1181C39.653 74.0073 39.1632 77.323 38.53 79.2943C37.8933 81.2655 37.7674 85.4657 42.4236 86.6901C45.5056 87.5014 47.9789 86.6022 49.4796 83.8577C50.8999 81.2596 50.0988 77.8327 49.2662 76.579C46.9714 73.1169 47.6885 70.9934 49.2032 68.6208C50.718 66.2483 54.0099 65.1294 57.5921 63.3456C58.785 62.751 59.3937 61.8313 59.7051 60.9819L59.7086 60.9848Z" fill="#9A531D"/>
<path d="M56.1264 49.541C55.5807 50.8561 54.3668 51.6968 53.4153 51.4185C52.4637 51.1402 52.1349 49.8515 52.6806 48.5363C53.2263 47.2212 54.4402 46.3805 55.3918 46.6588C56.3433 46.9371 56.6721 48.2258 56.1264 49.541Z" fill="#9A531D"/>
<path d="M51.1484 49.4297C50.956 50.5661 50.1339 51.4068 49.3119 51.3101C48.4898 51.2135 47.979 50.2117 48.1714 49.0782C48.3638 47.9417 49.1859 47.1011 50.008 47.1978C50.8301 47.2944 51.3409 48.2961 51.1484 49.4297Z" fill="#9A531D"/>
<path d="M46.9574 50.2732C46.7894 51.2633 46.0723 51.9955 45.3552 51.9106C44.638 51.8256 44.1937 50.9557 44.3616 49.9657C44.5296 48.9757 45.2467 48.2434 45.9639 48.3284C46.681 48.4133 47.1253 49.2832 46.9574 50.2732Z" fill="#9A531D"/>
<path d="M43.3399 52.4789C43.3329 53.3723 42.8047 54.0928 42.1575 54.0899C41.5103 54.0869 40.9926 53.3605 40.9996 52.4672C41.0066 51.5738 41.5348 50.8533 42.182 50.8562C42.8292 50.8591 43.3469 51.5855 43.3399 52.4789Z" fill="#9A531D"/>
<path d="M62.9761 51.521C62.1295 53.5597 60.2474 54.8631 58.7746 54.4325C57.2984 54.0019 56.7911 52.0043 57.6377 49.9657C58.4843 47.9271 60.3663 46.6237 61.8391 47.0543C63.3154 47.4848 63.8226 49.4824 62.9761 51.521Z" fill="#9A531D"/>
<path d="M53.9118 90.9489C54.5519 90.0936 55.486 89.4287 56.5634 88.9777C58.575 88.137 61.4575 87.314 65.8933 89.4815C71.1128 92.0327 71.0638 97.3664 69.9793 99.3494C68.3141 102.401 67.3486 102.568 64.2072 105.073C60.2996 108.189 58.568 108.851 56.7279 110.697C55.2656 112.167 52.5859 114.648 51.2216 116.338C49.8573 118.031 46.1456 120.857 41.9931 118.71C39.2435 117.29 38.4354 115.134 39.9362 112.387C41.3565 109.789 44.9737 108.055 46.6493 107.762C51.2776 106.95 52.7258 105.108 53.8768 102.595C55.0277 100.085 53.8873 97.2669 53.1526 93.8311C52.9078 92.6888 53.3415 91.6987 53.9048 90.946L53.9118 90.9489Z" fill="#9A531D"/>
<path d="M66.5964 85.7323C65.7673 86.9391 65.8022 88.2571 66.6733 88.676C67.5444 89.0978 68.9262 88.4622 69.7553 87.2554C70.5844 86.0486 70.5494 84.7306 69.6783 84.3117C68.8073 83.8899 67.4254 84.5256 66.5964 85.7323Z" fill="#9A531D"/>
<path d="M69.9516 88.8135C69.0525 89.6776 68.8286 90.7496 69.4548 91.2066C70.081 91.6635 71.3159 91.3325 72.2185 90.4685C73.1175 89.6044 73.3414 88.5324 72.7152 88.0754C72.089 87.6185 70.8542 87.9495 69.9516 88.8135Z" fill="#9A531D"/>
<path d="M71.9316 92.018C71.148 92.7707 70.9521 93.7051 71.4978 94.1034C72.0435 94.5018 73.121 94.2147 73.9046 93.4591C74.6882 92.7063 74.8841 91.7719 74.3384 91.3736C73.7927 90.9752 72.7152 91.2623 71.9316 92.018Z" fill="#9A531D"/>
<path d="M72.3056 95.7525C71.5045 96.3412 71.2001 97.1467 71.6234 97.5538C72.0502 97.961 73.0437 97.8145 73.8448 97.2258C74.6459 96.637 74.9503 95.8315 74.527 95.4244C74.1002 95.0173 73.1067 95.1637 72.3056 95.7525Z" fill="#9A531D"/>
<path d="M60.3241 82.6918C59.0367 84.5606 59.0892 86.605 60.4431 87.2582C61.7969 87.9114 63.9343 86.9272 65.2217 85.0585C66.5091 83.1898 66.4566 81.1453 65.1028 80.4921C63.7489 79.839 61.6115 80.8231 60.3241 82.6918Z" fill="#9A531D"/>
<path d="M97.9444 14.0499C98.0983 13.051 97.8814 12.0376 97.3881 11.1179C96.4716 9.40146 94.8659 7.23104 89.7969 6.5515C83.8323 5.74895 79.8268 9.89647 79.1586 12.0054C78.1336 15.2508 78.7528 15.8922 79.2776 19.4949C79.9317 23.9793 80.7713 25.4116 80.7923 27.8163C80.8098 29.729 80.9987 33.0681 80.7713 35.1009C80.5439 37.1336 81.2681 41.2899 86.1062 41.8377C89.3071 42.2009 91.5635 40.9648 92.487 38.0446C93.3616 35.2825 91.8783 32.0195 90.8044 30.9036C87.8413 27.8163 88.1212 25.6225 89.1357 23.0684C90.1502 20.5172 93.1657 18.9472 96.3386 16.6801C97.3916 15.9274 97.8079 14.9315 97.9444 14.0528V14.0499Z" fill="#9A531D"/>
<path d="M92.0988 3.27679C91.826 4.65051 90.801 5.64931 89.8075 5.51165C88.814 5.37398 88.2298 4.14964 88.5026 2.77592C88.7755 1.4022 89.8005 0.403398 90.794 0.541063C91.7875 0.678728 92.3717 1.90307 92.0988 3.27679V3.27679Z" fill="#9A531D"/>
<path d="M87.1697 3.87434C87.2082 5.01959 86.568 5.96568 85.739 5.98618C84.9099 6.00668 84.2032 5.09282 84.1647 3.94757C84.1263 2.80231 84.7664 1.85623 85.5955 1.83573C86.4246 1.81522 87.1313 2.72908 87.1697 3.87434Z" fill="#9A531D"/>
<path d="M83.2096 5.3008C83.2446 6.2996 82.6883 7.12559 81.9642 7.14316C81.2401 7.16074 80.6279 6.36404 80.5929 5.36524C80.5579 4.36643 81.1141 3.54044 81.8383 3.52287C82.5624 3.50529 83.1746 4.30199 83.2096 5.3008Z" fill="#9A531D"/>
<path d="M80.0892 7.98674C80.2641 8.86838 79.8863 9.65336 79.2496 9.74123C78.6129 9.8291 77.9552 9.18764 77.7803 8.306C77.6054 7.42436 77.9797 6.63938 78.6199 6.55151C79.2566 6.46364 79.9143 7.1051 80.0892 7.98674V7.98674Z" fill="#9A531D"/>
<path d="M99.2495 4.26097C98.8262 6.38745 97.238 7.93985 95.6952 7.72603C94.156 7.51221 93.2465 5.61419 93.6698 3.48477C94.093 1.35536 95.6813 -0.194102 97.224 0.0197184C98.7632 0.233538 99.6728 2.13156 99.2495 4.26097V4.26097Z" fill="#9A531D"/>
<path d="M98.2909 44.4035C98.7492 43.4721 99.5363 42.6813 100.505 42.0837C102.317 40.9707 104.994 39.7522 109.8 41.2607C115.457 43.0357 116.489 48.2992 115.824 50.4051C114.799 53.6505 113.883 53.9522 111.294 56.8666C108.076 60.4928 106.498 61.392 105.06 63.4687C103.916 65.1236 101.779 67.9501 100.775 69.81C99.7707 71.67 96.6852 74.9827 92.1584 73.4567C89.1604 72.4462 87.929 70.4368 88.8525 67.5166C89.7271 64.7545 92.942 62.5314 94.5337 62.0071C98.9311 60.5513 99.9875 58.5303 100.614 55.8912C101.24 53.2522 99.5468 50.6395 98.13 47.356C97.6577 46.2635 97.8851 45.2266 98.2874 44.4065L98.2909 44.4035Z" fill="#9A531D"/>
<path d="M109.734 37.4645C109.16 38.7708 109.461 40.0655 110.406 40.3555C111.35 40.6484 112.581 39.8253 113.155 38.5189C113.729 37.2126 113.428 35.918 112.484 35.628C111.539 35.338 110.308 36.1581 109.734 37.4645V37.4645Z" fill="#9A531D"/>
<path d="M113.666 40.0245C112.952 41.0028 112.952 42.0924 113.659 42.4527C114.369 42.813 115.52 42.3121 116.234 41.3338C116.947 40.3555 116.947 39.2659 116.241 38.9056C115.531 38.5454 114.38 39.0462 113.666 40.0245Z" fill="#9A531D"/>
<path d="M116.265 42.9039C115.646 43.7562 115.642 44.7052 116.261 45.0216C116.881 45.3379 117.885 44.8986 118.504 44.0462C119.123 43.1939 119.127 42.2448 118.507 41.9285C117.888 41.6122 116.884 42.0515 116.265 42.9039Z" fill="#9A531D"/>
<path d="M117.388 46.5299C116.716 47.2241 116.58 48.0618 117.08 48.4015C117.58 48.7413 118.532 48.4572 119.204 47.763C119.875 47.0688 120.012 46.2311 119.511 45.8914C119.011 45.5516 118.06 45.8357 117.388 46.5299Z" fill="#9A531D"/>
<path d="M102.94 35.3556C102.048 37.3796 102.517 39.386 103.983 39.84C105.448 40.2911 107.358 39.0169 108.247 36.993C109.139 34.969 108.67 32.9626 107.205 32.5086C105.739 32.0575 103.829 33.3317 102.94 35.3556V35.3556Z" fill="#9A531D"/>
<path d="M26.0162 198.615C25.4355 197.733 24.5435 197.021 23.4975 196.523C21.5455 195.592 18.7223 194.634 14.1501 196.594C8.76976 198.899 8.46191 204.224 9.41344 206.256C10.8757 209.382 11.8272 209.596 14.7938 212.24C18.488 215.536 20.1741 216.277 21.8883 218.204C23.2526 219.739 25.7609 222.34 27.0098 224.094C28.2586 225.846 31.7779 228.842 36.0668 226.892C38.9074 225.6 39.8554 223.488 38.5401 220.673C37.2947 218.014 33.7999 216.113 32.1452 215.741C27.5765 214.716 26.2541 212.806 25.2711 210.246C24.2881 207.686 25.6139 204.927 26.576 201.529C26.8943 200.398 26.5305 199.391 26.0162 198.615V198.615Z" fill="#9A531D"/>
<path d="M13.7028 192.815C14.4514 194.057 14.329 195.372 13.4299 195.753C12.5309 196.134 11.1945 195.434 10.4459 194.192C9.69726 192.95 9.8197 191.635 10.7188 191.254C11.6178 190.873 12.9541 191.573 13.7028 192.815Z" fill="#9A531D"/>
<path d="M10.145 195.732C10.9845 196.638 11.135 197.718 10.4808 198.143C9.82662 198.571 8.61272 198.181 7.77313 197.276C6.93354 196.371 6.78312 195.29 7.4373 194.865C8.09147 194.438 9.30537 194.827 10.145 195.732Z" fill="#9A531D"/>
<path d="M7.95483 198.843C8.68947 199.631 8.81891 200.574 8.24869 200.946C7.67847 201.318 6.62199 200.981 5.88735 200.19C5.15272 199.403 5.02328 198.459 5.5935 198.087C6.16372 197.715 7.2202 198.052 7.95483 198.843Z" fill="#9A531D"/>
<path d="M7.33554 202.554C8.09816 203.178 8.34654 203.998 7.89526 204.385C7.44399 204.771 6.46097 204.578 5.69835 203.954C4.93573 203.33 4.68385 202.51 5.13862 202.124C5.5934 201.737 6.57292 201.93 7.33554 202.554Z" fill="#9A531D"/>
<path d="M20.164 190.071C21.3254 191.995 21.1365 194.034 19.7407 194.625C18.3449 195.214 16.2739 194.13 15.116 192.206C13.9546 190.282 14.1435 188.24 15.5393 187.651C16.9351 187.063 19.0061 188.146 20.164 190.071Z" fill="#9A531D"/>
<path d="M47.7093 222.937C47.4225 221.959 47.4994 220.931 47.8633 219.97C48.5384 218.178 49.8398 215.87 54.7828 214.707C60.6005 213.339 65.1447 217.076 66.0963 219.109C67.5585 222.234 67.0303 222.932 66.9988 226.564C66.9603 231.08 66.3202 232.586 66.628 234.976C66.8729 236.877 67.1388 240.213 67.6425 242.21C68.1463 244.208 67.9923 248.405 63.2627 249.413C60.1317 250.078 57.7214 249.067 56.406 246.255C55.1607 243.596 56.1892 240.213 57.1022 239C59.6245 235.649 59.0472 233.497 57.6934 231.057C56.3396 228.617 53.1282 227.346 49.6684 225.398C48.5174 224.75 47.9682 223.801 47.7163 222.94L47.7093 222.937Z" fill="#9A531D"/>
<path d="M52.0508 211.678C52.5091 213.017 53.6635 213.913 54.6325 213.679C55.6015 213.447 56.0143 212.173 55.556 210.837C55.0978 209.502 53.9433 208.603 52.9743 208.837C52.0053 209.068 51.5925 210.342 52.0508 211.678Z" fill="#9A531D"/>
<path d="M57.0284 211.798C57.1438 212.941 57.9099 213.819 58.7355 213.761C59.5611 213.702 60.1383 212.727 60.0229 211.584C59.9074 210.442 59.1413 209.563 58.3157 209.622C57.4901 209.681 56.9129 210.656 57.0284 211.798Z" fill="#9A531D"/>
<path d="M61.1565 212.838C61.258 213.834 61.9262 214.598 62.6468 214.549C63.3675 214.496 63.8712 213.649 63.7698 212.654C63.6683 211.658 63.0001 210.893 62.2795 210.943C61.5588 210.993 61.0551 211.842 61.1565 212.838Z" fill="#9A531D"/>
<path d="M64.6197 215.211C64.5672 216.101 65.0464 216.845 65.6901 216.874C66.3338 216.901 66.9005 216.201 66.953 215.31C67.0055 214.42 66.5262 213.676 65.8825 213.646C65.2388 213.62 64.6721 214.32 64.6197 215.211Z" fill="#9A531D"/>
<path d="M45.082 213.339C45.7922 215.413 47.5833 216.801 49.0841 216.441C50.5848 216.081 51.2285 214.106 50.5183 212.036C49.8082 209.962 48.0171 208.573 46.5163 208.934C45.0156 209.294 44.3719 211.268 45.082 213.339Z" fill="#9A531D"/>
<path d="M52.7642 269.278C51.998 268.499 50.966 267.939 49.8291 267.611C47.7057 266.996 44.7181 266.492 40.6566 269.123C35.878 272.219 36.7456 277.5 38.1274 279.351C40.2508 282.198 41.2338 282.259 44.7321 284.403C49.0875 287.072 50.9101 287.54 53.016 289.172C54.6952 290.469 57.7317 292.64 59.3479 294.172C60.9606 295.701 65.0781 298.102 68.8632 295.525C71.3715 293.817 71.8367 291.594 69.9267 289.034C68.1181 286.612 64.263 285.285 62.5558 285.174C57.8402 284.872 56.119 283.199 54.5903 280.833C53.0615 278.466 53.7577 275.552 53.9536 272.063C54.02 270.903 53.4358 269.969 52.7642 269.284V269.278Z" fill="#9A531D"/>
<path d="M39.3835 265.479C40.391 266.583 40.5624 267.895 39.7613 268.408C38.9602 268.92 37.4944 268.44 36.4834 267.333C35.4724 266.226 35.3045 264.916 36.1056 264.404C36.9067 263.891 38.3725 264.372 39.38 265.479H39.3835Z" fill="#9A531D"/>
<path d="M36.5288 268.894C37.5538 269.653 37.9421 270.692 37.3893 271.211C36.8401 271.732 35.5632 271.539 34.5347 270.777C33.5097 270.019 33.1214 268.979 33.6742 268.461C34.2234 267.939 35.5003 268.132 36.5288 268.894Z" fill="#9A531D"/>
<path d="M35.063 272.289C35.9586 272.951 36.2944 273.856 35.8152 274.31C35.3359 274.764 34.2234 274.594 33.3279 273.932C32.4323 273.27 32.0965 272.365 32.5758 271.911C33.055 271.457 34.1675 271.627 35.063 272.289Z" fill="#9A531D"/>
<path d="M35.2695 276.032C36.1546 276.527 36.5814 277.294 36.2245 277.746C35.8642 278.197 34.8567 278.159 33.9717 277.661C33.0866 277.166 32.6598 276.398 33.0166 275.947C33.3735 275.496 34.3845 275.534 35.2695 276.032Z" fill="#9A531D"/>
<path d="M45.131 261.782C46.6948 263.496 46.9571 265.529 45.7187 266.322C44.4769 267.116 42.203 266.372 40.6392 264.659C39.0755 262.945 38.8131 260.912 40.0515 260.119C41.2934 259.325 43.5673 260.069 45.131 261.785V261.782Z" fill="#9A531D"/>
<path d="M79.4388 289.837C78.9385 288.92 78.7916 287.898 78.935 286.896C79.2044 285.03 79.974 282.561 84.5778 280.654C89.9966 278.413 95.286 281.384 96.6643 283.235C98.7877 286.082 98.4239 286.849 99.19 290.42C100.145 294.866 99.8512 296.445 100.677 298.744C101.334 300.575 102.335 303.814 103.269 305.698C104.203 307.584 104.976 311.734 100.551 313.454C97.6193 314.593 95.0271 313.969 93.117 311.409C91.3084 308.987 91.5743 305.504 92.204 304.169C93.9461 300.487 92.9071 298.46 91.0356 296.272C89.1675 294.084 85.7322 293.331 81.9016 291.949C80.6282 291.489 79.8796 290.642 79.4388 289.834V289.837Z" fill="#9A531D"/>
<path d="M81.2263 278.1C81.9714 279.345 83.3043 280.045 84.2033 279.667C85.1024 279.289 85.2318 277.974 84.4867 276.732C83.7415 275.49 82.4087 274.787 81.5096 275.165C80.6106 275.543 80.4811 276.858 81.2263 278.1Z" fill="#9A531D"/>
<path d="M86.1448 277.45C86.5121 278.554 87.4566 279.301 88.2542 279.113C89.0553 278.929 89.4052 277.88 89.0413 276.776C88.674 275.672 87.7295 274.925 86.9319 275.112C86.1308 275.297 85.7809 276.346 86.1448 277.45Z" fill="#9A531D"/>
<path d="M90.4303 277.833C90.7486 278.797 91.5742 279.447 92.2704 279.283C92.9665 279.122 93.2744 278.208 92.956 277.248C92.6377 276.284 91.8121 275.634 91.1159 275.798C90.4198 275.962 90.1119 276.873 90.4303 277.833Z" fill="#9A531D"/>
<path d="M94.3591 279.629C94.5025 280.514 95.1392 281.17 95.7794 281.096C96.4196 281.023 96.8219 280.247 96.6784 279.362C96.535 278.478 95.8983 277.822 95.2581 277.895C94.618 277.968 94.2157 278.744 94.3591 279.629Z" fill="#9A531D"/>
<path d="M74.7407 280.806C75.8951 282.734 77.9626 283.823 79.3584 283.238C80.7542 282.652 80.9501 280.613 79.7957 278.686C78.6413 276.759 76.5738 275.669 75.178 276.255C73.7822 276.841 73.5863 278.879 74.7407 280.806Z" fill="#9A531D"/>
</svg>
