<svg width="34" height="36" viewBox="0 0 34 36" fill="none" xmlns="http://www.w3.org/2000/svg">
<g clip-path="url(#clip0_207_1232)">
<path d="M16.2834 0.237326L0.469495 12.2373C0.17722 12.4609 -0.00209938 12.8288 1.85559e-05 13.1995V34.7995C1.85559e-05 35.428 0.564803 35.9995 1.18607 35.9995H11.8605C12.4817 35.9995 13.0465 35.428 13.0465 34.7995V28.7995C13.0465 26.5623 14.7889 24.7995 17 24.7995C19.2111 24.7995 20.9535 26.563 20.9535 28.7995V34.7995C20.9535 35.428 21.5183 35.9995 22.1396 35.9995H32.814C33.4352 35.9995 34 35.428 34 34.7995V13.1995C34 12.8288 33.8228 12.4609 33.5305 12.2366L17.7173 0.237326C17.1991 -0.0955309 16.7678 -0.0612452 16.2842 0.237326H16.2834ZM17 2.70018L31.6279 13.8002V33.5995H23.3256V28.7995C23.3256 25.2745 20.484 22.3995 17 22.3995C13.516 22.3995 10.6744 25.2745 10.6744 28.7995V33.5995H2.37141V13.7995L17 2.69947V2.70018Z" fill="#5A8777"/>
</g>
<defs>
<clipPath id="clip0_207_1232">
<rect width="34" height="36" fill="white"/>
</clipPath>
</defs>
</svg>
