<svg width="540" height="345" viewBox="0 0 540 345" fill="none" xmlns="http://www.w3.org/2000/svg">
<path d="M265.873 109.321C253.672 97.3479 185.752 35.7965 103.296 61.8314" stroke="#251F1C" stroke-width="3" stroke-linecap="round" stroke-linejoin="round"/>
<path d="M266.923 95.9272L264.361 96.081L265.112 108.693L252.467 108.515L252.434 111.081L267.829 111.296L266.923 95.9272Z" fill="#251F1C"/>
<g clip-path="url(#clip0_267_338)">
<path d="M384.463 0H387.29C387.522 0.716594 387.649 1.48627 388.008 2.12324C388.414 2.84647 389.039 4.00762 389.551 4.00098C391.227 3.97444 391.527 5.71948 392.564 6.03133C393.629 6.34981 394.979 5.71948 396.522 5.44744C396.323 6.38963 396.276 6.95361 396.083 7.47115C395.099 10.0721 393.928 12.6134 393.13 15.2674C392.651 16.8731 391.839 17.7091 390.263 17.8485C388.899 17.9679 388.101 18.6447 387.842 19.9784C387.709 20.6684 387.516 21.3585 387.456 22.0552C387.303 23.8068 386.558 24.6362 384.622 24.5898C382.321 24.5301 380.751 26.1955 380.93 28.4912C381.024 29.6988 381.875 30.8268 382.114 32.0477C382.467 33.859 383.538 34.6553 385.247 34.8079C386.485 34.9207 387.163 35.4979 387.256 36.805C387.303 37.4287 387.649 38.0193 387.802 38.6363C388.094 39.824 388.227 40.952 386.851 41.6487C386.278 41.9406 385.793 42.3918 385.267 42.7634C382.879 44.4553 381.409 44.2165 379.673 41.8743C378.629 40.461 377.432 40.5605 376.633 42.153C375.436 44.535 380.405 52.8355 381.03 55.9009C382.028 55.0251 383.644 55.808 384.409 56.8896C385.174 57.9711 385.573 59.3379 386.591 60.1872C388.055 61.4147 390.25 61.1559 391.986 61.9455C396.103 63.8034 397.646 68.7001 402.097 70.4783C401.658 70.2992 393.682 84.1666 395.458 87.2386C396.309 88.7116 397.799 89.687 399.236 90.6093C401.338 91.9562 403.447 93.3031 405.549 94.6567C412.959 99.4008 420.861 104.311 429.662 104.523C433.354 104.609 437.205 103.88 440.631 105.24C442.254 105.883 443.664 106.958 445.141 107.9C452.524 112.611 461.517 113.899 470.205 115.073C472.706 115.411 475.287 115.743 477.715 115.027C484.653 112.976 480.123 107.675 480.874 102.632C481.287 99.8387 483.276 97.0652 486.083 96.6937C488.89 96.3155 491.817 99.4141 490.593 101.962C494.916 95.161 503.703 91.5117 511.586 93.2434C515.464 94.0927 519.109 96.1098 523.074 96.1828C533.111 96.3686 538.905 85.0026 547.546 79.8935C552.255 77.1068 557.829 76.2509 563.244 75.4414C567.328 74.8309 573.042 75.3817 573.481 79.4755C573.641 80.9087 572.71 81.8244 572.656 83.0651C572.603 84.2396 573.741 85.1021 574.878 84.8035C577.386 84.14 580.173 84.5116 581.896 86.3761C583.945 88.5922 583.027 92.9382 580.313 93.761C579.907 93.887 579.694 94.3183 579.82 94.723L580.007 95.3003C580.499 96.8397 579.468 98.4321 577.858 98.6378C571.659 99.4274 566.138 104.191 563.044 109.791C559.426 116.347 558.335 123.931 556.772 131.249C555.747 136.047 552.841 141.846 548.57 142.576C547.04 142.834 545.829 144.009 545.53 145.528L542.351 161.638C541.945 163.689 539.198 164.14 538.16 162.328C535.439 157.558 533.75 152.21 533.277 146.742C530.171 147.233 527.597 149.801 526.819 152.807C526.266 154.937 523.572 155.733 522.003 154.187C520.938 153.139 520.213 151.666 520.147 150.179C520.007 146.941 521.983 144.009 524.111 141.567C526.36 138.986 528.947 136.531 529.971 133.24C530.131 132.722 530.211 132.172 530.098 131.641C529.692 129.763 527.577 129.557 525.874 129.584C519.548 129.677 513.282 129.232 506.976 129.232C505.027 129.146 503.743 127.832 503.251 125.968C502.726 123.984 502.386 121.954 501.941 119.95C501.848 119.538 501.708 119.14 501.561 118.729C501.468 118.457 501.142 118.337 500.896 118.477C498.508 119.824 497.843 119.737 496.406 118.118C495.841 117.475 495.628 116.513 495.056 115.882C494.683 115.478 493.533 115.086 493.413 115.239C492.242 116.692 491.397 115.584 490.433 115.027C489.588 114.529 488.71 114.078 487.845 113.62C487.672 113.527 487.473 113.666 487.493 113.859C487.712 115.829 484.36 121.383 483.987 122.173C486.315 123.44 488.61 125.006 490.42 127.01C491.511 128.217 491.005 130.108 489.508 130.752C487.207 131.74 485.251 133.532 484.154 135.788C483.901 136.312 483.821 136.922 484.034 137.467C484.559 138.813 486.176 138.588 487.393 138.993C490.253 139.941 490.313 143.836 490.586 146.829C491.291 154.605 497.052 161.798 495.615 169.474C495.362 170.821 494.757 172.274 493.486 172.799C492.276 173.296 491.085 172.128 490.619 171.153C490.44 171.339 490.227 171.518 489.987 171.684C488.371 172.818 486.116 171.757 485.936 169.793C485.61 166.283 486.482 162.58 488.111 159.455C485.777 159.887 484.779 162.673 484.613 165.035C484.446 167.398 484.586 170.038 483.01 171.803C481.4 173.608 478.659 173.747 476.464 174.763C472.253 176.707 470.398 182.506 472.699 186.527C471.382 193.513 464.118 198.861 457.021 197.939C456.282 197.84 455.524 197.939 454.846 198.258C452.81 199.206 457.952 199.419 455.471 200.407C451.54 201.867 449.231 205.802 446.85 209.245C442.134 216.066 435.974 221.892 428.903 226.245C421.407 230.856 423.389 235.096 418.726 239.614C415.161 243.071 408.589 252.619 405.09 247.616C403.972 246.037 401.684 245.911 400.374 247.338C399.715 248.054 398.97 248.731 398.325 249.341C394.939 252.553 393.729 257.496 393.828 262.154C394.008 270.302 397.66 278.543 395.398 286.372C394.627 289.046 393.19 291.488 392.239 294.109C390.975 297.585 390.596 301.241 390.675 304.937C390.795 310.451 388.314 315.799 383.804 318.99C382.846 319.667 382.028 320.516 381.436 321.565C381.27 321.857 381.157 322.162 381.103 322.48C380.305 326.76 377.757 330.482 373.793 332.307C372.576 332.871 371.551 333.601 370.926 334.543C369.789 336.255 369.383 338.352 368.378 340.15C361.188 352.989 352.354 337.217 350.432 329.766C350.378 329.553 350.259 329.341 350.106 329.142C349.6 328.465 349.261 327.696 349.048 326.879C348.902 326.335 348.602 325.838 348.602 325.838C337.421 303 327.649 279.471 319.361 255.432C315.49 244.199 311.924 232.82 309.822 221.122C307.634 208.933 307.042 196.466 308.079 184.131C308.332 181.079 309.037 177.523 311.804 176.202C309.423 177.337 305.944 169.972 304.115 168.453C306.569 177.151 299.093 187.137 290.033 187.257C285.091 187.323 280.947 185.12 277.461 181.749C272.053 176.514 272.705 167.63 278.825 163.244C280.647 161.937 282.097 160.152 282.836 158.022C277.88 159.561 272.452 161.088 267.616 159.203C262.78 157.319 259.847 150.325 263.658 146.809C263.253 147.326 262.714 147.718 262.109 147.97C260.293 148.74 259.135 145.946 260.938 145.137C269.246 141.408 279.43 142.722 288.676 144.234C291.004 139.517 290.565 133.552 287.572 129.226C284.472 124.747 278.725 119.359 282.297 115.252C279.317 116.732 275.871 113.122 276.157 109.818C276.443 106.514 278.964 103.893 281.332 101.564L286.7 96.2889C288.849 99.6529 293.711 100.356 297.456 98.943C301.195 97.5297 304.068 94.5373 306.809 91.6311C315.563 82.3419 324.47 72.8338 329.851 61.2687C332.904 54.7 335.984 49.7767 341.146 45.0658C340.068 44.4951 338.418 44.2762 337.461 43.4866C336.802 42.9492 336.576 42.0601 336.15 41.3236C334.308 38.1188 329.093 38.1851 327.33 34.9339C325.427 31.4173 329.059 27.1841 328.368 23.2428C328.042 21.3983 326.784 19.7859 326.665 17.9082C326.292 11.7906 336.217 15.8447 338.691 16.5546C339.982 16.9262 341.352 17.1186 342.556 17.6627C345.084 18.8039 347.492 19.0494 349.953 17.5234C351.955 16.276 354.163 15.6788 356.531 15.9707C358.055 16.1565 359.033 15.4797 359.684 14.239C360.17 13.3167 360.489 12.3015 360.922 11.3527C361.181 10.7887 361.394 9.98586 361.86 9.75363C364.421 8.47969 366.962 6.98015 369.702 6.2901C372.063 5.69294 374.239 4.95644 376.008 3.39055C377.797 1.81139 379.766 1.16778 382.094 1.07489C382.906 1.04171 383.698 0.384837 384.502 0.00663513L384.463 0Z" fill="#A54F00"/>
</g>
<g clip-path="url(#clip1_267_338)">
<path d="M15.68 87.1772L15.1312 82.9828C15.0528 82.5908 14.7392 82.3164 14.3472 82.3164L12.8968 82.434C12.348 82.434 11.9952 81.8852 11.9952 81.3364L11.6816 69.2628C11.6816 68.714 11.8776 68.1652 12.4264 68.1652L13.72 68.2828H13.7984C14.5432 68.2828 15.1704 67.6556 15.2096 66.8716L15.288 63.7356V63.6572C15.288 63.1084 14.8568 62.5988 13.72 62.442C12.2304 62.2068 10.6624 62.1676 9.1728 62.1676C6.8992 62.1676 4.8216 62.3244 3.6064 62.442C2.4304 62.5596 1.96 63.1084 1.96 63.6964L2.1952 67.0676C2.1952 67.6948 2.7048 68.2044 3.332 68.2044L4.7824 68.0868C5.3704 68.0868 5.5664 68.5572 5.5664 69.0276L5.684 81.65C5.684 82.1204 5.4096 82.5124 4.8608 82.5516L3.6456 82.5124C3.2928 82.5124 2.9792 82.7868 2.9792 83.1396L2.6656 87.334C2.6656 87.6868 2.8616 88.1572 3.1752 88.2356C3.1752 88.2356 6.1544 88.51 9.7216 88.51C11.2112 88.51 12.8184 88.4708 14.3472 88.314C15.1704 88.2356 15.68 87.8044 15.68 87.2556V87.1772ZM38.5615 87.3732V75.0252C38.5615 75.0252 38.6007 74.6332 38.6007 73.9668C38.6007 70.87 37.9735 62.1284 31.0351 62.1284C28.5263 62.1284 26.5663 63.5396 25.7431 64.402C25.7039 64.4412 25.6255 64.4804 25.5471 64.4804C25.4687 64.4804 25.3903 64.402 25.3903 64.2844L25.4687 63.2652V63.1868C25.4687 62.7164 25.1159 62.2852 24.6063 62.246C24.1751 62.2068 23.5087 62.1676 22.8031 62.1676C21.8231 62.1676 20.7255 62.2068 19.7455 62.3244C19.2359 62.3636 18.8831 62.7948 18.8831 63.2652C18.8831 64.3628 18.8439 66.4404 18.8439 69.0276C18.8439 74.4764 18.9223 82.1988 19.2751 87.2556C19.3143 87.8436 19.7847 88.2748 20.3335 88.314C20.9607 88.3532 21.7839 88.3924 22.6463 88.3924C23.2343 88.3924 23.7831 88.3532 24.3319 88.314C24.8807 88.2356 25.3119 87.7652 25.3511 87.2164C25.3903 84.8644 25.5471 78.71 25.6647 74.6724C25.8215 68.91 28.2519 68.0476 29.3495 68.0476C30.4471 68.0476 32.1719 68.126 32.1719 77.0636V87.3732C32.1719 87.8436 32.5639 88.2356 33.0343 88.2748C33.6223 88.314 34.6023 88.3924 35.6607 88.3924C36.3663 88.3924 37.0719 88.3532 37.7383 88.2748C38.2087 88.2356 38.5615 87.8436 38.5615 87.3732ZM48.925 61.8932C48.7682 61.8932 46.6906 61.8932 44.5738 61.9324C43.5154 61.9716 42.653 62.834 42.653 63.8924V86.4324C42.653 87.4908 43.5154 88.3532 44.613 88.3532C47.749 88.3532 51.9826 88.2356 53.5506 87.8436C56.8434 86.9812 62.4098 84.7468 62.4098 74.9076V74.6724C62.4098 72.9476 61.9002 61.8932 49.1602 61.8932H48.925ZM49.9442 81.454C49.4346 81.3756 49.0818 80.9836 49.0818 80.474V69.3412C49.0818 68.8708 49.4738 68.4004 49.9442 68.4004H50.4538C55.8634 68.7924 55.9026 74.8292 55.9026 75.3388V75.4172C55.9026 77.2596 54.6482 80.9836 50.9634 81.454H49.9442ZM71.6496 74.79C71.5712 74.8292 71.4928 74.8292 71.4144 74.8292C71.0616 74.8292 70.748 74.5548 70.748 74.1628V74.0844C70.9048 72.0068 72.1984 69.498 75.0208 68.714H75.06C75.5304 68.5964 75.9616 68.5572 76.3536 68.5572C77.804 68.5572 78.8232 69.2236 79.4504 69.9684C79.6856 70.2036 79.764 70.5564 79.764 70.87C79.764 71.3796 79.4896 71.8892 78.98 72.046L71.6496 74.79ZM83.8408 64.9508C82.1944 63.1084 79.6072 61.7364 75.6088 61.7364C74.9424 61.7756 74.1976 61.854 73.4136 62.0108C69.2192 62.9124 64.7896 67.2636 64.7896 74.6724C64.7896 75.0644 64.7896 75.4172 64.8288 75.8092C65.26 83.9236 69.0232 88.51 76.1184 88.51C80.8224 88.51 83.8016 85.374 85.056 83.7276C85.252 83.4924 85.3304 83.218 85.3304 82.9044C85.3304 82.5516 85.2128 82.238 84.9384 81.9636L82.9784 80.0036C82.7432 79.7684 82.4688 79.6508 82.1944 79.6508C81.8808 79.6508 81.5672 79.7684 81.332 80.0428C80.5872 80.9052 79.0976 82.3948 76.628 82.6692C76.3928 82.7084 76.1184 82.7084 75.8832 82.7084C73.8056 82.7084 72.2376 81.6892 71.4928 79.8468C71.4536 79.7684 71.4536 79.69 71.4536 79.6116C71.4536 79.298 71.6496 79.0236 71.9632 78.9452C74.7072 78.2396 80.0776 76.7892 83.4488 75.9268C85.2912 75.4956 86.5456 73.6924 86.5456 71.6932C86.5456 71.4188 86.5064 71.1444 86.4672 70.87C86.1536 68.9492 85.4088 66.7148 83.8408 64.9508Z" fill="#251F1C"/>
<path d="M11.28 102.66C11.06 102.26 10.64 101.98 10.16 101.94C9.69996 101.92 9.07996 101.88 8.43996 101.88C8.05996 101.88 7.67996 101.9 7.31996 101.92C6.85996 101.96 6.43996 102.22 6.21996 102.62C5.35996 104.18 3.23996 108.58 2.95996 114.82C2.95996 115.02 3.09996 115.2 3.29996 115.22C3.61996 115.26 4.15996 115.3 4.73996 115.3C5.13996 115.3 5.55996 115.28 5.95996 115.22C6.13996 115.2 6.27996 115.06 6.29996 114.88C6.33996 114.52 6.39996 113.82 6.51996 112.94C6.53996 112.78 6.65996 112.68 6.79996 112.68H10.16C10.32 112.68 10.44 112.8 10.44 112.94C10.5 113.58 10.56 114.24 10.58 114.94C10.58 115.08 10.68 115.2 10.82 115.22C11.12 115.26 11.64 115.34 12.3 115.34C12.74 115.34 13.24 115.32 13.76 115.22C13.88 115.2 14 115.08 14 114.96V114.92C13.88 113.46 13.26 106.34 11.28 102.66ZM7.37996 109.74C7.21996 109.74 7.11996 109.62 7.11996 109.46V109.4C7.43996 107.96 7.87996 106.54 8.45996 105.56C8.49996 105.48 8.57996 105.46 8.63996 105.46C8.73996 105.46 8.81996 105.5 8.85996 105.6C9.07996 106.2 9.53996 107.54 9.91996 109.4V109.46C9.91996 109.62 9.79996 109.74 9.63996 109.74H7.37996ZM23.4148 104.4L23.0348 102.38C22.9948 102.08 22.7548 101.88 22.4548 101.84C22.1148 101.82 21.6148 101.78 21.0348 101.78C19.1548 101.78 16.4548 102.12 15.3948 104.04C15.0748 104.64 14.9348 105.22 14.9348 105.78C14.9348 108.92 19.5548 111 19.5548 111C19.5548 111 20.2748 111.36 20.2748 111.74C20.2748 111.84 20.2148 111.94 20.0948 112.04C19.8748 112.22 19.0748 112.28 18.1748 112.28C17.2948 112.28 16.3348 112.22 15.7948 112.18H15.7548C15.4148 112.18 15.1148 112.46 15.0948 112.8L15.0348 114.78V114.82C15.0348 115.18 15.3348 115.46 15.6748 115.46H19.3948C21.9148 115.46 23.9348 114.62 24.0748 112.04V111.86C24.0748 108.92 20.2148 108.08 19.0548 107.08C18.6348 106.72 18.5148 106.4 18.5148 106.16C18.5148 105.9 18.6548 105.72 18.7148 105.64C19.1148 105.2 20.0748 105.08 21.0348 105.08C21.6548 105.08 22.2748 105.14 22.7348 105.16H22.7748C23.1348 105.16 23.4148 104.86 23.4148 104.5V104.4ZM28.3907 114.8L28.4107 112.02C28.4107 112 28.4907 106.66 28.4907 106.66C28.4907 106.38 28.2307 106.16 27.8507 106.16C27.0507 106.18 26.2107 106.2 25.7507 106.2C25.4307 106.22 25.1907 106.42 25.1907 106.64C25.1507 107.1 25.1507 107.66 25.1507 108.28C25.1507 111.02 25.4107 114.88 25.4107 114.88C25.4107 115.1 25.6707 115.3 25.9907 115.3H27.7507C28.1107 115.28 28.3907 115.08 28.3907 114.8ZM28.4907 103.52C28.4907 102.6 27.7307 101.86 26.8107 101.86C25.8907 101.86 25.1507 102.6 25.1507 103.52C25.1507 104.44 25.8907 105.2 26.8107 105.2C27.7307 105.2 28.4907 104.44 28.4907 103.52ZM33.3011 108.3C33.2611 108.32 33.2211 108.32 33.1811 108.32C33.0011 108.32 32.8411 108.18 32.8411 107.98V107.94C32.9211 106.88 33.5811 105.6 35.0211 105.2H35.0411C35.2811 105.14 35.5011 105.12 35.7011 105.12C36.4411 105.12 36.9611 105.46 37.2811 105.84C37.4011 105.96 37.4411 106.14 37.4411 106.3C37.4411 106.56 37.3011 106.82 37.0411 106.9L33.3011 108.3ZM39.5211 103.28C38.6811 102.34 37.3611 101.64 35.3211 101.64C34.9811 101.66 34.6011 101.7 34.2011 101.78C32.0611 102.24 29.8011 104.46 29.8011 108.24C29.8011 108.44 29.8011 108.62 29.8211 108.82C30.0411 112.96 31.9611 115.3 35.5811 115.3C37.9811 115.3 39.5011 113.7 40.1411 112.86C40.2411 112.74 40.2811 112.6 40.2811 112.44C40.2811 112.26 40.2211 112.1 40.0811 111.96L39.0811 110.96C38.9611 110.84 38.8211 110.78 38.6811 110.78C38.5211 110.78 38.3611 110.84 38.2411 110.98C37.8611 111.42 37.1011 112.18 35.8411 112.32C35.7211 112.34 35.5811 112.34 35.4611 112.34C34.4011 112.34 33.6011 111.82 33.2211 110.88C33.2011 110.84 33.2011 110.8 33.2011 110.76C33.2011 110.6 33.3011 110.46 33.4611 110.42C34.8611 110.06 37.6011 109.32 39.3211 108.88C40.2611 108.66 40.9011 107.74 40.9011 106.72C40.9011 106.58 40.8811 106.44 40.8611 106.3C40.7011 105.32 40.3211 104.18 39.5211 103.28Z" fill="#251F1C"/>
</g>
<defs>
<clipPath id="clip0_267_338">
<rect width="323" height="345" fill="white" transform="translate(260)"/>
</clipPath>
<clipPath id="clip1_267_338">
<rect width="86.79" height="65.06" fill="white" transform="translate(0 58)"/>
</clipPath>
</defs>
</svg>
