<svg width="510" height="346" viewBox="0 0 510 346" fill="none" xmlns="http://www.w3.org/2000/svg">
<g clip-path="url(#clip0_267_336)">
<path d="M425.959 298.295C431.177 296.352 435.765 309.064 438.373 312.357C441.543 316.193 435.008 318.344 435.386 322.936C445.501 326.166 439.375 299.866 446.509 299.374C454.253 300.396 447.133 295.911 442.86 292.876C429.986 290.101 442.331 285.754 436.029 285.767C421.605 288.858 423.105 268.747 411.938 264.589C407.25 258.54 414.345 258.249 410.999 254.717C408.932 250.831 418.555 247.903 421.302 249.411C419.746 253.89 424.453 249.411 426.823 250.755C421.202 252.364 417.162 251.625 422.216 257.921C423.829 255.373 424.598 250.85 427.667 254.502C431.429 260.968 430.415 268.065 441.222 270.734C450.365 272.986 455.445 282.259 463.208 285.868C461.034 292.271 464.531 301.159 468.01 306.093C485.831 326.034 471.356 310.3 499.253 319.656C499.65 313.808 492.139 314.155 488.358 311.518C490.954 309.455 487.627 306.055 492.132 306.61C482.579 299.891 486.549 290.41 488.673 296.416C490.954 296.788 493.557 297.69 495.22 295.513C491.414 291.255 499.612 290.467 502.398 289.249C504.925 287.59 508.813 289.142 511.926 288.334C507.66 293.753 519.494 287.363 516.079 293.192C512.688 296.239 521.75 293.356 517.78 302.901C523.25 306.332 522.922 313.31 524.529 319.896C532.469 316.394 532.872 328.191 538.701 323.447C540.838 329.074 551.286 328.608 550.882 321.782C556.119 311.758 569.724 329.888 578.156 318.072C579.983 308.25 584.546 314.483 589.12 311.739C593.04 303.872 594.281 309.802 592.007 314.66C593.09 317.17 595.491 319.706 596.279 315.492C599.556 310.95 596.077 312.092 597.073 308.193C607.049 307.367 605.958 302.188 615.625 302.768C626.949 295.734 632.633 288.315 645.797 284.171C647.593 284.234 649.584 280.304 650.813 283.414C655.331 284.978 652.086 275.396 647.681 276.594C650.315 271.377 640.277 266.98 642.596 262.981C644.915 261.725 643.617 255.455 639.483 257.959C633.282 260.836 636.527 252.477 632.992 251.19C621.126 243.847 616.06 258.388 607.099 260.861C574.387 276.998 573.6 248.389 545.217 278.865C505.215 289.76 528.379 251.575 530.686 235.955C533.08 232.978 538.638 225.389 540.888 228.921C544.026 231.533 555.76 224.669 550.504 231.35C539.168 241.362 557.253 232.208 554.815 241.084C554.399 242.661 555.577 242.989 556.629 243.33C560.662 244.352 564.456 233.369 569.548 233.066C575.868 232 572.661 224.417 567.708 229.849C555.93 231.123 564.33 216.639 571.192 215.383C573.259 212.803 576.442 204.463 578.742 202.848C583.147 195.676 589.366 199.757 582.258 190.459C581.023 188.951 563.429 177.741 561.135 182.125C561.022 183.526 551.746 184.333 551.405 182.075C549.055 178.687 547.259 176.599 542.879 178.189C540.655 170.959 539.558 166.499 531.184 171.136C528.745 171.445 530.541 175.451 526.665 174.404C525.978 171.432 517.44 163.244 524.119 163.812C528.304 164.739 529.621 159.572 525.562 157.85C520.244 159.2 523.861 156.406 521.139 155.447C513.697 150.463 505.725 134.932 496.216 142.798C498.774 139.316 496.947 136.37 493.922 133.884C494.08 128.932 484.949 118.132 490.721 109.78C482.907 110.77 473.656 109.862 469.087 116.751C469.283 121.924 481.432 132.597 473.99 136.736C468.854 137.846 464.947 121.015 460.719 139.076C456.705 143.461 466.46 157.484 460.977 158.626C454.934 155.724 453.012 171.874 447.486 162.487C443.534 155.592 414.799 180.472 420.08 164.556C415.738 163.339 411.031 169.754 406.38 166.165C404.42 165.263 400.312 166.064 399.978 163.042C393.487 153.472 391.704 170.07 390.525 174.164C382.856 162.701 362.471 190.528 346.767 194.073C348.342 202.748 338.669 199.354 335.953 204.344C332.658 211.188 321.976 192.768 324.396 204.545C324.327 217.97 315.952 204.211 309.272 206.179C306.059 205.618 300.356 207.592 305.958 208.892C302.631 217.553 313.791 210.778 319.305 231.766C324.207 233.968 319.254 238.151 322.355 241.172C322.695 241.538 323.312 243.317 322.418 242.421C315.889 237.791 319.103 267.643 307.035 258.779C298.591 256.697 259.464 238.655 261.449 251.707C262.004 259.492 257.65 276.739 249.369 282.341C244.801 288.574 247.63 291.236 252.192 293.356C249.004 292.668 249.697 297.053 248.525 299.33C246.219 304.137 246.048 305.474 251.398 306.73C254.43 309.588 257.246 306.478 260.605 307.865C269.459 316.331 260.586 324.728 277.474 319.353C308.176 323.99 293.827 315.511 316.33 307.581C320.893 306.642 312.203 301.046 316.223 298.125C332.998 279.307 325.31 290.662 343.018 281.824C349.93 277.149 340.112 269.895 350.29 266.785C360.788 266.356 370.196 278.455 378.212 263.889C376.857 266.513 380.531 265.845 381.546 264.324C393.304 249.638 402.498 287.275 415.946 292.17M534.851 285.647C534.561 285.754 534.523 285.597 534.498 285.344C534.618 285.445 534.731 285.546 534.851 285.647Z" fill="#5A8777"/>
<path d="M382.05 104.273C384.224 105.32 381.817 112.228 379.567 113.628C380.619 115.798 381.817 116.221 381.596 119.167C380.884 120.479 378.483 120.164 379.655 121.968C384.293 131.91 398.743 130.238 400.154 118.694C406.027 125.154 402.864 110.6 408.498 121.697C407.124 132.516 413.772 123.633 411.207 130.446C410.136 134.692 413.52 139.751 415.87 143.36C418.757 145.549 416.129 149.731 416.501 151.479C415.7 156.708 422.764 157.383 423.609 153.346C423.495 149.22 426.653 147.807 430.862 147.933C438.808 142.275 433.736 125.942 439.905 120.189C441.657 118.561 441.165 115.615 438.922 114.801C438.292 114.568 438.323 114.827 439.861 115.937C437.548 110.896 440.875 112.36 441.663 116.656C449.584 112.903 444.02 107.364 438.663 104.866C437.151 104.948 435.424 93.2958 437.447 94.4187C436.54 82.7544 438.947 89.2395 441.776 80.8808C444.606 76.4333 453.812 72.2571 452.25 65.2989C447.782 62.908 467.897 52.6504 467.518 56.467C467.468 58.3848 470.562 58.921 467.581 60.025C462.981 64.687 461.255 73.481 456.762 78.7422C456.1 78.4457 455.306 77.285 454.682 78.8558C457.789 81.3791 451.26 82.2876 454.632 85.2147C456.51 91.3087 456.856 96.8223 457.663 103.629C468.564 107.673 468.067 109.887 476.744 103.812C486.65 100.834 494.918 90.4129 497.98 73.9667C497.817 68.9073 487.734 69.9861 490.822 64.1444C492.34 60.7505 485.982 61.5453 487.791 57.7477C483.115 55.5334 484.741 51.0733 484.564 47.0737C482.422 42.519 475.906 38.715 479.246 33.2898C482.075 25.379 469.012 29.6498 472.616 15.7018C473.07 21.9598 473.927 9.87276 477.859 11.3363C476.782 7.41877 474.425 12.2763 473.429 9.69613C470.474 9.94216 475.194 5.92998 476.58 4.69983C474.954 2.13229 471.281 4.6746 473.543 1.85471C471.47 0.876903 470.613 3.01547 469.403 1.48252C466.523 -0.157684 465.206 3.24888 466.334 2.11967C467.537 -3.0028 462.427 2.83253 460.977 2.32154C460.461 4.58628 458.576 5.75334 458.999 2.91454C455.867 2.76313 454.216 2.52341 455.388 6.04984C453.063 5.74703 428.707 26.7416 429.614 31.9145C431.36 35.8699 426.571 38.1851 425.714 38.3176C422.89 39.0242 411.8 61.7283 416.633 60.6937C416.954 63.7849 403.595 69.3931 405.208 73.1781C404.011 75.9665 403.085 76.9128 402.221 77.2534C401.011 77.7329 396.947 81.1962 396.317 81.9406C394.105 84.5586 387.652 85.4859 386.499 87.511C386.07 88.268 385.434 88.9304 384.596 89.1322C382.056 89.7505 380.953 94.3872 380.361 97.5288C380.14 98.7022 377.727 102.166 382.037 104.266L382.05 104.273Z" fill="#5A8777"/>
<path d="M316.463 166.777C321.359 166.461 317.358 173.205 314.295 173.003C312.808 173.344 310.237 172.915 309.367 174.277C310.577 177.495 319.305 180.617 324.504 180.321C319.236 186.163 317.036 180.813 311.377 183.86C310.149 185.898 315.07 191.405 316.406 190.137C318.202 186.926 332.683 191.253 337.724 191.556C343.251 193.373 353.189 188.339 341.676 185.677C345.299 185.311 354.203 170.984 344.707 172.265C342.986 168.057 345.286 156.734 338.575 153.119C337.605 147.05 334.687 137.89 335.443 133.998C353.245 117.791 325.613 125.923 331.599 120.605C330.9 116.448 348.135 115.274 329.854 112.53C328.146 111.294 328.43 111.363 327.333 113.066C326.06 118.246 320.609 117.325 322.04 119.381C323.792 121.103 317.559 129.368 316.255 130.837C315.53 132.269 322.714 133.222 318.914 134.597C328.43 134.862 314.478 146.23 321.221 149.094C320.893 147.265 331.864 154.753 327.037 158.689C325.978 163.44 323.848 163.799 319.588 163.13C318.908 163.282 312.442 166.739 316.469 166.77L316.463 166.777Z" fill="#5A8777"/>
<path d="M274.563 34.4946C280.96 35.7563 282.428 48.512 289.58 45.6732C297.23 43.5094 315.303 48.0641 312.871 34.3937C310.993 31.4287 311.226 22.3887 307.527 23.1457C307.66 26.5712 302.7 25.1076 301.591 23.9847C298.951 20.9125 300.438 28.2114 298.642 27.7824C299.43 24.0793 297.709 18.3323 294.42 23.5557C293.367 17.1085 292.347 21.9218 289.965 23.8018C289.631 20.8999 287.406 23.4863 286.77 24.6345C285.421 19.348 289.82 20.9882 287.967 18.4396C289.921 12.0996 283.55 8.30187 285.043 16.7615C283.726 16.1244 284.054 14.768 283.701 13.6073C281.212 10.308 282.151 16.8309 280.537 17.9223C278.704 14.6166 279.145 16.1244 276.334 15.2096C276.032 20.7611 283.707 17.2536 284.766 22.6031C282.466 21.4929 278.836 24.4263 283.096 24.1109C285.673 28.6088 277.676 20.8368 275.584 23.9847C281.376 26.527 276.284 29.3595 280.153 31.0943C281.382 33.6619 270.581 32.0658 274.557 34.4946H274.563Z" fill="#004F2E"/>
<path d="M400.199 154.91C403.362 162.695 407.786 154.835 403.198 153.125C401.093 152.456 401.497 148.186 403.879 148.381C410.426 145.776 399.26 143.757 404.509 135.808C402.795 130.389 398.497 139.663 394.716 138.527C388.994 141.297 392.441 148.88 390.355 153.144C394.76 154.696 391.773 162.626 398.031 159.56C397.735 158.185 397.905 151.983 400.199 154.917V154.91Z" fill="#5A8777"/>
<path d="M389.624 294.397C391.313 292.145 387.425 291.034 385.812 292.977C383.014 296.586 378.546 292.586 379.769 296.567C384.923 300.428 376.309 312.445 382.888 313.947C385.327 312.496 385.308 309.853 388.572 311.714C390.28 305.664 392.057 299.437 389.618 294.391L389.624 294.397Z" fill="#5A8777"/>
<path d="M434.278 320.596C428.707 322.469 422.059 325.542 417.125 321.889C412.531 324.084 413.256 321.309 411.378 323.075C408.41 329.712 422.985 329.283 425.556 333.736C433.931 340.177 429.495 324.703 434.278 320.602V320.596Z" fill="#5A8777"/>
<path d="M490.986 323.353C491.78 323.618 494.571 325.056 494.66 323.832C486.688 312.654 472.301 319.896 480.588 324.28C483.518 325.933 480.298 329.958 482.97 331.838C486.801 325.51 485.541 332.014 488.692 333.068C489.354 330.254 491.017 330.879 492.895 332.841C495.151 331.364 486.467 322.293 490.986 323.353Z" fill="#5A8777"/>
<path d="M312.461 142.022C310.584 140.71 307.237 140.798 304.956 142.836C308.58 139.202 300.438 138.136 298.598 141.719C295.485 143.82 302.417 144.281 296.644 146.079C284.117 141.581 293.26 146.016 288.112 149.719C287.142 150.419 287.016 151.807 287.847 152.658C291.805 156.702 286.335 158.55 284.715 162.891C281.35 160.803 280.916 163.017 280.185 164.972C279.97 165.54 280.046 166.171 280.367 166.682C280.953 167.616 281.735 168.385 282.201 169.433C282.459 170.026 283.008 170.455 283.644 170.549C299.675 172.896 316.602 163.175 304.849 148.451C306.639 146.009 307.124 150.867 307.622 151.706C314.434 154.999 316.274 146.602 312.461 142.016V142.022Z" fill="#5A8777"/>
<path d="M384.463 283.042C385.648 297.646 392.259 282.095 389.826 274.973C389.536 279.294 381.955 276.897 384.463 283.042Z" fill="#5A8777"/>
<path d="M517.585 342.631C513.942 342.985 509.191 340.814 504.333 342.94C501.257 342.303 497.905 339.036 498.396 344.461C502.719 343.565 506.166 344.839 509.834 345.994C511.787 345.962 524.97 341.616 517.591 342.631H517.585Z" fill="#5A8777"/>
<path d="M307.01 187.885C297.281 194.143 310.476 187.86 313.369 191.588C319.481 193.695 309.897 181.835 307.01 187.885Z" fill="#5A8777"/>
<path d="M498.119 311.644C496.229 312.01 491.15 306.919 492.114 310.42C493.935 313.152 504.66 315.7 498.119 311.644Z" fill="#5A8777"/>
<path d="M514.755 302.364C513.098 303.266 509.575 304.276 511.642 305.26C515.417 306.755 517.906 304.427 514.755 302.364Z" fill="#5A8777"/>
<path d="M507.811 321.813C508.315 324.337 508.498 324.463 511.289 324.021C510.344 322.892 506.941 317.643 507.811 321.813Z" fill="#5A8777"/>
<path d="M506.948 328.721C505.398 325.378 502.827 329.257 506.563 329.402C506.941 329.453 507.187 329.018 506.948 328.721Z" fill="#5A8777"/>
<path d="M513.583 328.797C512.027 325.397 509.38 329.251 513.186 329.472C513.564 329.535 513.823 329.093 513.583 328.797Z" fill="#5A8777"/>
<path d="M506.488 298.024C507.395 297.009 506.916 296.485 505.845 295.936C504.162 295.375 505.404 299.065 506.488 298.024Z" fill="#5A8777"/>
<path d="M503.375 317.24C503.916 316.552 503.362 316.155 502.574 315.965C501.011 316.123 502.196 317.612 503.375 317.24Z" fill="#5A8777"/>
</g>
<path d="M290.014 61.6791C279.109 77.5867 227.616 157.643 130.79 144.949" stroke="#251F1C" stroke-width="3" stroke-linecap="round" stroke-linejoin="round"/>
<path d="M294.244 77.1543L291.255 77.5108L289.279 62.5749L274.736 65.4318L274.12 62.4327L291.825 58.9553L294.244 77.1543Z" fill="#251F1C"/>
<g clip-path="url(#clip1_267_336)">
<path d="M16.176 116.935L15.6098 112.608C15.529 112.204 15.2054 111.921 14.801 111.921L13.3048 112.042C12.7386 112.042 12.3746 111.476 12.3746 110.91L12.0511 98.454C12.0511 97.8879 12.2533 97.3217 12.8195 97.3217L14.154 97.443H14.2349C15.0032 97.443 15.6503 96.796 15.6907 95.9872L15.7716 92.752V92.6711C15.7716 92.1049 15.3268 91.5792 14.154 91.4175C12.6173 91.1748 10.9997 91.1344 9.46296 91.1344C7.11744 91.1344 4.97412 91.2961 3.72048 91.4175C2.50728 91.5388 2.022 92.1049 2.022 92.7115L2.26464 96.1894C2.26464 96.8364 2.79036 97.3621 3.4374 97.3621L4.93368 97.2408C5.54028 97.2408 5.74248 97.7261 5.74248 98.2114L5.8638 111.233C5.8638 111.718 5.58072 112.123 5.01456 112.163L3.76092 112.123C3.39696 112.123 3.07344 112.406 3.07344 112.77L2.74992 117.097C2.74992 117.461 2.95212 117.946 3.27564 118.027C3.27564 118.027 6.34908 118.31 10.0291 118.31C11.5658 118.31 13.2239 118.27 14.801 118.108C15.6503 118.027 16.176 117.582 16.176 117.016V116.935ZM35.1673 96.2703L34.399 92.1858C34.3181 91.5792 33.8328 91.1748 33.2262 91.0939C32.5387 91.0535 31.5277 90.9726 30.355 90.9726C26.5536 90.9726 21.0942 91.6601 18.9509 95.5423C18.3038 96.7555 18.0208 97.9283 18.0208 99.0606C18.0208 105.41 27.3624 109.615 27.3624 109.615C27.3624 109.615 28.8182 110.343 28.8182 111.112C28.8182 111.314 28.6969 111.516 28.4543 111.718C28.0094 112.082 26.3918 112.204 24.572 112.204C22.7927 112.204 20.8516 112.082 19.7597 112.001H19.6788C18.9913 112.001 18.3847 112.568 18.3443 113.255L18.223 117.259V117.339C18.223 118.067 18.8296 118.634 19.517 118.634H27.0389C32.1343 118.634 36.2188 116.935 36.5018 111.718V111.354C36.5018 105.41 28.6969 103.711 26.3514 101.689C25.5022 100.961 25.2595 100.314 25.2595 99.829C25.2595 99.3033 25.5426 98.9393 25.6639 98.7775C26.4727 97.8879 28.4138 97.6452 30.355 97.6452C31.6086 97.6452 32.8622 97.7665 33.7924 97.807H33.8732C34.6012 97.807 35.1673 97.2004 35.1673 96.4725V96.2703ZM55.4496 116.854L55.4091 112.689C55.4091 112.082 54.9238 111.597 54.3577 111.597C53.2254 111.678 52.0526 111.718 51.0012 111.718C48.9387 111.718 47.3616 111.597 47.3616 111.597C46.8358 111.597 46.391 111.193 46.391 110.667V110.586L46.4314 108.483C46.4314 108.443 46.5932 92.5498 46.5932 92.5498C46.5932 91.7005 46.027 91.0535 45.1778 91.0535C43.3984 91.0939 41.4978 91.1344 40.4868 91.1748C39.7588 91.2153 39.2331 91.7814 39.2331 92.5093C39.1522 93.8439 39.1118 95.5423 39.1118 97.4026C39.1118 105.571 39.7184 116.976 39.7184 116.976C39.7588 117.703 40.325 118.27 41.0125 118.27H41.9426C46.4314 118.27 52.1335 118.027 54.4386 117.946C55.0047 117.906 55.4496 117.42 55.4496 116.854ZM74.4105 92.752C73.9657 91.9432 73.1165 91.377 72.1459 91.2961C71.2158 91.2557 69.9621 91.1748 68.6681 91.1748C67.8997 91.1748 67.1313 91.2153 66.4034 91.2557C65.4733 91.3366 64.6241 91.8623 64.1792 92.6711C62.4403 95.8254 58.1537 104.722 57.5875 117.339C57.5875 117.744 57.8706 118.108 58.275 118.148C58.922 118.229 60.0139 118.31 61.1867 118.31C61.9955 118.31 62.8447 118.27 63.6535 118.148C64.0175 118.108 64.3005 117.825 64.341 117.461C64.4219 116.733 64.5432 115.317 64.7858 113.538C64.8263 113.215 65.0689 113.012 65.352 113.012H72.1459C72.4694 113.012 72.7121 113.255 72.7121 113.538C72.8334 114.832 72.9547 116.167 72.9951 117.582C72.9951 117.865 73.1973 118.108 73.4804 118.148C74.087 118.229 75.1385 118.391 76.473 118.391C77.3627 118.391 78.3737 118.35 79.4251 118.148C79.6677 118.108 79.9104 117.865 79.9104 117.623V117.542C79.6677 114.59 78.4141 100.193 74.4105 92.752ZM66.5247 107.068C66.2012 107.068 65.999 106.825 65.999 106.502V106.38C66.6461 103.469 67.5357 100.597 68.7085 98.6158C68.7894 98.454 68.9511 98.4136 69.0725 98.4136C69.2747 98.4136 69.4364 98.4945 69.5173 98.6967C69.9621 99.9099 70.8923 102.619 71.6606 106.38V106.502C71.6606 106.825 71.418 107.068 71.0945 107.068H66.5247ZM102.534 117.137V104.399C102.534 104.399 102.575 103.994 102.575 103.307C102.575 100.112 101.928 91.0939 94.7699 91.0939C92.1817 91.0939 90.1597 92.5498 89.3105 93.4395C89.27 93.4799 89.1891 93.5203 89.1083 93.5203C89.0274 93.5203 88.9465 93.4395 88.9465 93.3181L89.0274 92.2667V92.1858C89.0274 91.7005 88.6634 91.2557 88.1377 91.2153C87.6929 91.1748 87.0054 91.1344 86.2775 91.1344C85.2665 91.1344 84.1341 91.1748 83.1231 91.2961C82.5974 91.3366 82.2335 91.7814 82.2335 92.2667C82.2335 93.399 82.193 95.5423 82.193 98.2114C82.193 103.833 82.2739 111.799 82.6379 117.016C82.6783 117.623 83.1636 118.067 83.7297 118.108C84.3768 118.148 85.226 118.189 86.1157 118.189C86.7223 118.189 87.2885 118.148 87.8546 118.108C88.4208 118.027 88.8656 117.542 88.9061 116.976C88.9465 114.549 89.1083 108.2 89.2296 104.035C89.3913 98.0901 91.8986 97.2004 93.0309 97.2004C94.1633 97.2004 95.9426 97.2813 95.9426 106.502V117.137C95.9426 117.623 96.347 118.027 96.8323 118.067C97.4389 118.108 98.4499 118.189 99.5418 118.189C100.27 118.189 100.998 118.148 101.685 118.067C102.17 118.027 102.534 117.623 102.534 117.137ZM113.226 90.8513C113.064 90.8513 110.921 90.8513 108.737 90.8917C107.645 90.9322 106.755 91.8219 106.755 92.9137V116.167C106.755 117.259 107.645 118.148 108.777 118.148C112.012 118.148 116.38 118.027 117.998 117.623C121.395 116.733 127.137 114.428 127.137 104.277V104.035C127.137 102.255 126.611 90.8513 113.468 90.8513H113.226ZM114.277 111.031C113.751 110.95 113.387 110.546 113.387 110.02V98.5349C113.387 98.0496 113.792 97.5643 114.277 97.5643H114.803C120.384 97.9687 120.424 104.196 120.424 104.722V104.803C120.424 106.704 119.13 110.546 115.329 111.031H114.277ZM136.669 104.156C136.588 104.196 136.507 104.196 136.427 104.196C136.063 104.196 135.739 103.913 135.739 103.509V103.428C135.901 101.285 137.235 98.6967 140.147 97.8879H140.187C140.673 97.7665 141.118 97.7261 141.522 97.7261C143.018 97.7261 144.07 98.4136 144.717 99.1819C144.959 99.4246 145.04 99.7885 145.04 100.112C145.04 100.638 144.757 101.163 144.231 101.325L136.669 104.156ZM149.246 94.0056C147.548 92.1049 144.879 90.6895 140.754 90.6895C140.066 90.73 139.298 90.8109 138.489 90.9726C134.162 91.9027 129.592 96.3916 129.592 104.035C129.592 104.439 129.592 104.803 129.633 105.207C130.077 113.579 133.96 118.31 141.279 118.31C146.132 118.31 149.206 115.075 150.5 113.376C150.702 113.134 150.783 112.851 150.783 112.527C150.783 112.163 150.661 111.84 150.378 111.557L148.356 109.535C148.114 109.292 147.831 109.171 147.548 109.171C147.224 109.171 146.901 109.292 146.658 109.575C145.89 110.465 144.353 112.001 141.805 112.284C141.562 112.325 141.279 112.325 141.037 112.325C138.893 112.325 137.276 111.273 136.507 109.373C136.467 109.292 136.467 109.211 136.467 109.13C136.467 108.807 136.669 108.524 136.993 108.443C139.824 107.715 145.364 106.218 148.842 105.329C150.742 104.884 152.036 103.024 152.036 100.961C152.036 100.678 151.996 100.395 151.956 100.112C151.632 98.1305 150.864 95.8254 149.246 94.0056Z" fill="#251F1C"/>
<path d="M9.80014 143.59L9.70014 142.07C9.68014 141.75 9.40014 141.47 9.06014 141.47H9.02014C8.38014 141.49 7.34014 141.53 6.44014 141.53C6.06014 141.53 5.70014 141.53 5.40014 141.51C5.08014 141.51 4.86014 141.23 4.86014 140.91L4.84014 139.95C4.84014 139.63 5.10014 139.37 5.42014 139.37H8.14014C8.46014 139.37 8.72014 139.11 8.72014 138.79L8.78014 136.81C8.78014 136.47 8.52014 136.19 8.18014 136.19L5.40014 136.17C5.14014 136.17 4.92014 135.95 4.92014 135.69L4.88014 134.65C4.88014 134.39 5.10014 134.15 5.36014 134.15C5.36014 134.15 6.16014 134.09 7.18014 134.09C7.68014 134.09 8.26014 134.11 8.82014 134.15C9.10014 134.15 9.34014 133.91 9.34014 133.63L9.36014 131.57V131.53C9.36014 131.25 9.12014 131.03 8.86014 131.03C7.74014 130.97 4.96014 130.87 2.74014 130.87H2.22014C1.88014 130.87 1.60014 131.15 1.60014 131.49C1.60014 131.49 1.28014 137.23 1.28014 141.29C1.28014 142.17 1.30014 142.97 1.34014 143.61C1.34014 143.95 1.62014 144.23 1.96014 144.25C2.84014 144.29 4.56014 144.35 6.30014 144.35C7.32014 144.35 8.32014 144.33 9.18014 144.27C9.52014 144.25 9.80014 143.97 9.80014 143.63V143.59ZM10.6594 131.41V138.03C10.6594 139.35 10.8994 144.29 14.4994 144.29C15.7794 144.29 16.7994 143.61 17.1994 143.13C17.2194 143.11 17.2594 143.09 17.2994 143.09C17.3394 143.09 17.3794 143.13 17.3794 143.19L17.3394 143.71V143.75C17.3394 143.99 17.5194 144.21 17.7794 144.23C17.9994 144.25 18.3394 144.27 18.6994 144.27C19.1994 144.27 19.7594 144.25 20.2594 144.19C20.5194 144.17 20.6994 143.97 20.6994 143.71C20.6994 143.15 20.7194 142.09 20.7194 140.77C20.7194 137.99 20.6794 134.05 20.4994 131.47C20.4794 131.17 20.2594 130.95 19.9594 130.93C19.6994 130.91 19.3794 130.91 19.0194 130.91C18.6594 130.91 18.2994 130.91 17.9394 130.95C17.6394 130.97 17.4194 131.21 17.3994 131.49C17.3794 132.71 17.2994 135.83 17.2394 137.89C17.1594 140.83 15.9194 141.27 15.3594 141.27C14.7994 141.27 13.9194 141.25 13.9194 136.67V131.43C13.9194 131.17 13.7194 130.97 13.4794 130.95C13.1794 130.93 12.6794 130.89 12.1394 130.89C11.7794 130.89 11.4194 130.91 11.0794 130.95C10.8394 130.97 10.6594 131.17 10.6594 131.41ZM32.3161 143.05C32.5161 142.93 32.6161 142.71 32.6161 142.51C32.6161 142.37 32.5761 142.25 32.4961 142.13L29.6961 139.13C29.6361 139.07 29.6161 139.01 29.6161 138.95C29.6161 138.87 29.6761 138.79 29.7961 138.75C31.0961 138.19 32.3361 137.19 32.4561 135.43C32.4761 135.27 32.4761 135.11 32.4761 134.97C32.4761 132.27 30.6361 131.49 28.7361 131.09C28.0161 130.93 26.9161 130.89 25.7961 130.89C25.1161 130.89 24.4361 130.91 23.8161 130.93C23.4161 130.95 23.0961 131.27 23.0961 131.67L22.9961 143.81V143.85C22.9961 144.11 23.1961 144.31 23.4361 144.35C23.7561 144.39 24.2161 144.45 24.7961 144.45C25.1961 144.45 25.6361 144.43 26.1161 144.35C26.3761 144.31 26.5561 144.07 26.5561 143.81L26.3961 140.05V139.95C26.4161 139.79 26.5361 139.71 26.6761 139.71C26.7561 139.71 26.8361 139.75 26.8961 139.85L28.9961 143.51C29.1361 143.79 29.3161 144.29 29.8161 144.33C30.1961 144.33 31.6361 143.45 32.3161 143.05ZM26.1361 134.53C26.1361 134.27 26.3361 134.05 26.5961 134.05H26.6361C27.3961 134.09 28.7361 134.03 28.7361 135.35C28.7361 136.51 27.4361 136.71 26.7961 136.89C26.7561 136.91 26.7161 136.91 26.6761 136.91C26.4161 136.91 26.1961 136.71 26.1961 136.45L26.1361 134.53ZM39.0095 130.79C39.0095 130.79 33.3695 130.83 33.3695 137.17V137.37C33.5095 143.69 37.3695 144.31 38.9895 144.31C40.9895 144.31 44.1895 142.65 44.4495 137.57C44.4695 137.35 44.4695 137.13 44.4695 136.93C44.4695 133.27 42.8295 130.79 39.0095 130.79ZM39.0695 141.01C37.7695 141.01 36.8295 139.93 36.8295 137.21C36.8295 134.55 38.9295 134.35 38.9295 134.35H39.0095C39.3695 134.35 41.1295 134.49 41.1295 137.15C41.1295 140.93 39.2295 141.01 39.0695 141.01ZM51.6067 135.29C51.6067 136.45 50.3267 136.65 49.6667 136.83C49.6267 136.85 49.5867 136.85 49.5467 136.85C49.2867 136.85 49.0867 136.65 49.0667 136.39L49.0067 134.47C49.0067 134.21 49.2267 133.97 49.4867 133.97H49.5267C50.2667 134.03 51.6067 133.97 51.6067 135.29ZM51.6067 131.03C50.9067 130.87 49.8667 130.83 48.7867 130.83C48.1467 130.83 47.4867 130.85 46.8667 130.87C46.4267 130.89 46.0667 131.25 46.0467 131.71L45.8667 143.75C45.8667 144.01 46.0467 144.25 46.3067 144.29C46.6067 144.33 47.0667 144.39 47.6067 144.39C48.0067 144.39 48.4867 144.35 48.9867 144.27C49.2467 144.23 49.4467 144.01 49.4467 143.75V140.23C49.4467 139.79 49.7667 139.39 50.2267 139.33C51.8667 139.11 55.1267 138.29 55.3267 135.37C55.3467 135.21 55.3467 135.05 55.3467 134.91C55.3467 132.21 53.5067 131.43 51.6067 131.03ZM59.6453 137.35C59.6053 137.37 59.5653 137.37 59.5253 137.37C59.3453 137.37 59.1853 137.23 59.1853 137.03V136.99C59.2653 135.93 59.9253 134.65 61.3653 134.25H61.3853C61.6253 134.19 61.8453 134.17 62.0453 134.17C62.7853 134.17 63.3053 134.51 63.6253 134.89C63.7453 135.01 63.7853 135.19 63.7853 135.35C63.7853 135.61 63.6453 135.87 63.3853 135.95L59.6453 137.35ZM65.8653 132.33C65.0253 131.39 63.7053 130.69 61.6653 130.69C61.3253 130.71 60.9453 130.75 60.5453 130.83C58.4053 131.29 56.1453 133.51 56.1453 137.29C56.1453 137.49 56.1453 137.67 56.1653 137.87C56.3853 142.01 58.3053 144.35 61.9253 144.35C64.3253 144.35 65.8453 142.75 66.4853 141.91C66.5853 141.79 66.6253 141.65 66.6253 141.49C66.6253 141.31 66.5653 141.15 66.4253 141.01L65.4253 140.01C65.3053 139.89 65.1653 139.83 65.0253 139.83C64.8653 139.83 64.7053 139.89 64.5853 140.03C64.2053 140.47 63.4453 141.23 62.1853 141.37C62.0653 141.39 61.9253 141.39 61.8053 141.39C60.7453 141.39 59.9453 140.87 59.5653 139.93C59.5453 139.89 59.5453 139.85 59.5453 139.81C59.5453 139.65 59.6453 139.51 59.8053 139.47C61.2053 139.11 63.9453 138.37 65.6653 137.93C66.6053 137.71 67.2453 136.79 67.2453 135.77C67.2453 135.63 67.2253 135.49 67.2053 135.35C67.0453 134.37 66.6653 133.23 65.8653 132.33Z" fill="#251F1C"/>
</g>
<defs>
<clipPath id="clip0_267_336">
<rect width="406" height="346" fill="white" transform="translate(247)"/>
</clipPath>
<clipPath id="clip1_267_336">
<rect width="152.34" height="65.11" fill="white" transform="translate(0 87)"/>
</clipPath>
</defs>
</svg>
