<svg width="550" height="377" viewBox="0 0 550 377" fill="none" xmlns="http://www.w3.org/2000/svg">
<path d="M546.09 154.31C542.64 169.47 534.72 181.66 523.28 192.23C515.58 199.34 509.12 207.89 502.55 216.13C498.46 221.25 498.01 226.97 501 233.31C507.82 247.72 508.75 262.69 503.7 277.93C501.1 285.78 496.98 291.87 487.87 293.07C481.14 293.95 478.06 297.61 479.96 304.71C480.89 308.19 481.96 311.88 481.67 315.37C481.39 318.71 480.33 323.78 478.08 324.84C470.17 328.56 468.21 335.27 464.87 342.45C456.41 360.62 442 372.73 421.72 376.76H406.64C397.45 374.18 393.25 368.31 392.51 358.6C392.08 353.08 388.9 347.73 386.78 342.38C385.15 338.26 382.95 334.36 381.49 330.18C377.02 317.33 373.09 304.27 368.36 291.52C364.96 282.39 364.52 273.65 369.04 264.96C378.16 247.41 374.24 231.65 362.76 216.82C360.54 213.96 358.55 210.9 356.18 208.17C351.02 202.23 349.23 196.51 355.28 189.82C359.5 185.16 356.79 181.92 352.03 179.43C347.18 176.9 342.72 173.55 337.75 171.35C334.79 170.04 330.95 169.3 327.88 169.99C316.26 172.6 304.88 176.3 293.24 178.83C283.71 180.89 266.36 169.76 261.2 159.84C257 151.76 252.44 143.8 247.27 136.32C240.55 126.57 239.91 117.27 245.46 106.66C248 101.8 249.43 95.52 248.96 90.08C247.18 69.36 258.53 55.37 272.02 42.36C277.53 37.05 282.27 31.7 286.59 25.01C294.06 13.43 304.33 2.9 320.92 3.13C329.94 3.26 339 1.12 348.03 0H373.16C379.367 2.8 381.957 9.13333 380.93 19C388.21 22.36 395.4 25.68 403.02 29.19C403.92 28.01 405.24 26.25 406.61 24.54C410.18 20.1 414.31 18.34 419.69 21.59C431.84 28.92 445.27 30.28 459.09 30.19C474.99 30.08 477.14 32.41 473.5 47.44C471.55 55.52 473.33 61.6 478.03 68.34C482.69 75.01 485.06 83.23 488.81 90.58C491.04 94.95 493.95 98.99 496.66 103.12C501.79 110.94 507.49 118.44 511.99 126.6C514.75 131.61 517.07 133.78 522.92 131.47C530.35 128.53 538.9 124.33 545.75 130.75C553.02 137.57 547.9 146.33 546.09 154.29V154.31Z" fill="#CB8F00"/>
<path d="M330.75 69.5799C330.75 69.5799 321.26 66.8199 321.26 71.4799C321.26 76.1399 324.71 109.61 322.3 114.27C319.88 118.93 313.5 116.69 307.29 116.86C301.08 117.03 292.8 115.48 290.56 118.76C288.32 122.04 289.87 126.52 290.56 128.42C291.25 130.32 294.18 136.7 301.08 134.8C307.98 132.9 302.12 145.84 311.78 145.84C321.44 145.84 323.86 138.94 325.75 137.73C327.65 136.52 331.1 129.28 335.58 129.1C340.07 128.93 343.34 122.2 350.59 122.2C357.84 122.2 356.28 120.65 359.73 120.65C363.18 120.65 370.43 120.3 370.94 113.23C371.46 106.16 370.08 98.9099 364.9 95.6299C359.72 92.3499 330.74 69.5799 330.74 69.5799H330.75Z" fill="#FE3D00"/>
<path d="M310.81 104.45C293.39 94.61 197.96 45.6 112.63 100.01" stroke="#251F1C" stroke-width="3" stroke-linecap="round" stroke-linejoin="round"/>
<path d="M307.94 88.99L305.09 89.94L309.76 103.97L295.41 107.6L296.15 110.51L313.62 106.09L307.94 88.99Z" fill="#251F1C"/>
<path d="M2.28 92.01C2.64 92.01 3.01 91.97 3.33 91.97C4.5 91.97 5.47 92.05 6.2 92.13C6.89 92.21 7.49 92.57 7.86 93.14C9.36 95.28 11.9 100.18 12.75 101.87C12.83 101.99 12.95 102.07 13.07 102.07C13.19 102.07 13.31 101.99 13.35 101.87C15.09 98.47 17.6 94.47 18.61 92.89C18.89 92.49 19.34 92.2 19.82 92.12C20.83 92 21.72 91.96 22.49 91.96C23.14 91.96 23.7 92 24.15 92.04C25 92.12 25.65 92.77 25.69 93.62C26.01 98.92 26.13 113.43 26.17 117.68C26.17 118.41 25.64 118.97 24.92 119.06C24.11 119.18 23.3 119.18 22.54 119.18C21.49 119.18 20.48 119.14 19.75 119.06C19.06 118.98 18.5 118.37 18.5 117.64C18.54 115.86 18.54 113.88 18.54 112.02C18.54 109.47 18.54 107.09 18.5 105.55C18.5 105.31 18.3 105.19 18.13 105.19C18.01 105.19 17.89 105.23 17.81 105.39L14.21 112.95C13.97 113.48 13.48 113.72 13 113.72C12.52 113.72 12.03 113.48 11.79 112.99L7.91 105.31C7.83 105.15 7.71 105.11 7.55 105.11C7.39 105.11 7.19 105.23 7.19 105.47L7.47 117.64C7.47 118.37 6.94 118.93 6.26 118.97C5.21 119.05 4.28 119.09 3.51 119.09C2.58 119.09 1.85 119.05 1.33 119.01C0.64 118.97 0.12 118.4 0.12 117.76C0.04 114.73 0 111.17 0 107.69C0 102.27 0.08 97.06 0.12 94.27C0.12 93.06 1.09 92.09 2.3 92.01H2.28Z" fill="#251F1C"/>
<path d="M49.1502 104.26C49.1502 108.67 48.7502 113.84 48.4602 116.8C48.3402 118.18 47.0802 119.23 45.5502 119.23H39.0002C32.0002 119.23 28.4902 115.19 28.4902 110.98C28.4902 109.32 29.0202 107.66 30.1102 106.21C32.3302 103.18 36.8602 102.77 39.7302 102.77C40.4202 102.77 40.9802 102.81 41.4302 102.81C42.0802 102.81 42.2802 102.41 42.3602 101.8C42.4002 101.48 42.4402 101.15 42.4402 100.83C42.4402 99.3699 41.8302 97.9599 39.7302 97.7999C39.5702 97.7999 39.4102 97.7599 39.2802 97.7599C37.3002 97.7599 36.0002 99.0099 35.4802 100.47C35.2802 101.04 34.6702 101.44 34.0202 101.44C33.9002 101.44 33.7802 101.44 33.6502 101.4L30.8602 100.83C30.1702 100.71 29.6502 100.14 29.6502 99.4999C29.6502 99.3799 29.6502 99.2999 29.6902 99.1799C31.5102 92.1399 36.8502 91.8199 39.2302 91.8199H39.8802C41.8202 91.8199 47.7202 92.7099 48.7702 98.6899C49.0102 100.15 49.1402 102.13 49.1402 104.27L49.1502 104.26ZM42.3602 109.72C42.3602 108.75 41.8302 108.43 41.1102 108.39C40.8302 108.39 40.5002 108.35 40.1802 108.35C38.6402 108.35 36.9102 108.63 36.4202 110.37C36.3802 110.57 36.3402 110.73 36.3402 110.9C36.3402 112.44 38.5602 112.88 40.3802 112.88H40.9902C41.7202 112.8 42.3202 112.44 42.3602 111.75V109.73V109.72Z" fill="#251F1C"/>
<path d="M58.2601 119.1C56.8801 119.14 55.5501 119.14 54.3801 119.14C53.6901 119.14 53.1701 118.57 53.1701 117.89C53.1701 117.89 52.6001 106.24 52.6001 98.0399C52.6001 96.2599 52.6001 94.6799 52.6801 93.3899C52.6801 92.6999 53.2101 92.0999 53.8501 92.0999C54.8201 92.0199 56.6401 91.9799 58.3401 91.9399C59.1501 91.9399 59.6701 92.5899 59.6701 93.4399C59.6701 93.4399 59.5101 109.37 59.5101 109.41L59.4701 117.78C59.4701 118.51 58.9401 119.11 58.2601 119.11V119.1Z" fill="#251F1C"/>
<path d="M66.9899 98.72C65.1299 98.72 63.6299 97.18 63.6299 95.32C63.6299 93.46 65.1299 91.96 66.9899 91.96C68.8499 91.96 70.3899 93.46 70.3899 95.32C70.3899 97.18 68.8499 98.72 66.9899 98.72ZM68.8899 119.14H65.3299C64.6799 119.14 64.1599 118.74 64.1599 118.29C64.1599 118.29 63.6299 110.49 63.6299 104.95C63.6299 103.7 63.6299 102.56 63.7099 101.63C63.7099 101.19 64.1999 100.78 64.8399 100.74C65.7699 100.74 67.4699 100.7 69.0899 100.66C69.8599 100.66 70.3799 101.11 70.3799 101.67C70.3799 101.67 70.2199 112.47 70.2199 112.51L70.1799 118.13C70.1799 118.7 69.6099 119.1 68.8899 119.14Z" fill="#251F1C"/>
<path d="M10.0402 137.24C9.9402 137.24 9.8402 137.22 9.7402 137.16C9.2602 136.88 8.4802 136.52 7.56019 136.52C7.28019 136.52 6.9602 136.56 6.64019 136.64C4.78019 137.14 4.3602 139.06 4.3602 140.08C4.3602 140.18 4.3802 140.28 4.3802 140.36C4.5002 141.72 5.0202 143.34 6.9002 143.34C7.0202 143.34 7.1602 143.34 7.3002 143.32C8.6002 143.2 9.3602 142.62 9.76019 142.18C9.88019 142.04 10.0402 141.96 10.2002 141.96C10.3602 141.96 10.5202 142.02 10.6402 142.14L11.9002 143.4C12.0402 143.52 12.1202 143.7 12.1202 143.88C12.1202 144.04 12.0602 144.18 11.9602 144.3C11.3002 145.14 9.74019 146.74 7.22019 146.74C3.46019 146.74 1.4602 144.4 1.2202 140.26C1.2002 140.06 1.2002 139.86 1.2002 139.68C1.2002 135.88 3.4402 133.42 5.7802 133.16C6.2402 133.1 6.6802 133.08 7.0802 133.08C9.0602 133.08 10.3402 133.62 11.0802 134.16C11.2402 134.26 11.3202 134.44 11.3202 134.64C11.3202 134.7 11.3002 134.78 11.2802 134.86L10.5602 136.84C10.4802 137.1 10.2602 137.24 10.0402 137.24Z" fill="#251F1C"/>
<path d="M23.2201 139.32C23.2201 139.52 23.2201 139.74 23.2001 139.96C22.9401 145.04 19.7401 146.7 17.7401 146.7C16.1201 146.7 12.2601 146.08 12.1201 139.76V139.56C12.1201 133.22 17.7601 133.18 17.7601 133.18C21.5801 133.18 23.2201 135.66 23.2201 139.32ZM19.8801 139.54C19.8801 136.88 18.1201 136.74 17.7601 136.74H17.6801C17.6801 136.74 15.5801 136.94 15.5801 139.6C15.5801 142.26 16.5201 143.4 17.8201 143.4C17.9801 143.4 19.8801 143.32 19.8801 139.54Z" fill="#251F1C"/>
<path d="M34.3002 146.62C33.9602 146.66 33.6002 146.68 33.2402 146.68C32.7002 146.68 32.2002 146.64 31.9002 146.62C31.6602 146.6 31.4602 146.4 31.4602 146.16V140.9C31.4602 136.34 30.5802 136.3 30.0202 136.3C29.4602 136.3 28.2202 136.74 28.1402 139.68C28.0802 141.74 28.0002 144.88 27.9802 146.08C27.9602 146.36 27.7402 146.6 27.4602 146.64C27.1802 146.66 26.9002 146.68 26.6002 146.68C26.1602 146.68 25.7402 146.66 25.4202 146.64C25.1402 146.62 24.9002 146.4 24.8802 146.1C24.7002 143.52 24.6602 139.58 24.6602 136.8C24.6602 135.48 24.6802 134.42 24.6802 133.86C24.6802 133.62 24.8602 133.4 25.1202 133.38C25.6202 133.32 26.1802 133.3 26.6802 133.3C27.0402 133.3 27.3802 133.32 27.6002 133.34C27.8602 133.36 28.0402 133.58 28.0402 133.82V133.86L28.0002 134.38C28.0002 134.44 28.0402 134.48 28.0802 134.48C28.1202 134.48 28.1602 134.46 28.1802 134.44C28.6002 134 29.6002 133.28 30.8802 133.28C34.4202 133.28 34.7402 137.74 34.7402 139.32C34.7402 139.66 34.7202 139.86 34.7202 139.86V146.16C34.7202 146.4 34.5402 146.6 34.3002 146.62Z" fill="#251F1C"/>
<path d="M34.9204 133.98C34.9204 133.66 35.1804 133.38 35.5004 133.36C36.5804 133.3 38.0004 133.28 39.4404 133.28C41.8404 133.28 44.3204 133.34 45.2404 133.38C45.5804 133.4 45.8404 133.68 45.8404 134.02V134.08L45.6404 135.9C45.6004 136.2 45.3404 136.44 45.0204 136.44C44.7004 136.44 44.0204 136.46 43.3804 136.46C42.7404 136.46 42.1204 136.44 41.9204 136.44C41.6804 136.44 41.4804 136.62 41.4804 136.86V136.9L41.6404 145.82V145.86C41.6404 146.22 41.3404 146.54 40.9804 146.58C40.2604 146.66 39.7204 146.7 39.2604 146.7C39.0604 146.7 38.8604 146.7 38.6804 146.68C38.3004 146.64 38.0204 146.3 38.0204 145.92L38.1804 136.9C38.1804 136.66 37.9804 136.46 37.7204 136.46C37.2204 136.48 36.7404 136.5 36.3404 136.5C36.0804 136.5 35.8404 136.48 35.6804 136.48C35.3604 136.46 35.1004 136.22 35.0604 135.9L34.9204 134.04V133.98ZM43.2204 138.9C43.2204 138.28 43.8004 137.8 44.5404 137.8C45.2804 137.8 45.8404 138.28 45.8404 138.9C45.8404 139.52 45.2604 140 44.5404 140C43.8204 140 43.2204 139.52 43.2204 138.9ZM45.3604 140.64C45.6604 140.64 45.8404 140.8 45.8404 140.98C45.8404 140.98 45.8004 144.52 45.8004 144.54L45.7804 146.38C45.7804 146.56 45.5604 146.7 45.2804 146.7H43.8804C43.6404 146.7 43.4404 146.58 43.4404 146.42C43.4404 146.42 43.2204 143.84 43.2204 142.04C43.2204 141.64 43.2404 141.28 43.2604 140.98C43.2604 140.82 43.4404 140.68 43.7004 140.68C44.0604 140.66 44.7204 140.66 45.3604 140.64Z" fill="#251F1C"/>
<path d="M57.5004 146.62C57.1604 146.66 56.8003 146.68 56.4403 146.68C55.9003 146.68 55.4003 146.64 55.1003 146.62C54.8603 146.6 54.6604 146.4 54.6604 146.16V140.9C54.6604 136.34 53.7804 136.3 53.2204 136.3C52.6604 136.3 51.4204 136.74 51.3404 139.68C51.2804 141.74 51.2004 144.88 51.1804 146.08C51.1604 146.36 50.9404 146.6 50.6604 146.64C50.3804 146.66 50.1004 146.68 49.8004 146.68C49.3604 146.68 48.9403 146.66 48.6203 146.64C48.3403 146.62 48.1003 146.4 48.0803 146.1C47.9003 143.52 47.8604 139.58 47.8604 136.8C47.8604 135.48 47.8804 134.42 47.8804 133.86C47.8804 133.62 48.0604 133.4 48.3204 133.38C48.8204 133.32 49.3804 133.3 49.8804 133.3C50.2404 133.3 50.5804 133.32 50.8004 133.34C51.0604 133.36 51.2403 133.58 51.2403 133.82V133.86L51.2004 134.38C51.2004 134.44 51.2403 134.48 51.2803 134.48C51.3203 134.48 51.3604 134.46 51.3804 134.44C51.8004 134 52.8003 133.28 54.0803 133.28C57.6203 133.28 57.9403 137.74 57.9403 139.32C57.9403 139.66 57.9203 139.86 57.9203 139.86V146.16C57.9203 146.4 57.7404 146.6 57.5004 146.62Z" fill="#251F1C"/>
<path d="M70.3403 137.74C70.3603 137.88 70.3803 138.02 70.3803 138.16C70.3803 139.18 69.7403 140.1 68.8003 140.32C67.0803 140.76 64.3403 141.5 62.9403 141.86C62.7803 141.9 62.6803 142.04 62.6803 142.2C62.6803 142.24 62.6803 142.28 62.7003 142.32C63.0803 143.26 63.8803 143.78 64.9403 143.78C65.0603 143.78 65.2003 143.78 65.3203 143.76C66.5803 143.62 67.3403 142.86 67.7203 142.42C67.8403 142.28 68.0003 142.22 68.1603 142.22C68.3003 142.22 68.4403 142.28 68.5603 142.4L69.5603 143.4C69.7003 143.54 69.7603 143.7 69.7603 143.88C69.7603 144.04 69.7203 144.18 69.6203 144.3C68.9803 145.14 67.4603 146.74 65.0603 146.74C61.4403 146.74 59.5203 144.4 59.3003 140.26C59.2803 140.06 59.2803 139.88 59.2803 139.68C59.2803 135.9 61.5403 133.68 63.6803 133.22C64.0803 133.14 64.4603 133.1 64.8003 133.08C66.8403 133.08 68.1603 133.78 69.0003 134.72C69.8003 135.62 70.1803 136.76 70.3403 137.74ZM66.5203 138.34C66.7803 138.26 66.9203 138 66.9203 137.74C66.9203 137.58 66.8803 137.4 66.7603 137.28C66.4403 136.9 65.9203 136.56 65.1803 136.56C64.9803 136.56 64.7603 136.58 64.5203 136.64H64.5003C63.0603 137.04 62.4003 138.32 62.3203 139.38V139.42C62.3203 139.62 62.4803 139.76 62.6603 139.76C62.7003 139.76 62.7403 139.76 62.7803 139.74L66.5203 138.34Z" fill="#251F1C"/>
<path d="M81.16 146.62C80.82 146.66 80.46 146.68 80.1 146.68C79.56 146.68 79.06 146.64 78.76 146.62C78.52 146.6 78.32 146.4 78.32 146.16V140.9C78.32 136.34 77.44 136.3 76.88 136.3C76.32 136.3 75.08 136.74 75 139.68C74.94 141.74 74.86 144.88 74.84 146.08C74.82 146.36 74.6 146.6 74.32 146.64C74.04 146.66 73.76 146.68 73.46 146.68C73.02 146.68 72.6 146.66 72.28 146.64C72 146.62 71.76 146.4 71.74 146.1C71.56 143.52 71.52 139.58 71.52 136.8C71.52 135.48 71.54 134.42 71.54 133.86C71.54 133.62 71.72 133.4 71.98 133.38C72.48 133.32 73.04 133.3 73.54 133.3C73.9 133.3 74.24 133.32 74.46 133.34C74.72 133.36 74.9 133.58 74.9 133.82V133.86L74.86 134.38C74.86 134.44 74.9 134.48 74.94 134.48C74.98 134.48 75.02 134.46 75.04 134.44C75.46 134 76.46 133.28 77.74 133.28C81.28 133.28 81.6 137.74 81.6 139.32C81.6 139.66 81.58 139.86 81.58 139.86V146.16C81.58 146.4 81.4 146.6 81.16 146.62Z" fill="#251F1C"/>
<path d="M91.9601 142.58C91.9601 143.34 91.8601 144.26 91.4801 145C91.3201 145.3 90.4201 146.68 87.7001 146.68C84.3001 146.68 84.1601 142.68 84.1601 142.04V138.96C84.1601 138.78 84.0201 138.64 83.8401 138.64H83.2201C82.9001 138.64 82.6201 138.36 82.6201 138.04V136.34C82.6201 136.02 82.9001 135.74 83.2201 135.74L83.8201 135.76C84.0201 135.76 84.1601 135.62 84.1601 135.42V133.82C84.1601 133.58 84.3201 133.38 84.5401 133.34H84.5801C84.9201 133.3 85.2801 133.28 85.6401 133.28C86.1801 133.28 86.7001 133.32 87.0001 133.34C87.0001 133.34 87.0201 133.34 87.0401 133.36C87.2601 133.38 87.4201 133.6 87.4201 133.82V135.48C87.4201 135.66 87.5601 135.8 87.7401 135.82L90.1401 135.84C90.4601 135.84 90.7401 136.12 90.7401 136.44V137.9C90.7401 138.22 90.4601 138.7 90.1401 138.7L87.7401 138.66C87.5601 138.66 87.4201 138.8 87.4201 138.98V140.6C87.4201 142.66 87.7201 143.66 88.5201 143.66C89.0601 143.66 89.1401 143.1 89.1401 142.48C89.1401 142.24 89.1201 142 89.1201 141.78V141.62C89.1201 141.34 89.3201 141.1 89.6001 141.08C89.8401 141.06 90.1801 141.04 90.5801 141.04C90.8601 141.04 91.1401 141.04 91.4201 141.08C91.6801 141.12 91.8801 141.32 91.9001 141.56C91.9201 141.82 91.9601 142.18 91.9601 142.58Z" fill="#251F1C"/>
<path d="M109.12 146.36V146.4C109.12 146.52 109 146.64 108.88 146.66C108.36 146.76 107.86 146.78 107.42 146.78C106.76 146.78 106.24 146.7 105.94 146.66C105.8 146.64 105.7 146.52 105.7 146.38C105.68 145.68 105.62 145.02 105.56 144.38C105.56 144.24 105.44 144.12 105.28 144.12H101.92C101.78 144.12 101.66 144.22 101.64 144.38C101.52 145.26 101.46 145.96 101.42 146.32C101.4 146.5 101.26 146.64 101.08 146.66C100.68 146.72 100.26 146.74 99.8601 146.74C99.2801 146.74 98.7401 146.7 98.4201 146.66C98.2201 146.64 98.0801 146.46 98.0801 146.26C98.3601 140.02 100.48 135.62 101.34 134.06C101.56 133.66 101.98 133.4 102.44 133.36C102.8 133.34 103.18 133.32 103.56 133.32C104.2 133.32 104.82 133.36 105.28 133.38C105.76 133.42 106.18 133.7 106.4 134.1C108.38 137.78 109 144.9 109.12 146.36ZM104.76 141.18C104.92 141.18 105.04 141.06 105.04 140.9V140.84C104.66 138.98 104.2 137.64 103.98 137.04C103.94 136.94 103.86 136.9 103.76 136.9C103.7 136.9 103.62 136.92 103.58 137C103 137.98 102.56 139.4 102.24 140.84V140.9C102.24 141.06 102.34 141.18 102.5 141.18H104.76Z" fill="#251F1C"/>
<path d="M113.18 138.86C113.18 139.02 113.32 139.16 113.48 139.16H113.52L115.12 139.08C115.32 139.08 115.48 139.2 115.52 139.4C115.58 139.74 115.66 140.3 115.66 140.78V140.98C115.66 141.18 115.64 141.44 115.32 141.5L113.64 141.64C113.46 141.66 113.34 141.8 113.34 141.96L113.58 146.16C113.58 146.4 113.4 146.6 113.16 146.64C112.74 146.7 112.32 146.7 111.94 146.7C111.44 146.7 111 146.68 110.72 146.64C110.48 146.6 110.3 146.42 110.3 146.18L110.32 139.18C110.32 139.18 110.3 138.98 110.3 138.64C110.3 137.2 110.6 133.36 113.7 133.16C113.8 133.16 113.92 133.14 114.02 133.14C116.8 133.14 117.86 135.68 118.16 136.76C118.18 136.8 118.18 136.86 118.18 136.9C118.18 137.1 118.04 137.3 117.82 137.34L116.1 137.78C116.1 137.78 116.02 137.8 115.98 137.8C115.76 137.8 115.56 137.66 115.5 137.46C115.34 136.94 114.96 136.14 114.24 136.14C114.14 136.14 114.06 136.16 113.96 136.18C113.26 136.34 113.2 137.88 113.18 138.86Z" fill="#251F1C"/>
<path d="M125.66 146.72C125.16 146.68 124.98 146.18 124.84 145.9L122.74 142.24C122.68 142.14 122.6 142.1 122.52 142.1C122.38 142.1 122.26 142.18 122.24 142.34V142.44L122.4 146.2C122.4 146.46 122.22 146.7 121.96 146.74C121.48 146.82 121.04 146.84 120.64 146.84C120.06 146.84 119.6 146.78 119.28 146.74C119.04 146.7 118.84 146.5 118.84 146.24V146.2L118.94 134.06C118.94 133.66 119.26 133.34 119.66 133.32C120.28 133.3 120.96 133.28 121.64 133.28C122.76 133.28 123.86 133.32 124.58 133.48C126.48 133.88 128.32 134.66 128.32 137.36C128.32 137.5 128.32 137.66 128.3 137.82C128.18 139.58 126.94 140.58 125.64 141.14C125.52 141.18 125.46 141.26 125.46 141.34C125.46 141.4 125.48 141.46 125.54 141.52L128.34 144.52C128.42 144.64 128.46 144.76 128.46 144.9C128.46 145.1 128.36 145.32 128.16 145.44C127.48 145.84 126.04 146.72 125.66 146.72ZM122.04 138.84C122.04 139.1 122.26 139.3 122.52 139.3C122.56 139.3 122.6 139.3 122.64 139.28C123.28 139.1 124.58 138.9 124.58 137.74C124.58 136.42 123.24 136.48 122.48 136.44H122.44C122.18 136.44 121.98 136.66 121.98 136.92L122.04 138.84Z" fill="#251F1C"/>
<path d="M131.26 136.64C130.34 136.64 129.6 135.88 129.6 134.96C129.6 134.04 130.34 133.3 131.26 133.3C132.18 133.3 132.94 134.04 132.94 134.96C132.94 135.88 132.18 136.64 131.26 136.64ZM132.2 146.74H130.44C130.12 146.74 129.86 146.54 129.86 146.32C129.86 146.32 129.6 142.46 129.6 139.72C129.6 139.1 129.6 138.54 129.64 138.08C129.64 137.86 129.88 137.66 130.2 137.64C130.66 137.64 131.5 137.62 132.3 137.6C132.68 137.6 132.94 137.82 132.94 138.1C132.94 138.1 132.86 143.44 132.86 143.46L132.84 146.24C132.84 146.52 132.56 146.72 132.2 146.74Z" fill="#251F1C"/>
<path d="M143.1 137.24C143 137.24 142.9 137.22 142.8 137.16C142.32 136.88 141.54 136.52 140.62 136.52C140.34 136.52 140.02 136.56 139.7 136.64C137.84 137.14 137.42 139.06 137.42 140.08C137.42 140.18 137.44 140.28 137.44 140.36C137.56 141.72 138.08 143.34 139.96 143.34C140.08 143.34 140.22 143.34 140.36 143.32C141.66 143.2 142.42 142.62 142.82 142.18C142.94 142.04 143.1 141.96 143.26 141.96C143.42 141.96 143.58 142.02 143.7 142.14L144.96 143.4C145.1 143.52 145.18 143.7 145.18 143.88C145.18 144.04 145.12 144.18 145.02 144.3C144.36 145.14 142.8 146.74 140.28 146.74C136.52 146.74 134.52 144.4 134.28 140.26C134.26 140.06 134.26 139.86 134.26 139.68C134.26 135.88 136.5 133.42 138.84 133.16C139.3 133.1 139.74 133.08 140.14 133.08C142.12 133.08 143.4 133.62 144.14 134.16C144.3 134.26 144.38 134.44 144.38 134.64C144.38 134.7 144.36 134.78 144.34 134.86L143.62 136.84C143.54 137.1 143.32 137.24 143.1 137.24Z" fill="#251F1C"/>
<path d="M155.94 139.38C155.94 141.56 155.74 144.12 155.6 145.58C155.54 146.26 154.92 146.78 154.16 146.78H150.92C147.46 146.78 145.72 144.78 145.72 142.7C145.72 141.88 145.98 141.06 146.52 140.34C147.62 138.84 149.86 138.64 151.28 138.64C151.62 138.64 151.9 138.66 152.12 138.66C152.44 138.66 152.54 138.46 152.58 138.16C152.6 138 152.62 137.84 152.62 137.68C152.62 136.96 152.32 136.26 151.28 136.18C151.2 136.18 151.12 136.16 151.06 136.16C150.08 136.16 149.44 136.78 149.18 137.5C149.08 137.78 148.78 137.98 148.46 137.98C148.4 137.98 148.34 137.98 148.28 137.96L146.9 137.68C146.56 137.62 146.3 137.34 146.3 137.02C146.3 136.96 146.3 136.92 146.32 136.86C147.22 133.38 149.86 133.22 151.04 133.22H151.36C152.32 133.22 155.24 133.66 155.76 136.62C155.88 137.34 155.94 138.32 155.94 139.38ZM152.58 142.08C152.58 141.6 152.32 141.44 151.96 141.42C151.82 141.42 151.66 141.4 151.5 141.4C150.74 141.4 149.88 141.54 149.64 142.4C149.62 142.5 149.6 142.58 149.6 142.66C149.6 143.42 150.7 143.64 151.6 143.64H151.9C152.26 143.6 152.56 143.42 152.58 143.08V142.08Z" fill="#251F1C"/>
<path d="M159.24 136.64C158.32 136.64 157.58 135.88 157.58 134.96C157.58 134.04 158.32 133.3 159.24 133.3C160.16 133.3 160.92 134.04 160.92 134.96C160.92 135.88 160.16 136.64 159.24 136.64ZM160.18 146.74H158.42C158.1 146.74 157.84 146.54 157.84 146.32C157.84 146.32 157.58 142.46 157.58 139.72C157.58 139.1 157.58 138.54 157.62 138.08C157.62 137.86 157.86 137.66 158.18 137.64C158.64 137.64 159.48 137.62 160.28 137.6C160.66 137.6 160.92 137.82 160.92 138.1C160.92 138.1 160.84 143.44 160.84 143.46L160.82 146.24C160.82 146.52 160.54 146.72 160.18 146.74Z" fill="#251F1C"/>
<path d="M172.64 146.62C172.3 146.66 171.94 146.68 171.58 146.68C171.04 146.68 170.54 146.64 170.24 146.62C170 146.6 169.8 146.4 169.8 146.16V140.9C169.8 136.34 168.92 136.3 168.36 136.3C167.8 136.3 166.56 136.74 166.48 139.68C166.42 141.74 166.34 144.88 166.32 146.08C166.3 146.36 166.08 146.6 165.8 146.64C165.52 146.66 165.24 146.68 164.94 146.68C164.5 146.68 164.08 146.66 163.76 146.64C163.48 146.62 163.24 146.4 163.22 146.1C163.04 143.52 163 139.58 163 136.8C163 135.48 163.02 134.42 163.02 133.86C163.02 133.62 163.2 133.4 163.46 133.38C163.96 133.32 164.52 133.3 165.02 133.3C165.38 133.3 165.72 133.32 165.94 133.34C166.2 133.36 166.38 133.58 166.38 133.82V133.86L166.34 134.38C166.34 134.44 166.38 134.48 166.42 134.48C166.46 134.48 166.5 134.46 166.52 134.44C166.94 134 167.94 133.28 169.22 133.28C172.76 133.28 173.08 137.74 173.08 139.32C173.08 139.66 173.06 139.86 173.06 139.86V146.16C173.06 146.4 172.88 146.6 172.64 146.62Z" fill="#251F1C"/>
</svg>
