<svg width="207" height="85" viewBox="0 0 207 85" fill="none" xmlns="http://www.w3.org/2000/svg">
<path fill-rule="evenodd" clip-rule="evenodd" d="M159.118 48.8575C159.278 51.3321 154.102 52.1094 152.6 52.1094C147.438 52.1094 145.752 62.8675 143.928 68.2949C143.612 69.2375 144.034 73.4319 143.027 75.972C142.698 76.8034 142.855 86.0495 140.077 74.1267C138.322 66.595 136.67 59.029 142.692 54.4928C147.165 51.1242 149.19 44.4979 154.481 47.4423C154.713 47.5733 158.977 46.7133 159.115 48.8575H159.118Z" fill="#F9F9F9"/>
<path fill-rule="evenodd" clip-rule="evenodd" d="M151.622 46.7249C147.794 45.3325 145.15 48.0974 144.2 49.3874C143.383 50.5008 140.455 52.4343 138.718 56.008C137.72 58.061 131.265 61.6774 129.094 61.4155C128.928 61.3955 128.973 61.3728 128.853 61.6376C132.26 65.9602 137.456 70.4621 138.872 76.2769C140.18 81.6388 140.126 78.2417 140.123 84.9733H140.785C141.336 81.2658 143.314 79.9046 141.336 69.8072C140.994 68.0617 140.114 60.285 141.009 58.7587C142.423 56.3468 153.426 50.0765 151.619 46.7278L151.622 46.7249Z" fill="#AAB0B6"/>
<path fill-rule="evenodd" clip-rule="evenodd" d="M72.7829 84.9702C72.5019 82.6865 71.633 75.972 70.9964 72.7144C69.6056 65.5898 69.9038 66.5038 69.901 59.4761C70.1763 59.3935 73.0983 52.3372 74.4777 50.8337C79.7053 45.1386 79.7024 41.6931 82.7306 36.4279C87.5425 28.0561 86.7109 20.2026 87.8952 17.7053C88.7813 15.8316 96.9081 0.394969 97.5275 0.28961C102.824 -0.615913 104.871 1.36599 108.444 6.05591C114.079 13.4539 121.724 17.244 125.601 22.1019C127.072 23.9443 130.147 23.1413 131.704 22.3212C137.68 19.1604 142.4 21.3331 145.431 29.0613C147.157 33.4608 155.161 43.7092 157.69 48.9999V84.9731H72.7829V84.9702Z" fill="#818388"/>
<path fill-rule="evenodd" clip-rule="evenodd" d="M108.424 29.8131C109.629 33.9649 111.538 41.6305 110.159 45.7538C108.998 49.2306 109.958 49.9653 107.243 54.6723C104.427 59.553 100.395 73.2868 100.395 79.7336C100.395 81.1973 99.9045 83.3871 99.7095 84.9732H106.265C107.03 82.3591 108.046 78.3611 109.425 76.5216C112.734 72.1107 109.832 61.9279 111.481 57.2579C113.752 50.8338 117.509 33.4238 115.134 26.4929C110.403 12.6879 103.589 13.172 108.421 29.816L108.424 29.8131Z" fill="#7D7F86"/>
<path fill-rule="evenodd" clip-rule="evenodd" d="M101.089 0.167376C102.864 -0.891915 106.881 3.3424 107.983 5.40973C110.225 9.62411 123.126 19.545 127.181 23.0959C116.029 34.4434 124.268 35.8814 117.612 48.9944C117.331 49.5469 115.59 57.1043 113.795 59.7439C111.51 63.1041 112.252 72.8797 107.925 76.5246C108.054 76.2712 108.132 66.823 109.021 64.3855C109.649 62.6655 110.047 59.3197 111.484 56.4152C113.032 53.28 112.68 39.3697 114.458 33.8198C115.367 30.9779 110.231 23.9302 109.649 19.7614C109.35 17.6286 103.675 2.88394 101.528 1.05581C101.163 0.74543 101.267 0.879265 101.095 0.167376H101.089Z" fill="#72737D"/>
<path fill-rule="evenodd" clip-rule="evenodd" d="M101.594 84.9705C103.644 80.2293 106.09 81.5364 108.169 72.3558C108.189 72.2733 110.383 67.0224 110.4 66.9739C111.9 63.0358 116.935 51.301 119.602 44.185C119.554 44.8684 118.564 49.2621 118.688 51.3038C121.208 47.1094 121.581 45.3325 125.733 51.6968C129.521 57.503 135.368 79.1786 142.165 75.8726C147.736 73.1617 167.133 84.1732 149.873 42.1119C147.346 33.6974 161.991 47.7672 161.994 47.77C168.759 56.9676 164.862 55.3702 174.979 64.4168C175.291 64.6959 182.076 75.9893 185.087 79.207C187.034 81.2915 188.207 82.8462 188.795 84.9677H101.594V84.9705Z" fill="#72737D"/>
<path fill-rule="evenodd" clip-rule="evenodd" d="M94.2611 84.9702C92.2222 80.3685 89.7991 81.5787 87.7373 72.4751C87.7172 72.3897 85.535 67.1359 85.5063 67.0932C84.1098 64.9319 80.7547 56.7025 78.5179 53.4534C74.7241 47.9406 74.9478 44.4922 70.1732 51.8132C66.3851 57.6222 68.6534 59.4532 61.8571 56.1472C55.7377 53.1687 51.6456 39.9446 44.0837 42.5701C40.7229 43.7376 38.6123 41.4994 33.9152 47.8893C27.1505 57.0841 31.0476 55.4894 20.9306 64.5361C20.6181 64.8152 13.8333 76.1086 10.8223 79.3263C8.9125 81.3709 7.74539 82.9085 7.14893 84.9673H94.2611V84.9702Z" fill="#94979F"/>
<path fill-rule="evenodd" clip-rule="evenodd" d="M36.7917 44.7088C36.6312 47.1834 41.8072 47.9608 43.3098 47.9608C48.4715 47.9608 50.1577 58.7188 51.9815 64.1463C52.2969 65.0888 51.8754 69.2833 52.8819 71.8233C53.2117 72.6548 53.0539 81.9008 55.8326 69.9781C57.5876 62.4463 59.2394 54.8803 53.2174 50.3442C48.7439 46.9755 46.7194 40.3492 41.4287 43.2936C41.1964 43.4246 36.9323 42.5646 36.7946 44.7088H36.7917Z" fill="#818388"/>
<path fill-rule="evenodd" clip-rule="evenodd" d="M55.7206 75.2802C54.8087 76.9802 53.3605 81.7384 55.1757 84.9733H90.7025C89.2056 82.9971 85.6813 80.1153 83.2238 80.1153C68.1918 80.1153 76.1322 78.4267 65.8576 69.3857C63.5807 67.3811 64.6962 61.0908 60.8335 64.841C58.7775 66.8372 56.1651 70.0464 55.7206 75.283V75.2802Z" fill="#717481"/>
<path fill-rule="evenodd" clip-rule="evenodd" d="M44.2843 42.576C48.1125 41.1835 50.7564 43.9485 51.7056 45.2385C52.5229 46.3518 55.4507 48.2853 57.1885 51.859C58.1864 53.9121 64.6414 57.5285 66.8122 57.2665C66.9785 57.2466 66.9326 57.2238 67.0531 57.4886C63.6463 61.8112 58.4502 66.3132 57.0336 72.1279C55.7059 77.5725 55.7805 73.9874 55.7805 81.1376C55.7805 81.1661 54.9317 86.8213 55.1668 84.3468C55.8493 77.2421 52.0784 78.3584 54.5675 65.6583C54.9087 63.9127 55.7891 56.1361 54.8944 54.6098C53.4807 52.1979 42.4777 45.9276 44.2843 42.5788V42.576Z" fill="#808189"/>
<path fill-rule="evenodd" clip-rule="evenodd" d="M18.5563 68.2295C18.086 68.6025 13.6871 75.8837 11.2467 78.0934C9.19352 79.9529 8.27302 82.0999 7.62207 84.9731H28.0222C22.2784 84.0448 16.7812 82.8232 18.3354 77.1423C19.3506 73.4377 20.0818 73.8961 18.6624 69.7045C18.5276 69.303 18.7398 68.5427 18.5563 68.2323V68.2295Z" fill="#72737D"/>
<path fill-rule="evenodd" clip-rule="evenodd" d="M128.718 27.031C132.695 25.8778 135.067 21.4584 139.859 27.2731C142.898 30.9607 141.384 31.869 145.648 36.0208C148.051 38.3615 146.867 41.8469 148.766 44.6261C151.897 49.2107 143.948 49.4555 143.288 41.3713C143.042 38.3415 135.973 30.73 131.847 32.2079C127.689 33.6972 124.999 22.2813 128.718 27.0282V27.031Z" fill="#94979F"/>
<path fill-rule="evenodd" clip-rule="evenodd" d="M101.089 3.74097C93.7193 4.17664 97.0859 10.7858 92.8734 14.6015C88.4458 18.6081 89.1713 29.8018 85.7502 33.4979C84.3193 35.047 79.5591 43.3733 79.5591 46.4258C79.5591 48.1742 85.3029 64.5733 85.3029 65.4788C86.6765 65.4788 86.5618 58.5137 87.0063 56.1873C87.9497 51.2468 94.6599 43.0002 96.2801 36.7527C98.167 29.4772 97.1662 29.1611 97.7139 21.8543C97.9806 18.3091 100.025 8.43943 101.565 5.66876C101.961 4.95403 100.977 3.74951 101.086 3.74381L101.089 3.74097Z" fill="#94979F"/>
<path fill-rule="evenodd" clip-rule="evenodd" d="M37.0582 43.9884C36.6051 44.6548 36.9951 45.8052 37.6546 46.2779C38.1651 46.6452 39.639 47.0809 39.6419 47.2176L39.6075 47.3229C40.2756 51.4063 35.0394 55.5695 33.0435 58.4341C27.2854 66.6977 26.9843 63.3404 21.6907 67.0992C19.4081 68.7195 20.1106 70.3283 18.2065 69.699C18.7571 67.8054 20.254 64.8383 21.662 63.8302C21.8799 63.6736 23.3998 61.7629 24.283 61.1535C25.582 60.2594 28.3407 56.3981 28.9371 54.6383C29.7917 52.1211 35.871 46.4687 37.0582 43.9856V43.9884Z" fill="#C4C5C7"/>
<path fill-rule="evenodd" clip-rule="evenodd" d="M177.35 68.1099C177.82 68.4829 182.219 75.7612 184.66 77.9738C186.742 79.8589 187.659 82.0401 188.313 84.9731H167.133C173.135 84.022 179.197 82.9513 177.574 77.0227C176.559 73.318 175.827 73.7765 177.247 69.5849C177.382 69.1834 177.169 68.4202 177.353 68.1127L177.35 68.1099Z" fill="#808189"/>
<path fill-rule="evenodd" clip-rule="evenodd" d="M156.264 47.0979L156.299 47.2032C155.631 51.2866 160.867 55.4498 162.863 58.3144C168.621 66.578 168.922 63.2208 174.216 66.9795C176.498 68.5998 175.796 70.2087 177.7 69.5793C177.149 67.6857 175.652 64.7186 174.244 63.7105C174.026 63.5539 172.506 61.6432 171.623 61.0338C170.324 60.1397 167.566 56.2784 166.969 54.5186C164.01 45.7966 156.287 45.1729 156.264 47.095V47.0979Z" fill="#808189"/>
<path fill-rule="evenodd" clip-rule="evenodd" d="M117.612 56.4123C118.696 55.5694 117.486 63.0015 123.717 60.2963C129.9 57.6139 131.511 74.3206 135.664 80.2919C137.284 82.6212 133.911 83.5865 131.465 82.8604C123.571 80.5197 121.34 78.9051 116.562 71.8745C112.7 66.1908 114.928 66.5866 116.333 58.7302C116.517 57.7079 117.122 56.791 117.609 56.4123H117.612Z" fill="#717481"/>
<path fill-rule="evenodd" clip-rule="evenodd" d="M0 84.9617H164.343C178.569 84.9617 177.339 84.9617 164.343 82.0117C155.051 80.0782 131.422 75.5648 110.173 75.9948C106.357 76.0717 103.07 76.3023 99.9246 76.5928C72.1805 80.4626 60.3947 77.5809 38.7729 79.3691C25.5475 80.4626 22.1322 83.2332 0.00286761 84.9589L0 84.9617Z" fill="#748C41"/>
<path fill-rule="evenodd" clip-rule="evenodd" d="M129.599 76.7465C119.969 76.026 112.333 75.5961 101.551 76.4532C98.6344 76.6867 97.7712 77.1622 98.7147 77.5979C103.377 79.7649 154.969 80.8242 148.276 82.8459C144.31 84.0419 127.044 83.8768 119.244 83.9394C92.4375 84.1501 52.6208 84.2612 40.855 84.9588H165.877C171.733 84.9759 180.252 85.1696 168.624 82.9741C156.035 80.0781 142.985 77.9595 129.599 76.7465Z" fill="#6A8834"/>
<path fill-rule="evenodd" clip-rule="evenodd" d="M35.7761 79.6625C29.3842 80.4627 24.7444 81.616 19.23 82.5927C27.6378 82.0345 27.5002 82.1456 34.9416 81.0493C57.5527 77.7148 60.8218 80.5681 71.2254 78.7485C55.6457 78.7171 45.2277 78.5235 35.7761 79.6654V79.6625Z" fill="#90B054"/>
<path fill-rule="evenodd" clip-rule="evenodd" d="M57.5959 79.9502C54.1405 79.3095 43.0342 79.9103 41.0871 80.8756C41.0126 80.9126 59.7467 80.3517 57.5959 79.9502Z" fill="#6A8834"/>
<path fill-rule="evenodd" clip-rule="evenodd" d="M132.504 81.4592C135.991 81.1972 150.902 83.2645 130.052 83.4069C127.155 83.4269 126.04 82.7919 130.622 82.6381C140.43 82.3106 131.81 81.5105 132.501 81.4592H132.504Z" fill="#90B054"/>
<path fill-rule="evenodd" clip-rule="evenodd" d="M122.378 84.9503H202.049C208.945 84.9503 208.349 84.9503 202.049 79.0559C197.544 75.1917 186.09 66.1792 175.787 67.0392C173.937 67.1929 172.343 67.6543 170.818 68.2352C157.366 75.9663 151.653 70.2114 141.172 73.7822C134.76 75.9663 133.106 81.4991 122.378 84.9503Z" fill="#7F9E3D"/>
<path fill-rule="evenodd" clip-rule="evenodd" d="M185.204 68.5458C180.536 67.1049 176.834 66.245 171.606 67.962C170.192 68.4262 169.774 69.3773 170.233 70.2515C172.495 74.5798 197.504 76.6983 194.26 80.7333C192.339 83.1253 183.966 82.795 180.186 82.9145C167.19 83.3331 147.888 83.5552 142.185 84.9506H202.794C205.633 84.9819 209.763 85.372 204.128 80.9868C198.025 75.2034 191.697 70.9719 185.207 68.5458H185.204Z" fill="#6A8834"/>
<path fill-rule="evenodd" clip-rule="evenodd" d="M139.721 74.3661C136.621 75.9664 134.373 78.2672 131.701 80.2178C135.776 79.1044 135.71 79.3265 139.317 77.1339C150.28 70.4735 151.863 76.1743 156.907 72.5351C149.354 72.4724 144.304 72.0852 139.721 74.3661Z" fill="#90B054"/>
<path fill-rule="evenodd" clip-rule="evenodd" d="M150.3 74.9412C148.625 73.6598 143.24 74.8643 142.297 76.7864C142.259 76.8605 151.341 75.7385 150.3 74.9412Z" fill="#6A8834"/>
<path fill-rule="evenodd" clip-rule="evenodd" d="M186.613 77.9541C188.302 77.4301 193.945 81.0522 183.837 81.337C182.432 81.3768 183.478 80.6194 185.701 80.3119C190.455 79.6541 186.277 78.0594 186.613 77.9541Z" fill="#90B054"/>
</svg>
