<svg width="59" height="190" viewBox="0 0 59 190" fill="none" xmlns="http://www.w3.org/2000/svg">
<g clip-path="url(#clip0_301_587)">
<path d="M36.8599 26.3744L59.0001 31.6171L54.9009 0L36.8599 26.3744Z" fill="#F1CE8F"/>
<path d="M50.1943 6.88307L55.9704 8.25003L54.901 0L50.1943 6.88307Z" fill="#3C3C3B"/>
<path d="M42.9517 24.8627C42.8869 22.9891 41.6637 22.8524 41.6637 22.8524C40.3837 22.5388 39.4764 24.131 39.4764 24.131C37.9291 26.1894 36.8597 26.3744 36.8597 26.3744L4.51221 160.892L11.8923 162.637L44.2398 28.1273C42.9355 26.5674 42.9436 24.8627 42.9436 24.8627H42.9517Z" fill="#BCA177"/>
<path d="M50.3321 26.6076C50.2673 24.734 49.044 24.5973 49.044 24.5973C47.7641 24.2837 46.8567 25.8758 46.8567 25.8758C45.3094 27.9343 44.2401 28.1193 44.2401 28.1193L11.8926 162.645L19.2726 164.39L51.6202 29.8722C50.3159 28.3122 50.3321 26.6076 50.3321 26.6076Z" fill="#B0915C"/>
<path d="M57.712 28.3605C57.6472 26.4869 56.4239 26.3502 56.4239 26.3502C55.1439 26.0366 54.2366 27.6288 54.2366 27.6288C52.6893 29.6872 51.62 29.8722 51.62 29.8722L19.2725 164.39L26.6525 166.134L59 31.6171C57.6958 30.0571 57.7039 28.3524 57.7039 28.3524L57.712 28.3605Z" fill="#9E8249"/>
<path d="M4.50832 160.902L3.45654 165.274L25.598 170.522L26.6498 166.15L4.50832 160.902Z" fill="#3C3C3B"/>
<path d="M3.46242 165.274L2.41064 169.646L24.5521 174.894L25.6039 170.522L3.46242 165.274Z" fill="#575756"/>
<path d="M2.41066 169.646L1.35889 174.018L23.5004 179.265L24.5521 174.893L2.41066 169.646Z" fill="#878787"/>
<path d="M1.36096 174.007L0.218706 178.751C-0.793926 182.948 1.82272 187.162 6.05147 188.167L12.8807 189.783C17.1094 190.788 21.3544 188.191 22.367 183.993L23.5092 179.249L1.36906 174.007H1.36096Z" fill="#F1CE8F"/>
</g>
<defs>
<clipPath id="clip0_301_587">
<rect width="59" height="190" fill="white"/>
</clipPath>
</defs>
</svg>
