<svg width="34" height="36" viewBox="0 0 34 36" fill="none" xmlns="http://www.w3.org/2000/svg">
<path d="M16.5 3C14.2106 3 11.995 3.46158 9.9517 4.34782C8.70235 4.89556 7.51455 5.59717 6.41291 6.45263C6.28982 6.54495 6.17288 6.63726 6.06826 6.72958C5.90209 6.86498 5.74207 7.00037 5.58206 7.14808C5.16356 7.51119 4.76352 7.89892 4.39426 8.30511C4.14808 8.5636 3.91421 8.83439 3.6865 9.11134L3.60034 6.01567C3.58803 5.59101 3.22492 5.25867 2.80026 5.26483L1.96941 5.2956C1.54476 5.30791 1.20627 5.65871 1.21858 6.08336L1.3909 11.7331L1.41552 12.6378V12.7178C1.42783 13.0994 1.74786 13.401 2.13558 13.3948H2.20944L3.04644 13.364L8.83775 13.1917C9.22548 13.1794 9.52704 12.8594 9.51473 12.4778L9.48396 11.4931C9.47165 11.1054 9.15162 10.8038 8.77005 10.8161L6.28366 10.89L5.85285 10.9023L7.26837 9.57292C9.78553 7.22193 13.0658 5.93566 16.5 5.93566C23.9776 5.93566 30.0643 12.0224 30.0643 19.5C30.0643 26.9776 23.9776 33.0643 16.5 33.0643C9.02238 33.0643 2.93566 26.9776 2.93566 19.5C2.93566 19.2661 2.93566 19.0323 2.94797 18.7984C2.94797 18.7984 2.94797 18.7061 2.97874 18.1583C3.00951 17.5121 0.0615442 17.426 0.0430809 18.1583C0.0246177 18.5768 0.0184633 18.7492 0.0184633 18.7492C0.00615442 18.9953 0 19.2477 0 19.5C0 28.5962 7.40377 36 16.5 36C25.5962 36 33 28.5962 33 19.5C33 10.4038 25.5962 3 16.5 3Z" fill="#5F3926"/>
</svg>
