<svg width="186" height="181" viewBox="0 0 186 181" fill="none" xmlns="http://www.w3.org/2000/svg">
<path d="M29.3405 165.932C33.4843 159.594 17.2752 155.328 10.3256 143.991C3.37932 132.655 7.40001 115.47 20.9298 107.426C34.4595 99.3812 57.8612 95.7234 73.5843 91.7027C89.3075 87.682 108.322 83.6581 114.54 70.8605C120.757 58.063 110.519 45.6316 95.5248 39.4143C80.5339 33.1969 61.8851 28.444 72.4892 19.6672C83.0934 10.8903 116.733 3.21182 118.564 6.13743C120.391 9.06305 105.704 11.2629 102.474 18.5689C99.2442 25.8748 113.445 34.292 127.703 38.3127C141.965 42.3334 162.807 47.0895 170.486 55.8664C178.164 64.6432 182.551 82.1937 162.807 100.11C143.06 118.027 131.361 118.759 132.822 136.309C134.283 153.86 162.992 174.877 167.56 167.023C171.461 160.32 162.564 160.929 152.689 153.98C142.817 147.033 137.209 138.133 139.036 129.36C140.864 120.583 156.953 113.271 169.022 103.399C181.09 93.5268 191.694 75.8532 182.551 57.6904C173.661 40.0266 140.135 36.4822 130.629 34.6549C121.123 32.8276 106.861 27.7086 110.885 18.9317C114.906 10.1549 126.974 7.96149 130.629 6.13419C134.287 4.3069 136.48 -4.10383 105.034 2.47637C73.5876 9.05657 55.3049 21.1251 64.0817 30.997C72.8586 40.869 91.5073 45.259 97.7214 51.8392C103.939 58.4226 107.959 69.3929 95.8941 76.3392C83.8288 83.2855 50.552 89.1367 29.3437 97.5475C8.13222 105.965 -1.00748 119.491 0.0875975 137.408C1.18592 155.324 25.1772 172.298 29.3405 165.928V165.932Z" fill="#B2D1EE"/>
<path d="M87.3478 21.0053C91.281 20.6942 94.145 24.6339 95.8038 24.6177C97.4594 24.6015 96.9184 21.7893 94.7282 19.8227C93.0046 18.274 89.4278 16.8064 86.7257 17.1757C82.3875 17.7686 79.018 20.1694 79.1962 24.4071C79.3712 28.6449 84.5517 28.8944 88.161 29.5391C99.2219 31.5122 98.062 34.71 101.312 35.2834C104.561 35.8569 102.374 29.6331 95.8395 27.6243C95.8395 27.6243 85.9902 26.2895 84.3995 24.7506C82.8087 23.2116 84.2958 21.2483 87.351 21.0053H87.3478Z" fill="#B2D1EE"/>
<path d="M108.008 37.101C110.286 34.9918 114.543 39.5309 123.991 47.6986C133.435 55.8664 145.931 67.4457 136.302 79.754C126.984 91.6671 115.946 93.4069 104.124 102.913C93.2345 111.667 89.7549 118.856 91.2388 131.109C92.7226 143.363 92.2885 144.033 89.797 144.325C87.3056 144.62 84.0527 134.006 85.8768 124.562C87.7008 115.117 91.6276 108.194 103.699 98.6522C115.774 89.114 129.431 84.0663 134.07 76.3943C137.274 71.097 137.031 63.0557 127.279 55.3739C117.291 47.5075 104.215 40.6098 108.005 37.0945L108.008 37.101Z" fill="#B2D1EE"/>
<path d="M124.966 42.3366C125.604 39.9942 136.179 45.7482 151.05 51.5994C165.921 57.4507 172.045 65.748 168.847 77.6222C166.287 87.128 157.634 94.1391 149.466 100.842C141.298 107.546 136.215 111.097 134.352 113.031C125.854 121.866 129.142 137.955 126.097 136.98C123.706 136.215 119.15 119.063 135.084 107.792C140.3 104.102 152.881 93.6531 156.415 89.8754C159.95 86.0977 167.872 76.5886 165.312 68.4241C162.753 60.2564 148.371 53.0671 140.446 50.3845C132.524 47.7019 123.871 46.3638 124.966 42.3399V42.3366Z" fill="#B2D1EE"/>
<path d="M128.743 93.773C129.965 94.5862 127.159 97.0647 122.283 101.332C117.407 105.599 108.144 113.763 105.461 122.906C102.779 132.046 103.025 142.164 107.046 152.036C111.07 161.908 124.92 179.261 123.112 180.579C121.308 181.898 116.918 180.129 110.946 168.796C104.975 157.459 99.1241 148.44 99.244 138.082C99.3671 127.72 100.524 121.322 108.202 110.108C115.881 98.8953 126.913 92.5581 128.74 93.7762L128.743 93.773Z" fill="#B2D1EE"/>
<path d="M121.493 58.4259C123.366 56.9517 127.892 61.899 128.439 68.1164C128.987 74.3337 122.04 79.8188 116.189 83.4734C110.338 87.1312 101.38 91.1519 94.0673 94.6251C86.7549 98.0982 76.1507 104.316 70.1181 109.982C64.0854 115.649 60.7937 129.726 64.8144 138.687C68.8351 147.646 74.3202 152.399 77.2458 155.324C80.1714 158.25 77.978 160.262 76.5136 160.443C75.0524 160.625 70.4809 159.711 65.1773 148.378C59.8768 137.042 54.4338 121.49 66.457 108.887C77.7934 97.0032 90.876 92.7881 107.046 84.2056C121.856 76.3424 123.135 72.5032 122.951 67.3842C122.769 62.2651 118.93 60.4379 121.49 58.4259H121.493Z" fill="#B2D1EE"/>
<path d="M67.4257 98.2149C65.0185 99.7215 51.1582 108.583 46.9626 124.315C43.7778 136.258 48.8936 149.029 55.6001 158.02C62.3067 167.014 64.918 166.178 66.2075 164.807C67.497 163.437 64.1923 159.692 58.5516 153.432C52.911 147.173 49.7878 133.776 50.9865 126.101C52.1853 118.425 57.4371 110.225 63.0518 105.56C68.6633 100.891 70.0565 100.447 70.0565 100.447C70.0565 100.447 73.3903 98.7106 72.7196 97.6123C72.049 96.5172 69.8686 96.6857 67.4257 98.2149Z" fill="#B2D1EE"/>
<path d="M78.3598 141.344C74.3423 145.106 69.9555 130.079 74.3585 117.508C77.5563 108.382 88.8051 101.196 89.641 103.318C90.3052 105.009 81.8426 109.684 78.444 117.482C73.866 127.989 79.322 140.44 78.3565 141.344H78.3598Z" fill="#B2D1EE"/>
<path d="M53.9087 100.933C54.6604 101.779 54.2748 104.772 42.0248 108.246C29.7748 111.719 21.4548 115.649 19.9936 121.866C18.8337 126.787 18.6232 130.824 21.8209 136.219C25.0219 141.613 26.6645 142.984 25.2941 144.082C23.9236 145.177 21.1794 140.609 19.2614 137.774C17.5799 135.292 14.5992 127.079 16.1544 121.869C17.7095 116.66 22.8285 111.907 28.3136 110.076C33.7988 108.249 42.3002 105.961 45.0411 104.682C47.7853 103.402 52.4443 99.2873 53.9087 100.933Z" fill="#B2D1EE"/>
<path d="M92.2072 170.092C89.3367 167.383 90.3346 162.617 89.2136 161.399C88.0893 160.184 86.3689 162.471 86.3819 165.416C86.3916 167.736 87.7005 171.371 89.787 173.124C93.1371 175.943 97.1772 176.831 100.203 173.856C103.229 170.882 99.9376 166.874 97.9936 163.764C92.0355 154.239 95.1847 152.956 93.4287 150.16C91.6726 147.367 88.5267 153.163 91.4232 159.358C91.4232 159.358 97.0444 167.555 96.9698 169.768C96.8953 171.98 94.4427 172.194 92.2137 170.092H92.2072Z" fill="#B2D1EE"/>
<path d="M38.5448 153.588C38.5448 153.588 35.3503 146.577 28.4364 137.793C26.1685 134.913 21.8983 127.283 23.9491 125.028C26.6318 122.077 33.0435 122.699 37.5502 127.623C40.2393 130.559 42.4489 136.795 42.5493 139.112C42.6497 141.428 42.5039 142.695 41.4542 141.412C40.4045 140.132 38.791 134.634 36.3384 131.848C32.7649 127.789 29.836 127.477 28.6502 129.11C27.85 130.215 32.5543 136.588 34.2746 139.371C39.128 147.234 41.4607 156.714 38.5416 153.591L38.5448 153.588Z" fill="#B2D1EE"/>
<path d="M47.6916 110.624C48.5632 111.404 46.778 113.092 41.659 114.648C36.54 116.203 37.635 118.668 38.5519 119.4C39.4656 120.133 44.037 121.322 43.6709 123.33C43.3048 125.342 40.0131 123.33 35.8077 121.318C31.6024 119.306 33.5236 115.192 37.1782 114.097C40.836 112.998 45.9551 109.068 47.6916 110.624Z" fill="#B2D1EE"/>
<path d="M128.788 103.888C130.564 105.242 128.519 107.721 121.301 117.363C114.083 127.001 118.272 139.831 121.097 145.507C123.922 151.18 138.524 164.694 135.475 167.095C132.43 169.495 126.446 159.397 122.017 154.822C117.588 150.247 111.594 138.674 113.004 128.346C114.413 118.017 125.075 101.056 128.788 103.888Z" fill="#B2D1EE"/>
<path d="M132.919 100.049C134.526 101.238 145.597 95.1726 150.47 90.2966C155.346 85.4206 162.292 77.4991 160.951 71.528C159.61 65.5569 153.392 61.2899 149.005 58.9734C144.619 56.6569 136.451 51.2949 135.599 52.8792C134.747 54.4635 137.426 56.0478 144.252 59.8255C151.079 63.6032 157.478 68.7546 157.416 72.9892C157.361 76.7733 154.371 81.1537 149.738 85.5437C145.105 89.9305 137.915 95.2957 136.574 95.1726C135.233 95.0495 137.06 91.4241 139.376 88.1324C141.693 84.8406 144.295 80.5478 145.228 79.2032C147.787 75.5163 149.767 69.2698 147.696 68.6607C145.623 68.0516 143.52 73.4751 142.182 76.2776C140.841 79.0801 138.281 84.4454 136.331 86.6388C134.381 88.8322 129.628 97.609 132.919 100.045V100.049Z" fill="#B2D1EE"/>
</svg>
