<svg width="155" height="150" viewBox="0 0 155 150" fill="none" xmlns="http://www.w3.org/2000/svg">
<path d="M67.6368 46.8026C67.5883 44.7257 64.9452 42.3867 60.6781 39.8827C39.3715 27.3789 14.9592 30.3132 0 22.8109C0 22.8109 8.66044 19.9284 14.1925 14.8751C8.83837 7.97783 8.22046 0 8.22046 0C14.5581 4.6877 48.9475 4.01803 70.267 18.5438C74.8674 21.6786 76.0838 23.3609 75.0356 26.2725L67.6401 46.7994L67.6368 46.8026Z" fill="#305494"/>
<g style="mix-blend-mode:multiply" opacity="0.3">
<path d="M67.6368 46.8026C67.5883 44.7257 64.9452 42.3867 60.6781 39.8827C39.3715 27.3789 14.9592 30.3132 0 22.8109C0 22.8109 8.66044 19.9284 14.1925 14.8751C8.83837 7.97783 8.22046 0 8.22046 0C14.5581 4.6877 48.9475 4.01803 70.267 18.5438C74.8674 21.6786 76.0838 23.3609 75.0356 26.2725L67.6401 46.7994L67.6368 46.8026Z" fill="#4975AA"/>
</g>
<path d="M86.7116 103.197C86.7601 105.274 89.4032 107.613 93.6704 110.117C114.977 122.621 144.375 120.314 154.348 127.189C154.348 127.189 145.2 129.56 139.538 135.597C145.044 143.733 146.128 150 146.128 150C140.467 145.814 111.548 145.293 92.0949 135.655C89.7688 134.504 78.3197 128.787 79.3129 123.724L86.7084 103.197H86.7116Z" fill="#305494"/>
<g style="mix-blend-mode:multiply" opacity="0.3">
<path d="M86.7116 103.197C86.7601 105.274 89.4032 107.613 93.6704 110.117C114.977 122.621 144.375 120.314 154.348 127.189C154.348 127.189 145.2 129.56 139.538 135.597C145.044 143.733 146.128 150 146.128 150C140.467 145.814 111.548 145.293 92.0949 135.655C89.7688 134.504 78.3197 128.787 79.3129 123.724L86.7084 103.197H86.7116Z" fill="#4975AA"/>
</g>
<path d="M75.4686 88.4677L75.4815 88.4354C28.7598 71.4089 11.5133 50.1153 13.8297 43.6903L22.2022 20.4524C19.6335 27.5794 41.6485 47.7536 84.4072 63.6543C125.6 79.8105 142.727 100.16 140.514 106.303L132.142 129.541C134.597 122.728 114.585 103.996 75.4686 88.4677Z" fill="#4F74AA"/>
<path d="M96.291 103.142C104.67 107.387 111.739 109.454 117.4 110.758C127.643 118.344 132.751 124.973 132.311 128.774C132.266 128.972 132.246 129.182 132.185 129.366C132.169 129.424 132.162 129.486 132.143 129.541L132.156 129.505C132.156 129.505 132.152 129.531 132.146 129.544C130.687 133.591 123.217 140.802 88.9699 123.449C84.2822 121.075 80.6427 121.456 79.4521 123.339L86.783 102.993C87.9961 101.143 91.6259 100.781 96.2845 103.142H96.291Z" fill="#305494"/>
<path d="M96.291 103.142C104.67 107.387 111.739 109.454 117.4 110.758C127.643 118.344 132.751 124.973 132.311 128.774C132.266 128.972 132.246 129.182 132.185 129.366C132.169 129.424 132.162 129.486 132.143 129.541L132.156 129.505C132.156 129.505 132.152 129.531 132.146 129.544C130.687 133.591 123.217 140.802 88.9699 123.449C84.2822 121.075 80.6427 121.456 79.4521 123.339L86.783 102.993C87.9961 101.143 91.6259 100.781 96.2845 103.142H96.291Z" fill="#3D6493"/>
<path d="M65.3786 26.5509C70.0663 28.9255 73.7058 28.5437 74.8963 26.6609L67.5655 47.0066C66.3524 48.8571 62.7225 49.2194 58.064 46.8578C49.6947 42.6198 42.021 39.9217 36.1945 38.6794C26.4276 31.3097 21.5782 24.8977 22.0343 21.1935C22.0926 20.9509 22.1217 20.6856 22.2026 20.4591C23.6616 16.412 31.1315 9.20087 65.3786 26.5541V26.5509Z" fill="#305494"/>
<path d="M65.3786 26.5509C70.0663 28.9255 73.7058 28.5437 74.8963 26.6609L67.5655 47.0066C66.3524 48.8571 62.7225 49.2194 58.064 46.8578C49.6947 42.6198 42.021 39.9217 36.1945 38.6794C26.4276 31.3097 21.5782 24.8977 22.0343 21.1935C22.0926 20.9509 22.1217 20.6856 22.2026 20.4591C23.6616 16.412 31.1315 9.20087 65.3786 26.5541V26.5509Z" fill="#3D6493"/>
</svg>
