<svg width="121" height="53" viewBox="0 0 121 53" fill="none" xmlns="http://www.w3.org/2000/svg">
<g opacity="0.4" clip-path="url(#clip0_99_2124)">
<path d="M90.3087 48.5084L44.4385 3.08966C43.2142 1.87952 44.0669 -0.120208 45.755 0.00566886L76.0202 2.2829C76.4753 2.31723 76.9074 2.51749 77.2387 2.84363L114.792 40.0289C115.121 40.355 115.325 40.787 115.36 41.2362L115.763 46.3113" fill="#EB4E27"/>
<path d="M5.29492 46.9551L47.809 6.39404L64.1601 22.6322C66.1017 24.5604 68.536 25.9279 71.2006 26.5859L84.6883 29.9188C85.5352 30.099 86.1316 30.8543 86.1056 31.7125L89.044 48.2224C89.0325 48.6401 85.6966 50.5111 85.9558 50.8373" fill="#D4BE8C"/>
<path d="M73.5861 48.211C78.3416 48.211 82.1967 44.3826 82.1967 39.66C82.1967 34.9373 78.3416 31.1089 73.5861 31.1089C68.8307 31.1089 64.9756 34.9373 64.9756 39.66C64.9756 44.3826 68.8307 48.211 73.5861 48.211Z" fill="#F9EDD5"/>
<path d="M59.8845 26.8525L49.2964 13.452C48.6845 12.6776 47.5563 12.5424 46.7765 13.15L41.4416 17.3073C40.6618 17.9149 40.5257 19.0353 41.1375 19.8097L51.7256 33.2102C52.3375 33.9846 53.4657 34.1198 54.2455 33.5122L59.5804 29.355C60.3602 28.7473 60.4963 27.6269 59.8845 26.8525Z" fill="#F9EDD5"/>
<path d="M50.3663 44.546L41.1249 28.65C40.6293 27.7975 39.5317 27.5054 38.6733 27.9976L30.912 32.4476C30.0536 32.9398 29.7595 34.0299 30.255 34.8823L39.4965 50.7784C39.9921 51.6308 41.0897 51.9229 41.9481 51.4307L49.7094 46.9807C50.5678 46.4885 50.8619 45.3985 50.3663 44.546Z" fill="#F9EDD5"/>
<path d="M119.205 45.2759H1.79471C0.803517 45.2759 0 46.0738 0 47.0582V51.2179C0 52.2022 0.803517 53.0002 1.79471 53.0002H119.205C120.196 53.0002 121 52.2022 121 51.2179V47.0582C121 46.0738 120.196 45.2759 119.205 45.2759Z" fill="#C39031"/>
</g>
<defs>
<clipPath id="clip0_99_2124">
<rect width="121" height="53" fill="white"/>
</clipPath>
</defs>
</svg>
