<svg width="194" height="144" viewBox="0 0 194 144" fill="none" xmlns="http://www.w3.org/2000/svg">
<g clip-path="url(#clip0_126_390)">
<path d="M1.18153 40.08L44.6407 0.914286C45.2911 0.325714 46.1412 0 47.0199 0H146.992C147.871 0 148.716 0.325714 149.372 0.914286L192.825 40.0857C195.244 42.2686 193.704 46.2914 190.446 46.2914H3.56074C0.302876 46.2914 -1.23762 42.2686 1.18153 40.0857V40.08Z" fill="#EB4E27"/>
<path d="M129.368 46.2857H178.772L179.439 140.417C179.451 142.394 177.859 144 175.885 144H18.7826C16.8314 144 15.2452 142.423 15.2281 140.469L14.5605 46.2857H65.1745C66.0075 46.2857 66.8119 45.9942 67.451 45.4628L94.9973 22.4742C96.3153 21.3771 98.2267 21.3771 99.5447 22.4742L127.091 45.4628C127.73 45.9942 128.535 46.2857 129.368 46.2857Z" fill="#D4BE8C"/>
<path d="M97.0002 78.7943C106.419 78.7943 114.054 71.1473 114.054 61.7143C114.054 52.2813 106.419 44.6343 97.0002 44.6343C87.5816 44.6343 79.9463 52.2813 79.9463 61.7143C79.9463 71.1473 87.5816 78.7943 97.0002 78.7943Z" fill="#F9EDD5"/>
<path d="M165.336 56.5713H131.365C129.402 56.5713 127.811 58.1652 127.811 60.1313V73.5827C127.811 75.5489 129.402 77.1427 131.365 77.1427H165.336C167.299 77.1427 168.89 75.5489 168.89 73.5827V60.1313C168.89 58.1652 167.299 56.5713 165.336 56.5713Z" fill="#F9EDD5"/>
<path d="M165.336 102.857H131.365C129.402 102.857 127.811 104.451 127.811 106.417V119.868C127.811 121.834 129.402 123.428 131.365 123.428H165.336C167.299 123.428 168.89 121.834 168.89 119.868V106.417C168.89 104.451 167.299 102.857 165.336 102.857Z" fill="#F9EDD5"/>
<path d="M62.6357 56.5713H28.6649C26.7018 56.5713 25.1104 58.1652 25.1104 60.1313V73.5827C25.1104 75.5489 26.7018 77.1427 28.6649 77.1427H62.6357C64.5989 77.1427 66.1903 75.5489 66.1903 73.5827V60.1313C66.1903 58.1652 64.5989 56.5713 62.6357 56.5713Z" fill="#F9EDD5"/>
<path d="M62.6357 102.857H28.6649C26.7018 102.857 25.1104 104.451 25.1104 106.417V119.868C25.1104 121.834 26.7018 123.428 28.6649 123.428H62.6357C64.5989 123.428 66.1903 121.834 66.1903 119.868V106.417C66.1903 104.451 64.5989 102.857 62.6357 102.857Z" fill="#F9EDD5"/>
<path d="M95.545 96H80.0145C78.0518 96 76.46 97.5943 76.46 99.56V144H95.545V96Z" fill="#F9EDD5"/>
<path d="M113.986 96H98.4551V144H117.54V99.56C117.54 97.5943 115.948 96 113.986 96Z" fill="#F9EDD5"/>
</g>
<defs>
<clipPath id="clip0_126_390">
<rect width="194" height="144" fill="white"/>
</clipPath>
</defs>
</svg>
