<svg width="108" height="80" viewBox="0 0 108 80" fill="none" xmlns="http://www.w3.org/2000/svg">
<g clip-path="url(#clip0_269_403)">
<path d="M0.657326 22.2667L24.8511 0.507936C25.2132 0.180952 25.6864 0 26.1756 0H81.8304C82.3196 0 82.7897 0.180952 83.155 0.507936L107.346 22.2698C108.692 23.4825 107.835 25.7175 106.021 25.7175H1.98184C0.168178 25.7175 -0.689418 23.4825 0.657326 22.2698V22.2667Z" fill="#EB4E27"/>
<path d="M72.0187 25.7143H99.5221L99.8937 78.0095C99.9001 79.1079 99.0139 80 97.9149 80H10.4559C9.36963 80 8.48662 79.1238 8.47709 78.0381L8.10547 25.7143H36.2823C36.746 25.7143 37.1939 25.5524 37.5496 25.2571L52.8847 12.4857C53.6184 11.8762 54.6825 11.8762 55.4162 12.4857L70.7513 25.2571C71.1071 25.5524 71.5549 25.7143 72.0187 25.7143Z" fill="#D4BE8C"/>
<path d="M19.4871 70V54.6H29.1891V56.888H21.8631V67.712H29.1891V70H19.4871ZM20.5651 63.246V60.958H27.9791V63.246H20.5651ZM23.0291 53.39L22.4131 52.246L26.4391 49.76L27.4731 51.74L23.0291 53.39ZM39.2487 70.22C38.1781 70.22 37.1954 70.0293 36.3007 69.648C35.4061 69.2667 34.6287 68.724 33.9687 68.02C33.3087 67.3013 32.7954 66.458 32.4287 65.49C32.0767 64.522 31.9007 63.4587 31.9007 62.3C31.9007 61.2 32.0914 60.1807 32.4727 59.242C32.8687 58.2887 33.4114 57.4527 34.1007 56.734C34.7901 56.0153 35.5894 55.458 36.4987 55.062C37.4081 54.666 38.3907 54.468 39.4467 54.468C40.1947 54.468 40.9207 54.5853 41.6247 54.82C42.3434 55.04 42.9887 55.3553 43.5607 55.766C44.1474 56.162 44.6241 56.6167 44.9907 57.13L43.4067 58.78C42.9814 58.3547 42.5487 58.0027 42.1087 57.724C41.6834 57.4307 41.2434 57.2107 40.7887 57.064C40.3487 56.9173 39.9014 56.844 39.4467 56.844C38.7281 56.844 38.0534 56.9833 37.4227 57.262C36.8067 57.526 36.2641 57.9 35.7947 58.384C35.3401 58.868 34.9807 59.4473 34.7167 60.122C34.4527 60.782 34.3207 61.508 34.3207 62.3C34.3207 63.136 34.4454 63.8987 34.6947 64.588C34.9587 65.2627 35.3254 65.842 35.7947 66.326C36.2641 66.81 36.8214 67.184 37.4667 67.448C38.1267 67.6973 38.8527 67.822 39.6447 67.822C40.1287 67.822 40.6054 67.756 41.0747 67.624C41.5441 67.492 41.9841 67.3013 42.3947 67.052C42.8054 66.8027 43.1794 66.5093 43.5167 66.172L44.7047 68.108C44.3674 68.504 43.9054 68.8633 43.3187 69.186C42.7467 69.5087 42.1014 69.7653 41.3827 69.956C40.6787 70.132 39.9674 70.22 39.2487 70.22ZM54.3784 70.22C53.293 70.22 52.2884 70.022 51.3644 69.626C50.455 69.23 49.6557 68.68 48.9664 67.976C48.2917 67.2573 47.7637 66.4213 47.3824 65.468C47.0157 64.5 46.8324 63.444 46.8324 62.3C46.8324 61.156 47.0157 60.1073 47.3824 59.154C47.7637 58.186 48.2917 57.35 48.9664 56.646C49.6557 55.9273 50.455 55.37 51.3644 54.974C52.2884 54.578 53.293 54.38 54.3784 54.38C55.4637 54.38 56.461 54.578 57.3704 54.974C58.2944 55.37 59.0937 55.9273 59.7684 56.646C60.4577 57.3647 60.9857 58.208 61.3524 59.176C61.7337 60.1293 61.9244 61.1707 61.9244 62.3C61.9244 63.4293 61.7337 64.478 61.3524 65.446C60.9857 66.3993 60.4577 67.2353 59.7684 67.954C59.0937 68.6727 58.2944 69.23 57.3704 69.626C56.461 70.022 55.4637 70.22 54.3784 70.22ZM54.3784 67.91C55.1264 67.91 55.8084 67.7707 56.4244 67.492C57.055 67.2133 57.5977 66.8247 58.0524 66.326C58.507 65.8127 58.859 65.2187 59.1084 64.544C59.3724 63.8547 59.5044 63.1067 59.5044 62.3C59.5044 61.4933 59.3724 60.7527 59.1084 60.078C58.859 59.3887 58.507 58.7947 58.0524 58.296C57.5977 57.7827 57.055 57.3867 56.4244 57.108C55.8084 56.8293 55.1264 56.69 54.3784 56.69C53.6304 56.69 52.941 56.8293 52.3104 57.108C51.6944 57.3867 51.1517 57.7753 50.6824 58.274C50.2277 58.7727 49.8757 59.3667 49.6264 60.056C49.377 60.7307 49.2524 61.4787 49.2524 62.3C49.2524 63.1067 49.377 63.8547 49.6264 64.544C49.8757 65.2333 50.2277 65.8273 50.6824 66.326C51.1517 66.8247 51.6944 67.2133 52.3104 67.492C52.941 67.7707 53.6304 67.91 54.3784 67.91ZM65.1414 70V54.6H67.5174V67.712H74.7334V70H65.1414ZM78.3113 70V54.6H88.0133V56.888H80.6873V67.712H88.0133V70H78.3113ZM79.3893 63.246V60.958H86.8033V63.246H79.3893Z" fill="#4F4634"/>
<path d="M53.9998 43.7747C59.2431 43.7747 63.4937 39.5263 63.4937 34.2858C63.4937 29.0452 59.2431 24.7969 53.9998 24.7969C48.7564 24.7969 44.5059 29.0452 44.5059 34.2858C44.5059 39.5263 48.7564 43.7747 53.9998 43.7747Z" fill="#F9EDD5"/>
<path d="M92.0418 31.4287H73.1302C72.0373 31.4287 71.1514 32.3142 71.1514 33.4065V40.8795C71.1514 41.9718 72.0373 42.8573 73.1302 42.8573H92.0418C93.1347 42.8573 94.0206 41.9718 94.0206 40.8795V33.4065C94.0206 32.3142 93.1347 31.4287 92.0418 31.4287Z" fill="#F9EDD5"/>
<path d="M34.8689 31.4287H15.9573C14.8645 31.4287 13.9785 32.3142 13.9785 33.4065V40.8795C13.9785 41.9718 14.8645 42.8573 15.9573 42.8573H34.8689C35.9618 42.8573 36.8478 41.9718 36.8478 40.8795V33.4065C36.8478 32.3142 35.9618 31.4287 34.8689 31.4287Z" fill="#F9EDD5"/>
</g>
<defs>
<clipPath id="clip0_269_403">
<rect width="108" height="80" fill="white"/>
</clipPath>
</defs>
</svg>
