<svg width="23" height="23" viewBox="0 0 23 23" fill="none" xmlns="http://www.w3.org/2000/svg">
<g clip-path="url(#clip0_343_366)">
<path d="M11.5 0C5.159 0 0 5.159 0 11.5C0 17.841 5.15857 23 11.5 23C17.8414 23 23 17.841 23 11.5C23 5.159 17.8414 0 11.5 0ZM11.5 21.716C5.86673 21.716 1.28402 17.1333 1.28402 11.5C1.28402 5.86673 5.86716 1.28402 11.5 1.28402C17.1328 1.28402 21.716 5.86673 21.716 11.5C21.716 17.1333 17.1328 21.716 11.5 21.716Z" fill="#A54F00"/>
<path d="M12.1424 11.2341V4.66356C12.1424 4.30905 11.8554 4.02155 11.5004 4.02155C11.1455 4.02155 10.8584 4.30905 10.8584 4.66356V11.5C10.8584 11.6703 10.9258 11.8333 11.0465 11.954L14.6659 15.5734C14.7913 15.6988 14.9556 15.7615 15.1199 15.7615C15.2842 15.7615 15.4485 15.6988 15.5738 15.5734C15.8246 15.3227 15.8246 14.9163 15.5738 14.6655L12.1424 11.2341Z" fill="#A54F00"/>
</g>
<defs>
<clipPath id="clip0_343_366">
<rect width="23" height="23" fill="white"/>
</clipPath>
</defs>
</svg>
