<svg width="212" height="172" viewBox="0 0 212 172" fill="none" xmlns="http://www.w3.org/2000/svg">
<g clip-path="url(#clip0_110_209)">
<path d="M11.3472 139.873C11.3472 139.873 29.2408 139.54 37.6838 134.152C46.1171 128.765 46.9845 132.312 47.1151 133.302C47.5384 136.542 34.406 144.637 11.3568 139.87L11.3472 139.873Z" fill="#62A9BF"/>
<path d="M44.3002 125.308C44.3002 125.308 66.1312 116.062 61.006 93.7279C59.5614 87.4478 55.875 84.3151 55.2238 83.8167C54.2876 83.1047 47.8228 78.7599 52.4034 74.4888C56.9841 70.2177 64.7316 77.9976 66.6513 83.9641C68.3918 89.378 73.649 115.373 44.3028 125.317L44.3002 125.308Z" fill="#99E6F3"/>
<path d="M47.2999 52.5833C47.2999 52.5833 32.475 53.9364 33.891 66.4461C34.5485 72.2228 38.0673 72.0253 37.2711 75.7379C36.4748 79.4505 28.0276 81.2688 23.1745 74.8253C18.3215 68.3818 20.5767 49.0183 47.2877 52.5762L47.2999 52.5833Z" fill="#83CCDD"/>
<path d="M37.2591 32.3423C37.2591 32.3423 27.1819 13.9746 8.85006 23.8767C-0.445553 28.9038 9.54424 32.8425 15.2594 30.8349C20.9745 28.8273 28.9313 26.8402 37.2617 32.352L37.2591 32.3423Z" fill="#62A9BF"/>
<path d="M64.9816 47.4417C64.9816 47.4417 64.2545 36.8075 55.1755 37.1179C46.0965 37.4283 63.4361 42.9486 64.9816 47.4417Z" fill="#99E6F3"/>
<path d="M87.9451 37.7068C87.9451 37.7068 89.216 31.2064 85.5277 28.6851C81.8395 26.1637 83.5178 31.1907 85.0631 32.785C86.6084 34.3794 87.7521 35.7501 87.9451 37.7068Z" fill="#62A9BF"/>
<path d="M113.565 38.6996C113.565 38.6996 125.213 22.5547 108.795 10.3483C101.725 5.09911 94.3202 9.18484 92.717 10.9292C90.0518 13.8485 90.2017 21.7489 98.0855 23.3531C105.962 24.9695 113.274 27.6069 113.565 38.6996Z" fill="#99E6F3"/>
<path d="M143.686 59.8544C143.686 59.8544 149.425 57.0848 149.088 52.9304C148.761 48.7734 143.686 59.8544 143.686 59.8544Z" fill="#62A9BF"/>
<path d="M82.017 96.0281C82.017 96.0281 91.2593 80.911 85.9948 68.7594C82.043 59.6519 77.0522 60.3059 80.4695 69.5049C83.8868 78.7039 85.1295 86.8188 82.017 96.0281Z" fill="#83CCDD"/>
<path d="M25.3032 145.979C25.3032 145.979 76.2917 134.315 89.9769 104.29C103.662 74.2644 113.014 70.8373 120.991 76.4229C128.969 82.0085 121.606 99.5416 118.496 105.437C115.386 111.333 115.243 118.297 120.17 115.859C125.097 113.421 129.637 102.856 140.8 101.977C151.951 101.091 151.314 109.533 154.111 114.136C156.91 118.749 162.756 117.772 170.286 111.137C177.815 104.503 201.47 100.173 196.88 106.765C186.284 122.007 111.759 151.428 25.3128 145.976L25.3032 145.979Z" fill="#99E6F3"/>
<path d="M40.7998 152.231C40.7998 152.231 63.0039 173.24 101.071 164.314C139.128 155.39 118.225 171.385 107.455 173.846C96.6951 176.305 56.0819 173.873 40.7998 152.231Z" fill="#83CCDD"/>
<path d="M41.7206 144.002C41.7206 144.002 84.5842 132.269 96.5767 96.9305C100.566 85.1982 109.305 90.1864 107.764 98.923C105.101 114.099 99.4211 121.533 101.638 126.405C110.719 146.427 138.584 102.477 147.537 105.483C154.816 107.922 153.686 123.526 144.868 127.824C136.06 132.121 89.7345 145.424 41.7109 144.005L41.7206 144.002Z" fill="#9FEEF7"/>
<path d="M121.477 138.513C121.477 138.513 135.098 133.321 140.064 123.418C145.058 113.466 146.05 105.384 155.339 105.701C164.627 106.017 161.937 130.208 121.477 138.513Z" fill="#75BDD3"/>
<path d="M145.266 129.271C145.266 129.271 171.146 114.427 174.581 103.216C176.37 97.3736 174.875 91.4072 180.519 90.7956C186.161 90.1744 189.308 108.991 145.269 129.28L145.266 129.271Z" fill="#75BDD3"/>
<path d="M169.117 122C169.117 122 185.709 112.637 191.002 105.307C196.293 97.9674 200.63 100.439 201.009 102.625C201.356 104.655 200.155 111.996 169.127 121.997L169.117 122Z" fill="#75BDD3"/>
<path d="M205.05 87.4527C205.05 87.4527 206.831 86.6028 207.773 82.6234C208.715 78.644 210.648 78.0535 212.353 78.0418C214.058 78.0301 214.352 84.6498 205.048 87.443L205.05 87.4527Z" fill="#75BDD3"/>
</g>
<defs>
<clipPath id="clip0_110_209">
<rect width="210.75" height="171.13" fill="white" transform="translate(0.54541 0.119629)"/>
</clipPath>
</defs>
</svg>
