<svg width="75" height="56" viewBox="0 0 75 56" fill="none" xmlns="http://www.w3.org/2000/svg">
<g clip-path="url(#clip0_287_349)">
<path d="M23.2853 51.4369C10.443 51.4369 0 41.0831 0 28.3556C0 15.628 10.443 5.26904 23.2853 5.26904C36.1275 5.26904 46.5706 15.6229 46.5706 28.3556C46.5706 41.0882 36.1275 51.4421 23.2853 51.4421V51.4369ZM23.2853 10.3744C13.286 10.3744 5.14928 18.4416 5.14928 28.3556C5.14928 38.2695 13.286 46.3367 23.2853 46.3367C33.2846 46.3367 41.4213 38.2695 41.4213 28.3556C41.4213 18.4416 33.2846 10.3744 23.2853 10.3744Z" fill="#E2DDC7"/>
<path d="M51.7143 13.0344L61.9407 3.25349L58.0349 0H45.399L41.4932 3.25349L51.7143 13.0344Z" fill="#C993B4"/>
<path d="M51.715 56C38.8779 56 28.4297 45.6462 28.4297 32.9135C28.4297 20.1809 38.8727 9.82703 51.715 9.82703C64.5572 9.82703 75.0003 20.1809 75.0003 32.9135C75.0003 45.6462 64.5572 56 51.715 56ZM51.715 14.9375C41.7157 14.9375 33.579 23.0047 33.579 32.9186C33.579 42.8326 41.7157 50.8998 51.715 50.8998C61.7143 50.8998 69.851 42.8326 69.851 32.9186C69.851 23.0047 61.7143 14.9375 51.715 14.9375Z" fill="#DDCE8E"/>
</g>
<defs>
<clipPath id="clip0_287_349">
<rect width="75" height="56" fill="white"/>
</clipPath>
</defs>
</svg>
