<svg width="85" height="84" viewBox="0 0 85 84" fill="none" xmlns="http://www.w3.org/2000/svg">
<circle cx="42.5" cy="42" r="42" fill="#FF6948"/>
<circle cx="42.5" cy="42" r="42" fill="#FF6948"/>
<circle cx="42.5" cy="42" r="42" fill="#FF6948"/>
<path d="M59.653 40.0859C58.2322 40.0859 56.8793 40.3857 55.6549 40.9258L51.7633 33.9994C51.7205 33.9231 51.6672 33.8552 51.6066 33.7936L53.0347 29.9657H56.1156C56.6536 29.9657 57.0913 29.528 57.0913 28.99C57.0913 28.452 56.6536 28.0142 56.1156 28.0142H52.3546C52.3421 28.0142 52.3306 28.0142 52.318 28.0142H50.0333C49.4952 28.0142 49.0575 28.452 49.0575 28.99C49.0575 29.528 49.4952 29.9657 50.0333 29.9657H50.9526L49.6937 33.3423L34.7794 31.4931L35.7917 28.897C36.0424 28.2545 35.9599 27.5305 35.5702 26.9622C35.1805 26.3928 34.537 26.0522 33.8475 26.0522H28.7378C27.9072 26.0522 27.1248 26.3761 26.5366 26.9643C25.9484 27.5525 25.6245 28.3339 25.6245 29.1665C25.6245 30.883 27.0203 32.2798 28.7368 32.2798H29.5569C30.0949 32.2798 30.5326 31.8421 30.5326 31.304C30.5326 30.8141 30.1701 30.4077 29.7 30.3387V30.3283H28.7368C28.0963 30.3283 27.5761 29.8069 27.5761 29.1655C27.5761 28.8552 27.6962 28.5637 27.9156 28.3443C28.1319 28.1281 28.4306 28.0038 28.7368 28.0038H33.8464C33.8914 28.0038 33.9332 28.0257 33.9582 28.0623C33.9833 28.0999 33.9885 28.1469 33.9729 28.1876L29.1902 40.4547C28.3345 40.2144 27.4329 40.0859 26.5021 40.0859C21.0153 40.0859 16.5522 44.5479 16.5522 50.0337C16.5522 55.5195 21.0153 59.9825 26.5011 59.9825C31.9869 59.9825 36.4499 55.5195 36.4499 50.0337C36.4499 46.1693 34.234 42.8116 31.0069 41.1651L32.622 37.0228L43.4422 50.1005L42.2125 53.3987H40.961C40.4229 53.3987 39.9852 53.8364 39.9852 54.3745C39.9852 54.9125 40.4229 55.3502 40.961 55.3502H42.8592C42.8696 55.3502 42.8801 55.3513 42.8905 55.3513C42.8989 55.3513 42.9073 55.3502 42.9167 55.3502H45.1973C45.7353 55.3502 46.173 54.9125 46.173 54.3745C46.173 53.8364 45.7353 53.3987 45.1973 53.3987H44.2967L45.2307 50.8945L49.748 50.93C50.2035 55.9969 54.4722 59.9814 59.6551 59.9814C65.1409 59.9814 69.6039 55.5184 69.6039 50.0326C69.6039 44.5468 65.1409 40.0838 59.6551 40.0838L59.653 40.0859ZM33.9927 33.5073L34.046 33.3705L48.9906 35.2238L44.2278 47.9933L33.4327 34.9449L33.9927 33.5084V33.5073ZM50.7301 36.1463L53.9541 41.8849C51.6578 43.4958 50.0698 46.0502 49.7606 48.9806L45.9547 48.9503L50.7301 36.1463ZM54.9163 43.5961L57.8634 48.8416C57.8864 48.8834 57.8864 48.9357 57.8613 48.9775C57.8373 49.0182 57.7955 49.0412 57.7443 49.0433L51.7257 48.9952C52.014 46.7867 53.204 44.8592 54.9163 43.5961ZM57.7297 50.9948C57.7349 50.9948 57.7412 50.9948 57.7464 50.9948C58.4808 50.9948 59.1682 50.603 59.5433 49.9689C59.9204 49.3306 59.9288 48.5324 59.5652 47.8857L56.617 42.6371C57.5542 42.2516 58.579 42.0374 59.653 42.0374C64.0627 42.0374 67.6492 45.625 67.6492 50.0337C67.6492 54.4424 64.0617 58.031 59.653 58.031C55.5525 58.031 52.1645 54.9282 51.71 50.9478L57.7297 50.9958V50.9948ZM25.5922 49.6795C25.3968 50.181 25.6454 50.7483 26.1469 50.9436C26.2629 50.9885 26.382 51.0094 26.5 51.0094C26.8907 51.0094 27.2606 50.7733 27.411 50.3878L30.2934 42.9944C32.7944 44.3473 34.4984 46.9946 34.4984 50.0326C34.4984 54.4424 30.9108 58.0299 26.5011 58.0299C22.0913 58.0299 18.5038 54.4434 18.5038 50.0337C18.5038 45.6239 22.0913 42.0374 26.5 42.0374C27.1812 42.0374 27.8425 42.1231 28.4745 42.285L25.5911 49.6806L25.5922 49.6795Z" fill="white"/>
<path d="M59.653 60.0347C57.1436 60.0347 54.7418 59.0976 52.8905 57.3958C51.0623 55.7148 49.9298 53.4394 49.6979 50.9833L45.2652 50.9478L44.3698 53.3464H45.1952C45.7625 53.3464 46.2232 53.8082 46.2232 54.3744C46.2232 54.9407 45.7625 55.4024 45.1952 55.4024H42.9146C42.8853 55.4045 42.8801 55.4035 42.8665 55.4024H40.9589C40.3916 55.4024 39.9309 54.9407 39.9309 54.3734C39.9309 53.8061 40.3926 53.3454 40.9589 53.3454H42.1749L43.3815 50.1099L32.6377 37.1231L31.0717 41.139C34.4221 42.8669 36.5011 46.2706 36.5011 50.0316C36.5011 55.5456 32.0151 60.0326 26.5 60.0326C20.985 60.0326 16.5 55.5487 16.5 50.0337C16.5 44.5186 20.986 40.0326 26.5011 40.0326C27.4016 40.0326 28.2948 40.1527 29.1578 40.3909L33.9227 28.1688C33.9331 28.1438 33.929 28.1145 33.9133 28.0915C33.8976 28.0696 33.8726 28.056 33.8443 28.056H28.7346C28.4432 28.056 28.1569 28.1741 27.9501 28.3809C27.7411 28.5898 27.6252 28.8688 27.6252 29.1644C27.6252 29.7766 28.1224 30.275 28.7336 30.275H29.7491V30.2938C30.2275 30.3857 30.5817 30.812 30.5817 31.303C30.5817 31.8703 30.1199 32.331 29.5537 32.331H28.7336C26.9889 32.331 25.5692 30.9112 25.5692 29.1655C25.5692 28.3193 25.8983 27.5242 26.4958 26.9267C27.0955 26.3291 27.8905 26 28.7357 26H33.8454C34.5527 26 35.2129 26.3489 35.612 26.9329C36.0111 27.5159 36.0957 28.2576 35.8387 28.9168L34.8515 31.4503L49.6582 33.2858L50.8763 30.019H50.0322C49.4649 30.019 49.0042 29.5583 49.0042 28.991C49.0042 28.4237 49.4649 27.963 50.0322 27.963H52.317C52.3233 27.963 52.3327 27.963 52.341 27.963H56.1145C56.6818 27.963 57.1425 28.4248 57.1425 28.991C57.1425 29.5573 56.6808 30.019 56.1145 30.019H53.0702L51.6672 33.7821C51.7236 33.8427 51.7706 33.9064 51.8082 33.9743L55.6757 40.86C56.9336 40.3126 58.2708 40.0347 59.6509 40.0347C65.1649 40.0347 69.6519 44.5207 69.6519 50.0357C69.6519 55.5508 65.1659 60.0368 59.6509 60.0368L59.653 60.0347ZM45.192 50.8433L49.793 50.8799L49.7971 50.9269C50.0165 53.3747 51.1406 55.6448 52.9616 57.3184C54.793 59.0025 57.1697 59.9302 59.653 59.9302C65.1095 59.9302 69.5496 55.4912 69.5496 50.0337C69.5496 44.5761 65.1106 40.1371 59.653 40.1371C58.2719 40.1371 56.9336 40.4181 55.6768 40.9718L55.6329 40.9906L51.7184 34.0224C51.6797 33.9545 51.6306 33.8886 51.57 33.828L51.547 33.804L52.9992 29.9114H56.1156C56.6254 29.9114 57.0391 29.4967 57.0391 28.9879C57.0391 28.4791 56.6243 28.0644 56.1156 28.0644H52.34C52.3337 28.0644 52.3264 28.0644 52.3191 28.0644H50.0322C49.5224 28.0644 49.1087 28.4791 49.1087 28.9879C49.1087 29.4967 49.5234 29.9114 50.0322 29.9114H51.0268L49.7271 33.3966L49.6864 33.3914L34.7052 31.5339L35.7415 28.8761C35.986 28.2493 35.9056 27.5441 35.5263 26.9893C35.1471 26.4336 34.5192 26.1024 33.8464 26.1024H28.7367C27.9198 26.1024 27.1509 26.421 26.5731 26.9987C25.9954 27.5765 25.6768 28.3464 25.6768 29.1644C25.6768 30.8517 27.0495 32.2255 28.7367 32.2255H29.5568C30.0667 32.2255 30.4804 31.8107 30.4804 31.3019C30.4804 30.8475 30.1419 30.4547 29.6916 30.3878L29.6467 30.3774H28.7357C28.0671 30.3774 27.5228 29.832 27.5228 29.1624C27.5228 28.8385 27.6492 28.5334 27.878 28.3046C28.1036 28.079 28.4171 27.9494 28.7357 27.9494H33.8454C33.9081 27.9494 33.9655 27.9797 34 28.0309C34.0355 28.0821 34.0428 28.1479 34.0199 28.2054L29.2194 40.5163L29.1734 40.5038C28.3063 40.2604 27.4068 40.136 26.5 40.136C21.0435 40.1381 16.6045 44.5771 16.6045 50.0337C16.6045 55.4902 21.0435 59.9302 26.5011 59.9302C31.9586 59.9302 36.3976 55.4912 36.3976 50.0337C36.3976 46.2957 34.3228 42.916 30.9839 41.2121L30.9421 41.1901L32.6064 36.9214L43.5017 50.0911L42.248 53.4509H40.9599C40.4501 53.4509 40.0364 53.8657 40.0364 54.3744C40.0364 54.8832 40.4511 55.298 40.9599 55.298H45.1952C45.705 55.298 46.1187 54.8832 46.1187 54.3744C46.1187 53.8657 45.7039 53.4509 45.1952 53.4509H44.2194L45.192 50.8423V50.8433ZM59.653 58.0832C55.5598 58.0832 52.1227 55.018 51.6578 50.953L51.6515 50.8945L57.7391 50.9426C58.463 50.9426 59.1348 50.5591 59.4994 49.9428C59.8671 49.3201 59.8745 48.5418 59.5203 47.9118L56.5429 42.612L56.5972 42.589C57.5698 42.1878 58.5989 41.9852 59.653 41.9852C64.0909 41.9852 67.7015 45.5957 67.7015 50.0337C67.7015 54.4716 64.0909 58.0832 59.653 58.0832ZM51.7685 51C52.2533 54.9825 55.6319 57.9787 59.653 57.9787C64.0335 57.9787 67.597 54.4152 67.597 50.0337C67.597 45.6521 64.0335 42.0896 59.653 42.0896C58.6323 42.0896 57.6356 42.2829 56.6923 42.6632L59.6122 47.8596C59.9841 48.522 59.9758 49.34 59.5892 49.995C59.2058 50.6438 58.4996 51.046 57.7474 51.046H57.7307L51.7696 50.999L51.7685 51ZM26.5011 58.0832C22.0631 58.0832 18.4526 54.4726 18.4526 50.0337C18.4526 45.5947 22.0631 41.9852 26.5011 41.9852C27.1718 41.9852 27.8404 42.0688 28.4881 42.2338L28.5456 42.2484L25.6402 49.6983C25.4553 50.1726 25.6904 50.7096 26.1647 50.8945C26.2723 50.9363 26.384 50.9572 26.4979 50.9572C26.8761 50.9572 27.2229 50.7211 27.3609 50.369L30.2652 42.9202L30.3174 42.9484C32.9281 44.3609 34.5495 47.075 34.5495 50.0326C34.5495 54.4706 30.939 58.0821 26.5 58.0821L26.5011 58.0832ZM26.5011 42.0896C22.1206 42.0896 18.557 45.6532 18.557 50.0337C18.557 54.4141 22.1206 57.9787 26.5011 57.9787C30.8815 57.9787 34.4461 54.4152 34.4461 50.0337C34.4461 47.1335 32.8675 44.4716 30.3205 43.0696L27.4591 50.4077C27.3065 50.7994 26.92 51.0627 26.499 51.0627C26.3715 51.0627 26.2472 51.0387 26.127 50.9927C25.5995 50.7859 25.3372 50.1893 25.543 49.6607L28.4045 42.3205C27.7829 42.167 27.1425 42.0896 26.5 42.0896H26.5011ZM57.7464 49.0955L51.6661 49.0474L51.6734 48.9889C51.9545 46.8337 53.1246 44.8529 54.8849 43.5543L54.933 43.5188L57.9093 48.8155C57.9417 48.874 57.9407 48.9461 57.9062 49.0036C57.8738 49.0589 57.8153 49.0924 57.7464 49.0945V49.0955ZM51.7852 48.944L57.7453 48.991C57.7756 48.991 57.8017 48.9764 57.8164 48.9513C57.832 48.9252 57.8331 48.8939 57.8174 48.8678L54.8995 43.6745C53.205 44.9449 52.0736 46.8588 51.7852 48.9451V48.944ZM49.8076 49.0328L45.8795 49.0015L45.9056 48.9315L50.7207 36.0219L54.023 41.8995L53.9844 41.9267C51.6327 43.5752 50.1126 46.1484 49.8128 48.9848L49.8076 49.0318V49.0328ZM46.0299 48.8981L49.7146 48.9273C50.028 46.0951 51.546 43.5272 53.8861 41.8692L50.7405 36.2695L46.0299 48.8981ZM44.2466 48.0957L33.3742 34.9542L34.0136 33.313L49.0637 35.1789L44.2455 48.0957H44.2466ZM33.4933 34.9344L44.211 47.8899L48.9196 35.2666L34.0805 33.4269L33.4923 34.9344H33.4933Z" fill="white"/>
<path d="M59.653 60.0347C57.1436 60.0347 54.7418 59.0976 52.8905 57.3958C51.0623 55.7148 49.9298 53.4394 49.6979 50.9833L45.2652 50.9478L44.3698 53.3464H45.1952C45.7625 53.3464 46.2232 53.8082 46.2232 54.3744C46.2232 54.9407 45.7625 55.4024 45.1952 55.4024H42.9146C42.8853 55.4045 42.8801 55.4035 42.8665 55.4024H40.9589C40.3916 55.4024 39.9309 54.9407 39.9309 54.3734C39.9309 53.8061 40.3926 53.3454 40.9589 53.3454H42.1749L43.3815 50.1099L32.6377 37.1231L31.0717 41.139C34.4221 42.8669 36.5011 46.2706 36.5011 50.0316C36.5011 55.5456 32.0151 60.0326 26.5 60.0326C20.985 60.0326 16.5 55.5487 16.5 50.0337C16.5 44.5186 20.986 40.0326 26.5011 40.0326C27.4016 40.0326 28.2948 40.1527 29.1578 40.3909L33.9227 28.1688C33.9331 28.1438 33.929 28.1145 33.9133 28.0915C33.8976 28.0696 33.8726 28.056 33.8443 28.056H28.7347C28.4432 28.056 28.1569 28.1741 27.9501 28.3809C27.7411 28.5898 27.6252 28.8688 27.6252 29.1644C27.6252 29.7766 28.1224 30.275 28.7336 30.275H29.7491V30.2938C30.2275 30.3857 30.5817 30.812 30.5817 31.303C30.5817 31.8703 30.1199 32.331 29.5537 32.331H28.7336C26.9889 32.331 25.5692 30.9112 25.5692 29.1655C25.5692 28.3193 25.8983 27.5242 26.4958 26.9267C27.0955 26.3291 27.8905 26 28.7357 26H33.8454C34.5527 26 35.2129 26.3489 35.612 26.9329C36.0111 27.5159 36.0957 28.2576 35.8387 28.9168L34.8515 31.4503L49.6582 33.2858L50.8763 30.019H50.0322C49.4649 30.019 49.0042 29.5583 49.0042 28.991C49.0042 28.4237 49.4649 27.963 50.0322 27.963H52.317C52.3233 27.963 52.3327 27.963 52.341 27.963H56.1145C56.6818 27.963 57.1425 28.4248 57.1425 28.991C57.1425 29.5573 56.6808 30.019 56.1145 30.019H53.0702L51.6672 33.7821C51.7236 33.8427 51.7706 33.9064 51.8082 33.9743L55.6757 40.86C56.9336 40.3126 58.2708 40.0347 59.6509 40.0347C65.1649 40.0347 69.6519 44.5207 69.6519 50.0357C69.6519 55.5508 65.1659 60.0368 59.6509 60.0368L59.653 60.0347ZM45.192 50.8433L49.793 50.8799L49.7971 50.9269C50.0165 53.3747 51.1406 55.6448 52.9616 57.3184C54.793 59.0025 57.1697 59.9302 59.653 59.9302C65.1095 59.9302 69.5496 55.4912 69.5496 50.0337C69.5496 44.5761 65.1106 40.1371 59.653 40.1371C58.2719 40.1371 56.9336 40.4181 55.6768 40.9718L55.6329 40.9906L51.7184 34.0224C51.6797 33.9545 51.6306 33.8886 51.57 33.828L51.547 33.804L52.9992 29.9114H56.1156C56.6254 29.9114 57.0391 29.4967 57.0391 28.9879C57.0391 28.4791 56.6243 28.0644 56.1156 28.0644H52.34C52.3337 28.0644 52.3264 28.0644 52.3191 28.0644H50.0322C49.5224 28.0644 49.1087 28.4791 49.1087 28.9879C49.1087 29.4967 49.5234 29.9114 50.0322 29.9114H51.0268L49.7271 33.3966L49.6864 33.3914L34.7052 31.5339L35.7415 28.8761C35.986 28.2493 35.9056 27.5441 35.5263 26.9893C35.1471 26.4336 34.5192 26.1024 33.8464 26.1024H28.7367C27.9198 26.1024 27.1509 26.421 26.5731 26.9987C25.9954 27.5765 25.6768 28.3464 25.6768 29.1644C25.6768 30.8517 27.0495 32.2255 28.7367 32.2255H29.5568C30.0667 32.2255 30.4804 31.8107 30.4804 31.3019C30.4804 30.8475 30.1419 30.4547 29.6916 30.3878L29.6467 30.3774H28.7357C28.0671 30.3774 27.5228 29.832 27.5228 29.1624C27.5228 28.8385 27.6492 28.5334 27.878 28.3046C28.1036 28.079 28.4171 27.9494 28.7357 27.9494H33.8454C33.9081 27.9494 33.9655 27.9797 34 28.0309C34.0355 28.0821 34.0428 28.1479 34.0199 28.2054L29.2194 40.5163L29.1734 40.5038C28.3063 40.2604 27.4068 40.136 26.5 40.136C21.0435 40.1381 16.6045 44.5771 16.6045 50.0337C16.6045 55.4902 21.0435 59.9302 26.5011 59.9302C31.9586 59.9302 36.3976 55.4912 36.3976 50.0337C36.3976 46.2957 34.3228 42.916 30.9839 41.2121L30.9421 41.1901L32.6064 36.9214L43.5017 50.0911L42.248 53.4509H40.9599C40.4501 53.4509 40.0364 53.8657 40.0364 54.3744C40.0364 54.8832 40.4511 55.298 40.9599 55.298H45.1952C45.705 55.298 46.1187 54.8832 46.1187 54.3744C46.1187 53.8657 45.7039 53.4509 45.1952 53.4509H44.2194L45.192 50.8423V50.8433ZM59.653 58.0832C55.5598 58.0832 52.1227 55.018 51.6578 50.953L51.6515 50.8945L57.7391 50.9426C58.463 50.9426 59.1348 50.5591 59.4994 49.9428C59.8671 49.3201 59.8745 48.5418 59.5203 47.9118L56.5429 42.612L56.5972 42.589C57.5698 42.1878 58.5989 41.9852 59.653 41.9852C64.0909 41.9852 67.7015 45.5957 67.7015 50.0337C67.7015 54.4716 64.0909 58.0832 59.653 58.0832V58.0832ZM51.7685 51C52.2533 54.9825 55.6319 57.9787 59.653 57.9787C64.0335 57.9787 67.597 54.4152 67.597 50.0337C67.597 45.6521 64.0335 42.0896 59.653 42.0896C58.6323 42.0896 57.6356 42.2829 56.6923 42.6632L59.6122 47.8596C59.9841 48.522 59.9758 49.34 59.5892 49.995C59.2058 50.6438 58.4996 51.046 57.7474 51.046H57.7307L51.7696 50.999L51.7685 51ZM26.5011 58.0832C22.0631 58.0832 18.4526 54.4726 18.4526 50.0337C18.4526 45.5947 22.0631 41.9852 26.5011 41.9852C27.1718 41.9852 27.8404 42.0688 28.4881 42.2338L28.5456 42.2484L25.6402 49.6983C25.4553 50.1726 25.6904 50.7096 26.1647 50.8945C26.2723 50.9363 26.384 50.9572 26.4979 50.9572C26.8761 50.9572 27.2229 50.7211 27.3609 50.369L30.2652 42.9202L30.3174 42.9484C32.9281 44.3609 34.5495 47.075 34.5495 50.0326C34.5495 54.4706 30.939 58.0821 26.5 58.0821L26.5011 58.0832ZM26.5011 42.0896C22.1206 42.0896 18.557 45.6532 18.557 50.0337C18.557 54.4141 22.1206 57.9787 26.5011 57.9787C30.8815 57.9787 34.4461 54.4152 34.4461 50.0337C34.4461 47.1335 32.8675 44.4716 30.3205 43.0696L27.4591 50.4077C27.3065 50.7994 26.92 51.0627 26.499 51.0627C26.3715 51.0627 26.2472 51.0387 26.127 50.9927C25.5995 50.7858 25.3372 50.1893 25.543 49.6607L28.4045 42.3205C27.7829 42.167 27.1425 42.0896 26.5 42.0896H26.5011ZM57.7464 49.0955L51.6661 49.0474L51.6734 48.9889C51.9545 46.8337 53.1246 44.8529 54.8849 43.5543L54.933 43.5188L57.9093 48.8155C57.9417 48.874 57.9407 48.9461 57.9062 49.0036C57.8738 49.0589 57.8153 49.0924 57.7464 49.0945V49.0955ZM51.7852 48.944L57.7453 48.991C57.7756 48.991 57.8017 48.9764 57.8164 48.9513C57.832 48.9252 57.8331 48.8939 57.8174 48.8678L54.8995 43.6745C53.205 44.9449 52.0736 46.8588 51.7852 48.9451V48.944ZM49.8076 49.0328L45.8795 49.0015L45.9056 48.9315L50.7207 36.0219L54.023 41.8995L53.9844 41.9267C51.6327 43.5752 50.1126 46.1484 49.8128 48.9848L49.8076 49.0318V49.0328ZM46.0299 48.8981L49.7146 48.9273C50.028 46.0951 51.546 43.5272 53.8861 41.8692L50.7405 36.2695L46.0299 48.8981ZM44.2466 48.0957L33.3742 34.9542L34.0136 33.313L49.0637 35.1789L44.2455 48.0957H44.2466ZM33.4933 34.9344L44.211 47.8899L48.9196 35.2666L34.0805 33.4269L33.4923 34.9344H33.4933Z" fill="white"/>
<path d="M59.653 60.0347C57.1436 60.0347 54.7418 59.0976 52.8905 57.3958C51.0623 55.7148 49.9298 53.4394 49.6979 50.9833L45.2652 50.9478L44.3698 53.3464H45.1952C45.7625 53.3464 46.2232 53.8082 46.2232 54.3744C46.2232 54.9407 45.7625 55.4024 45.1952 55.4024H42.9146C42.8853 55.4045 42.8801 55.4035 42.8665 55.4024H40.9589C40.3916 55.4024 39.9309 54.9407 39.9309 54.3734C39.9309 53.8061 40.3926 53.3454 40.9589 53.3454H42.1749L43.3815 50.1099L32.6377 37.1231L31.0717 41.139C34.4221 42.8669 36.5011 46.2706 36.5011 50.0316C36.5011 55.5456 32.0151 60.0326 26.5 60.0326C20.985 60.0326 16.5 55.5487 16.5 50.0337C16.5 44.5186 20.986 40.0326 26.5011 40.0326C27.4016 40.0326 28.2948 40.1527 29.1578 40.3909L33.9227 28.1688C33.9331 28.1438 33.929 28.1145 33.9133 28.0915C33.8976 28.0696 33.8726 28.056 33.8443 28.056H28.7347C28.4432 28.056 28.1569 28.1741 27.9501 28.3809C27.7411 28.5898 27.6252 28.8688 27.6252 29.1644C27.6252 29.7766 28.1224 30.275 28.7336 30.275H29.7491V30.2938C30.2275 30.3857 30.5817 30.812 30.5817 31.303C30.5817 31.8703 30.1199 32.331 29.5537 32.331H28.7336C26.9889 32.331 25.5692 30.9112 25.5692 29.1655C25.5692 28.3193 25.8983 27.5242 26.4958 26.9267C27.0955 26.3291 27.8905 26 28.7357 26H33.8454C34.5527 26 35.2129 26.3489 35.612 26.9329C36.0111 27.5159 36.0957 28.2576 35.8387 28.9168L34.8515 31.4503L49.6582 33.2858L50.8763 30.019H50.0322C49.4649 30.019 49.0042 29.5583 49.0042 28.991C49.0042 28.4237 49.4649 27.963 50.0322 27.963H52.317C52.3233 27.963 52.3327 27.963 52.341 27.963H56.1145C56.6818 27.963 57.1425 28.4248 57.1425 28.991C57.1425 29.5573 56.6808 30.019 56.1145 30.019H53.0702L51.6672 33.7821C51.7236 33.8427 51.7706 33.9064 51.8082 33.9743L55.6757 40.86C56.9336 40.3126 58.2708 40.0347 59.6509 40.0347C65.1649 40.0347 69.6519 44.5207 69.6519 50.0357C69.6519 55.5508 65.1659 60.0368 59.6509 60.0368L59.653 60.0347ZM45.192 50.8433L49.793 50.8799L49.7971 50.9269C50.0165 53.3747 51.1406 55.6448 52.9616 57.3184C54.793 59.0025 57.1697 59.9302 59.653 59.9302C65.1095 59.9302 69.5496 55.4912 69.5496 50.0337C69.5496 44.5761 65.1106 40.1371 59.653 40.1371C58.2719 40.1371 56.9336 40.4181 55.6768 40.9718L55.6329 40.9906L51.7184 34.0224C51.6797 33.9545 51.6306 33.8886 51.57 33.828L51.547 33.804L52.9992 29.9114H56.1156C56.6254 29.9114 57.0391 29.4967 57.0391 28.9879C57.0391 28.4791 56.6243 28.0644 56.1156 28.0644H52.34C52.3337 28.0644 52.3264 28.0644 52.3191 28.0644H50.0322C49.5224 28.0644 49.1087 28.4791 49.1087 28.9879C49.1087 29.4967 49.5234 29.9114 50.0322 29.9114H51.0268L49.7271 33.3966L49.6864 33.3914L34.7052 31.5339L35.7415 28.8761C35.986 28.2493 35.9056 27.5441 35.5263 26.9893C35.1471 26.4336 34.5192 26.1024 33.8464 26.1024H28.7367C27.9198 26.1024 27.1509 26.421 26.5731 26.9987C25.9954 27.5765 25.6768 28.3464 25.6768 29.1644C25.6768 30.8517 27.0495 32.2255 28.7367 32.2255H29.5568C30.0667 32.2255 30.4804 31.8107 30.4804 31.3019C30.4804 30.8475 30.1419 30.4547 29.6916 30.3878L29.6467 30.3774H28.7357C28.0671 30.3774 27.5228 29.832 27.5228 29.1624C27.5228 28.8385 27.6492 28.5334 27.878 28.3046C28.1036 28.079 28.4171 27.9494 28.7357 27.9494H33.8454C33.9081 27.9494 33.9655 27.9797 34 28.0309C34.0355 28.0821 34.0428 28.1479 34.0199 28.2054L29.2194 40.5163L29.1734 40.5038C28.3063 40.2604 27.4068 40.136 26.5 40.136C21.0435 40.1381 16.6045 44.5771 16.6045 50.0337C16.6045 55.4902 21.0435 59.9302 26.5011 59.9302C31.9586 59.9302 36.3976 55.4912 36.3976 50.0337C36.3976 46.2957 34.3228 42.916 30.9839 41.2121L30.9421 41.1901L32.6064 36.9214L43.5017 50.0911L42.248 53.4509H40.9599C40.4501 53.4509 40.0364 53.8657 40.0364 54.3744C40.0364 54.8832 40.4511 55.298 40.9599 55.298H45.1952C45.705 55.298 46.1187 54.8832 46.1187 54.3744C46.1187 53.8657 45.7039 53.4509 45.1952 53.4509H44.2194L45.192 50.8423V50.8433ZM59.653 58.0832C55.5598 58.0832 52.1227 55.018 51.6578 50.953L51.6515 50.8945L57.7391 50.9426C58.463 50.9426 59.1348 50.5591 59.4994 49.9428C59.8671 49.3201 59.8745 48.5418 59.5203 47.9118L56.5429 42.612L56.5972 42.589C57.5698 42.1878 58.5989 41.9852 59.653 41.9852C64.0909 41.9852 67.7015 45.5957 67.7015 50.0337C67.7015 54.4716 64.0909 58.0832 59.653 58.0832V58.0832ZM51.7685 51C52.2533 54.9825 55.6319 57.9787 59.653 57.9787C64.0335 57.9787 67.597 54.4152 67.597 50.0337C67.597 45.6521 64.0335 42.0896 59.653 42.0896C58.6323 42.0896 57.6356 42.2829 56.6923 42.6632L59.6122 47.8596C59.9841 48.522 59.9758 49.34 59.5892 49.995C59.2058 50.6438 58.4996 51.046 57.7474 51.046H57.7307L51.7696 50.999L51.7685 51ZM26.5011 58.0832C22.0631 58.0832 18.4526 54.4726 18.4526 50.0337C18.4526 45.5947 22.0631 41.9852 26.5011 41.9852C27.1718 41.9852 27.8404 42.0688 28.4881 42.2338L28.5456 42.2484L25.6402 49.6983C25.4553 50.1726 25.6904 50.7096 26.1647 50.8945C26.2723 50.9363 26.384 50.9572 26.4979 50.9572C26.8761 50.9572 27.2229 50.7211 27.3609 50.369L30.2652 42.9202L30.3174 42.9484C32.9281 44.3609 34.5495 47.075 34.5495 50.0326C34.5495 54.4706 30.939 58.0821 26.5 58.0821L26.5011 58.0832ZM26.5011 42.0896C22.1206 42.0896 18.557 45.6532 18.557 50.0337C18.557 54.4141 22.1206 57.9787 26.5011 57.9787C30.8815 57.9787 34.4461 54.4152 34.4461 50.0337C34.4461 47.1335 32.8675 44.4716 30.3205 43.0696L27.4591 50.4077C27.3065 50.7994 26.92 51.0627 26.499 51.0627C26.3715 51.0627 26.2472 51.0387 26.127 50.9927C25.5995 50.7858 25.3372 50.1893 25.543 49.6607L28.4045 42.3205C27.7829 42.167 27.1425 42.0896 26.5 42.0896H26.5011ZM57.7464 49.0955L51.6661 49.0474L51.6734 48.9889C51.9545 46.8337 53.1246 44.8529 54.8849 43.5543L54.933 43.5188L57.9093 48.8155C57.9417 48.874 57.9407 48.9461 57.9062 49.0036C57.8738 49.0589 57.8153 49.0924 57.7464 49.0945V49.0955ZM51.7852 48.944L57.7453 48.991C57.7756 48.991 57.8017 48.9764 57.8164 48.9513C57.832 48.9252 57.8331 48.8939 57.8174 48.8678L54.8995 43.6745C53.205 44.9449 52.0736 46.8588 51.7852 48.9451V48.944ZM49.8076 49.0328L45.8795 49.0015L45.9056 48.9315L50.7207 36.0219L54.023 41.8995L53.9844 41.9267C51.6327 43.5752 50.1126 46.1484 49.8128 48.9848L49.8076 49.0318V49.0328ZM46.0299 48.8981L49.7146 48.9273C50.028 46.0951 51.546 43.5272 53.8861 41.8692L50.7405 36.2695L46.0299 48.8981ZM44.2466 48.0957L33.3742 34.9542L34.0136 33.313L49.0637 35.1789L44.2455 48.0957H44.2466ZM33.4933 34.9344L44.211 47.8899L48.9196 35.2666L34.0805 33.4269L33.4923 34.9344H33.4933Z" fill="white"/>
</svg>
