<svg width="84" height="84" viewBox="0 0 84 84" fill="none" xmlns="http://www.w3.org/2000/svg">
<circle cx="42" cy="42" r="41" stroke="#FF6948" stroke-width="2"/>
<path d="M59.153 40.0859C57.7322 40.0859 56.3793 40.3857 55.1549 40.9258L51.2633 33.9994C51.2205 33.9231 51.1672 33.8552 51.1066 33.7936L52.5347 29.9657H55.6156C56.1536 29.9657 56.5913 29.528 56.5913 28.99C56.5913 28.452 56.1536 28.0142 55.6156 28.0142H51.8546C51.8421 28.0142 51.8306 28.0142 51.818 28.0142H49.5333C48.9952 28.0142 48.5575 28.452 48.5575 28.99C48.5575 29.528 48.9952 29.9657 49.5333 29.9657H50.4526L49.1937 33.3423L34.2794 31.4931L35.2917 28.897C35.5424 28.2545 35.4599 27.5305 35.0702 26.9622C34.6805 26.3928 34.037 26.0522 33.3475 26.0522H28.2378C27.4072 26.0522 26.6248 26.3761 26.0366 26.9643C25.4484 27.5525 25.1245 28.3339 25.1245 29.1665C25.1245 30.883 26.5203 32.2798 28.2368 32.2798H29.0569C29.5949 32.2798 30.0326 31.8421 30.0326 31.304C30.0326 30.8141 29.6701 30.4077 29.2 30.3387V30.3283H28.2368C27.5963 30.3283 27.0761 29.8069 27.0761 29.1655C27.0761 28.8552 27.1962 28.5637 27.4156 28.3443C27.6319 28.1281 27.9306 28.0038 28.2368 28.0038H33.3464C33.3914 28.0038 33.4332 28.0257 33.4582 28.0623C33.4833 28.0999 33.4885 28.1469 33.4729 28.1876L28.6902 40.4547C27.8345 40.2144 26.9329 40.0859 26.0021 40.0859C20.5153 40.0859 16.0522 44.5479 16.0522 50.0337C16.0522 55.5195 20.5153 59.9825 26.0011 59.9825C31.4869 59.9825 35.9499 55.5195 35.9499 50.0337C35.9499 46.1693 33.734 42.8116 30.5069 41.1651L32.122 37.0228L42.9422 50.1005L41.7125 53.3987H40.461C39.9229 53.3987 39.4852 53.8364 39.4852 54.3745C39.4852 54.9125 39.9229 55.3502 40.461 55.3502H42.3592C42.3696 55.3502 42.3801 55.3513 42.3905 55.3513C42.3989 55.3513 42.4073 55.3502 42.4167 55.3502H44.6973C45.2353 55.3502 45.673 54.9125 45.673 54.3745C45.673 53.8364 45.2353 53.3987 44.6973 53.3987H43.7967L44.7307 50.8945L49.248 50.93C49.7035 55.9969 53.9722 59.9814 59.1551 59.9814C64.6409 59.9814 69.1039 55.5184 69.1039 50.0326C69.1039 44.5468 64.6409 40.0838 59.1551 40.0838L59.153 40.0859ZM33.4927 33.5073L33.546 33.3705L48.4906 35.2238L43.7278 47.9933L32.9327 34.9449L33.4927 33.5084V33.5073ZM50.2301 36.1463L53.4541 41.8849C51.1578 43.4958 49.5698 46.0502 49.2606 48.9806L45.4547 48.9503L50.2301 36.1463V36.1463ZM54.4163 43.5961L57.3634 48.8416C57.3864 48.8834 57.3864 48.9357 57.3613 48.9775C57.3373 49.0182 57.2955 49.0412 57.2443 49.0433L51.2257 48.9952C51.514 46.7867 52.704 44.8592 54.4163 43.5961ZM57.2297 50.9948C57.2349 50.9948 57.2412 50.9948 57.2464 50.9948C57.9808 50.9948 58.6682 50.603 59.0433 49.9689C59.4204 49.3306 59.4288 48.5324 59.0652 47.8857L56.117 42.6371C57.0542 42.2516 58.079 42.0374 59.153 42.0374C63.5627 42.0374 67.1492 45.625 67.1492 50.0337C67.1492 54.4424 63.5617 58.031 59.153 58.031C55.0525 58.031 51.6645 54.9282 51.21 50.9478L57.2297 50.9958V50.9948ZM25.0922 49.6795C24.8968 50.181 25.1454 50.7483 25.6469 50.9436C25.7629 50.9885 25.882 51.0094 26 51.0094C26.3907 51.0094 26.7606 50.7733 26.911 50.3878L29.7934 42.9944C32.2944 44.3473 33.9984 46.9946 33.9984 50.0326C33.9984 54.4424 30.4108 58.0299 26.0011 58.0299C21.5913 58.0299 18.0038 54.4434 18.0038 50.0337C18.0038 45.6239 21.5913 42.0374 26 42.0374C26.6812 42.0374 27.3425 42.1231 27.9745 42.285L25.0911 49.6806L25.0922 49.6795Z" fill="#FF6948"/>
<path d="M59.153 60.0347C56.6436 60.0347 54.2418 59.0976 52.3905 57.3958C50.5623 55.7148 49.4298 53.4394 49.1979 50.9833L44.7652 50.9478L43.8698 53.3464H44.6952C45.2625 53.3464 45.7232 53.8082 45.7232 54.3744C45.7232 54.9407 45.2625 55.4024 44.6952 55.4024H42.4146C42.3853 55.4045 42.3801 55.4035 42.3665 55.4024H40.4589C39.8916 55.4024 39.4309 54.9407 39.4309 54.3734C39.4309 53.8061 39.8926 53.3454 40.4589 53.3454H41.6749L42.8815 50.1099L32.1377 37.1231L30.5717 41.139C33.9221 42.8669 36.0011 46.2706 36.0011 50.0316C36.0011 55.5456 31.5151 60.0326 26 60.0326C20.485 60.0326 16 55.5487 16 50.0337C16 44.5186 20.486 40.0326 26.0011 40.0326C26.9016 40.0326 27.7948 40.1527 28.6578 40.3909L33.4227 28.1688C33.4331 28.1438 33.429 28.1145 33.4133 28.0915C33.3976 28.0696 33.3726 28.056 33.3443 28.056H28.2347C27.9432 28.056 27.6569 28.1741 27.4501 28.3809C27.2411 28.5898 27.1252 28.8688 27.1252 29.1644C27.1252 29.7766 27.6224 30.275 28.2336 30.275H29.2491V30.2938C29.7275 30.3857 30.0817 30.812 30.0817 31.303C30.0817 31.8703 29.6199 32.331 29.0537 32.331H28.2336C26.4889 32.331 25.0692 30.9112 25.0692 29.1655C25.0692 28.3193 25.3983 27.5242 25.9958 26.9267C26.5955 26.3291 27.3905 26 28.2357 26H33.3454C34.0527 26 34.7129 26.3489 35.112 26.9329C35.5111 27.5159 35.5957 28.2576 35.3387 28.9168L34.3515 31.4503L49.1582 33.2858L50.3763 30.019H49.5322C48.9649 30.019 48.5042 29.5583 48.5042 28.991C48.5042 28.4237 48.9649 27.963 49.5322 27.963H51.817C51.8233 27.963 51.8327 27.963 51.841 27.963H55.6145C56.1818 27.963 56.6425 28.4248 56.6425 28.991C56.6425 29.5573 56.1808 30.019 55.6145 30.019H52.5702L51.1672 33.7821C51.2236 33.8427 51.2706 33.9064 51.3082 33.9743L55.1757 40.86C56.4336 40.3126 57.7708 40.0347 59.1509 40.0347C64.6649 40.0347 69.1519 44.5207 69.1519 50.0357C69.1519 55.5508 64.6659 60.0368 59.1509 60.0368L59.153 60.0347ZM44.692 50.8433L49.293 50.8799L49.2971 50.9269C49.5165 53.3747 50.6406 55.6448 52.4616 57.3184C54.293 59.0025 56.6697 59.9302 59.153 59.9302C64.6095 59.9302 69.0496 55.4912 69.0496 50.0337C69.0496 44.5761 64.6106 40.1371 59.153 40.1371C57.7719 40.1371 56.4336 40.4181 55.1768 40.9718L55.1329 40.9906L51.2184 34.0224C51.1797 33.9545 51.1306 33.8886 51.07 33.828L51.047 33.804L52.4992 29.9114H55.6156C56.1254 29.9114 56.5391 29.4967 56.5391 28.9879C56.5391 28.4791 56.1243 28.0644 55.6156 28.0644H51.84C51.8337 28.0644 51.8264 28.0644 51.8191 28.0644H49.5322C49.0224 28.0644 48.6087 28.4791 48.6087 28.9879C48.6087 29.4967 49.0234 29.9114 49.5322 29.9114H50.5268L49.2271 33.3966L49.1864 33.3914L34.2052 31.5339L35.2415 28.8761C35.486 28.2493 35.4056 27.5441 35.0263 26.9893C34.6471 26.4336 34.0192 26.1024 33.3464 26.1024H28.2367C27.4198 26.1024 26.6509 26.421 26.0731 26.9987C25.4954 27.5765 25.1768 28.3464 25.1768 29.1644C25.1768 30.8517 26.5495 32.2255 28.2367 32.2255H29.0568C29.5667 32.2255 29.9804 31.8107 29.9804 31.3019C29.9804 30.8475 29.6419 30.4547 29.1916 30.3878L29.1467 30.3774H28.2357C27.5671 30.3774 27.0228 29.832 27.0228 29.1624C27.0228 28.8385 27.1492 28.5334 27.378 28.3046C27.6036 28.079 27.9171 27.9494 28.2357 27.9494H33.3454C33.4081 27.9494 33.4655 27.9797 33.5 28.0309C33.5355 28.0821 33.5428 28.1479 33.5199 28.2054L28.7194 40.5163L28.6734 40.5038C27.8063 40.2604 26.9068 40.136 26 40.136C20.5435 40.1381 16.1045 44.5771 16.1045 50.0337C16.1045 55.4902 20.5435 59.9302 26.0011 59.9302C31.4586 59.9302 35.8976 55.4912 35.8976 50.0337C35.8976 46.2957 33.8228 42.916 30.4839 41.2121L30.4421 41.1901L32.1064 36.9214L43.0017 50.0911L41.748 53.4509H40.4599C39.9501 53.4509 39.5364 53.8657 39.5364 54.3744C39.5364 54.8832 39.9511 55.298 40.4599 55.298H44.6952C45.205 55.298 45.6187 54.8832 45.6187 54.3744C45.6187 53.8657 45.2039 53.4509 44.6952 53.4509H43.7194L44.692 50.8423V50.8433ZM59.153 58.0832C55.0598 58.0832 51.6227 55.018 51.1578 50.953L51.1515 50.8945L57.2391 50.9426C57.963 50.9426 58.6348 50.5591 58.9994 49.9428C59.3671 49.3201 59.3745 48.5418 59.0203 47.9118L56.0429 42.612L56.0972 42.589C57.0698 42.1878 58.0989 41.9852 59.153 41.9852C63.5909 41.9852 67.2015 45.5957 67.2015 50.0337C67.2015 54.4716 63.5909 58.0832 59.153 58.0832V58.0832ZM51.2685 51C51.7533 54.9825 55.1319 57.9787 59.153 57.9787C63.5335 57.9787 67.097 54.4152 67.097 50.0337C67.097 45.6521 63.5335 42.0896 59.153 42.0896C58.1323 42.0896 57.1356 42.2829 56.1923 42.6632L59.1122 47.8596C59.4841 48.522 59.4758 49.34 59.0892 49.995C58.7058 50.6438 57.9996 51.046 57.2474 51.046H57.2307L51.2696 50.999L51.2685 51ZM26.0011 58.0832C21.5631 58.0832 17.9526 54.4726 17.9526 50.0337C17.9526 45.5947 21.5631 41.9852 26.0011 41.9852C26.6718 41.9852 27.3404 42.0688 27.9881 42.2338L28.0456 42.2484L25.1402 49.6983C24.9553 50.1726 25.1904 50.7096 25.6647 50.8945C25.7723 50.9363 25.884 50.9572 25.9979 50.9572C26.3761 50.9572 26.7229 50.7211 26.8609 50.369L29.7652 42.9202L29.8174 42.9484C32.4281 44.3609 34.0495 47.075 34.0495 50.0326C34.0495 54.4706 30.439 58.0821 26 58.0821L26.0011 58.0832ZM26.0011 42.0896C21.6206 42.0896 18.057 45.6532 18.057 50.0337C18.057 54.4141 21.6206 57.9787 26.0011 57.9787C30.3815 57.9787 33.9461 54.4152 33.9461 50.0337C33.9461 47.1335 32.3675 44.4716 29.8205 43.0696L26.9591 50.4077C26.8065 50.7994 26.42 51.0627 25.999 51.0627C25.8715 51.0627 25.7472 51.0387 25.627 50.9927C25.0995 50.7858 24.8372 50.1893 25.043 49.6607L27.9045 42.3205C27.2829 42.167 26.6425 42.0896 26 42.0896H26.0011ZM57.2464 49.0955L51.1661 49.0474L51.1734 48.9889C51.4545 46.8337 52.6246 44.8529 54.3849 43.5543L54.433 43.5188L57.4093 48.8155C57.4417 48.874 57.4407 48.9461 57.4062 49.0036C57.3738 49.0589 57.3153 49.0924 57.2464 49.0945V49.0955ZM51.2852 48.944L57.2453 48.991C57.2756 48.991 57.3017 48.9764 57.3164 48.9513C57.332 48.9252 57.3331 48.8939 57.3174 48.8678L54.3995 43.6745C52.705 44.9449 51.5736 46.8588 51.2852 48.9451V48.944ZM49.3076 49.0328L45.3795 49.0015L45.4056 48.9315L50.2207 36.0219L53.523 41.8995L53.4844 41.9267C51.1327 43.5752 49.6126 46.1484 49.3128 48.9848L49.3076 49.0318V49.0328ZM45.5299 48.8981L49.2146 48.9273C49.528 46.0951 51.046 43.5272 53.3861 41.8692L50.2405 36.2695L45.5299 48.8981ZM43.7466 48.0957L32.8742 34.9542L33.5136 33.313L48.5637 35.1789L43.7455 48.0957H43.7466ZM32.9933 34.9344L43.711 47.8899L48.4196 35.2666L33.5805 33.4269L32.9923 34.9344H32.9933Z" fill="#FF6948"/>
<path d="M59.153 60.0347C56.6436 60.0347 54.2418 59.0976 52.3905 57.3958C50.5623 55.7148 49.4298 53.4394 49.1979 50.9833L44.7652 50.9478L43.8698 53.3464H44.6952C45.2625 53.3464 45.7232 53.8082 45.7232 54.3744C45.7232 54.9407 45.2625 55.4024 44.6952 55.4024H42.4146C42.3853 55.4045 42.3801 55.4035 42.3665 55.4024H40.4589C39.8916 55.4024 39.4309 54.9407 39.4309 54.3734C39.4309 53.8061 39.8926 53.3454 40.4589 53.3454H41.6749L42.8815 50.1099L32.1377 37.1231L30.5717 41.139C33.9221 42.8669 36.0011 46.2706 36.0011 50.0316C36.0011 55.5456 31.5151 60.0326 26 60.0326C20.485 60.0326 16 55.5487 16 50.0337C16 44.5186 20.486 40.0326 26.0011 40.0326C26.9016 40.0326 27.7948 40.1527 28.6578 40.3909L33.4227 28.1688C33.4331 28.1438 33.429 28.1145 33.4133 28.0915C33.3976 28.0696 33.3726 28.056 33.3443 28.056H28.2347C27.9432 28.056 27.6569 28.1741 27.4501 28.3809C27.2411 28.5898 27.1252 28.8688 27.1252 29.1644C27.1252 29.7766 27.6224 30.275 28.2336 30.275H29.2491V30.2938C29.7275 30.3857 30.0817 30.812 30.0817 31.303C30.0817 31.8703 29.6199 32.331 29.0537 32.331H28.2336C26.4889 32.331 25.0692 30.9112 25.0692 29.1655C25.0692 28.3193 25.3983 27.5242 25.9958 26.9267C26.5955 26.3291 27.3905 26 28.2357 26H33.3454C34.0527 26 34.7129 26.3489 35.112 26.9329C35.5111 27.5159 35.5957 28.2576 35.3387 28.9168L34.3515 31.4503L49.1582 33.2858L50.3763 30.019H49.5322C48.9649 30.019 48.5042 29.5583 48.5042 28.991C48.5042 28.4237 48.9649 27.963 49.5322 27.963H51.817C51.8233 27.963 51.8327 27.963 51.841 27.963H55.6145C56.1818 27.963 56.6425 28.4248 56.6425 28.991C56.6425 29.5573 56.1808 30.019 55.6145 30.019H52.5702L51.1672 33.7821C51.2236 33.8427 51.2706 33.9064 51.3082 33.9743L55.1757 40.86C56.4336 40.3126 57.7708 40.0347 59.1509 40.0347C64.6649 40.0347 69.1519 44.5207 69.1519 50.0357C69.1519 55.5508 64.6659 60.0368 59.1509 60.0368L59.153 60.0347ZM44.692 50.8433L49.293 50.8799L49.2971 50.9269C49.5165 53.3747 50.6406 55.6448 52.4616 57.3184C54.293 59.0025 56.6697 59.9302 59.153 59.9302C64.6095 59.9302 69.0496 55.4912 69.0496 50.0337C69.0496 44.5761 64.6106 40.1371 59.153 40.1371C57.7719 40.1371 56.4336 40.4181 55.1768 40.9718L55.1329 40.9906L51.2184 34.0224C51.1797 33.9545 51.1306 33.8886 51.07 33.828L51.047 33.804L52.4992 29.9114H55.6156C56.1254 29.9114 56.5391 29.4967 56.5391 28.9879C56.5391 28.4791 56.1243 28.0644 55.6156 28.0644H51.84C51.8337 28.0644 51.8264 28.0644 51.8191 28.0644H49.5322C49.0224 28.0644 48.6087 28.4791 48.6087 28.9879C48.6087 29.4967 49.0234 29.9114 49.5322 29.9114H50.5268L49.2271 33.3966L49.1864 33.3914L34.2052 31.5339L35.2415 28.8761C35.486 28.2493 35.4056 27.5441 35.0263 26.9893C34.6471 26.4336 34.0192 26.1024 33.3464 26.1024H28.2367C27.4198 26.1024 26.6509 26.421 26.0731 26.9987C25.4954 27.5765 25.1768 28.3464 25.1768 29.1644C25.1768 30.8517 26.5495 32.2255 28.2367 32.2255H29.0568C29.5667 32.2255 29.9804 31.8107 29.9804 31.3019C29.9804 30.8475 29.6419 30.4547 29.1916 30.3878L29.1467 30.3774H28.2357C27.5671 30.3774 27.0228 29.832 27.0228 29.1624C27.0228 28.8385 27.1492 28.5334 27.378 28.3046C27.6036 28.079 27.9171 27.9494 28.2357 27.9494H33.3454C33.4081 27.9494 33.4655 27.9797 33.5 28.0309C33.5355 28.0821 33.5428 28.1479 33.5199 28.2054L28.7194 40.5163L28.6734 40.5038C27.8063 40.2604 26.9068 40.136 26 40.136C20.5435 40.1381 16.1045 44.5771 16.1045 50.0337C16.1045 55.4902 20.5435 59.9302 26.0011 59.9302C31.4586 59.9302 35.8976 55.4912 35.8976 50.0337C35.8976 46.2957 33.8228 42.916 30.4839 41.2121L30.4421 41.1901L32.1064 36.9214L43.0017 50.0911L41.748 53.4509H40.4599C39.9501 53.4509 39.5364 53.8657 39.5364 54.3744C39.5364 54.8832 39.9511 55.298 40.4599 55.298H44.6952C45.205 55.298 45.6187 54.8832 45.6187 54.3744C45.6187 53.8657 45.2039 53.4509 44.6952 53.4509H43.7194L44.692 50.8423V50.8433ZM59.153 58.0832C55.0598 58.0832 51.6227 55.018 51.1578 50.953L51.1515 50.8945L57.2391 50.9426C57.963 50.9426 58.6348 50.5591 58.9994 49.9428C59.3671 49.3201 59.3745 48.5418 59.0203 47.9118L56.0429 42.612L56.0972 42.589C57.0698 42.1878 58.0989 41.9852 59.153 41.9852C63.5909 41.9852 67.2015 45.5957 67.2015 50.0337C67.2015 54.4716 63.5909 58.0832 59.153 58.0832V58.0832ZM51.2685 51C51.7533 54.9825 55.1319 57.9787 59.153 57.9787C63.5335 57.9787 67.097 54.4152 67.097 50.0337C67.097 45.6521 63.5335 42.0896 59.153 42.0896C58.1323 42.0896 57.1356 42.2829 56.1923 42.6632L59.1122 47.8596C59.4841 48.522 59.4758 49.34 59.0892 49.995C58.7058 50.6438 57.9996 51.046 57.2474 51.046H57.2307L51.2696 50.999L51.2685 51ZM26.0011 58.0832C21.5631 58.0832 17.9526 54.4726 17.9526 50.0337C17.9526 45.5947 21.5631 41.9852 26.0011 41.9852C26.6718 41.9852 27.3404 42.0688 27.9881 42.2338L28.0456 42.2484L25.1402 49.6983C24.9553 50.1726 25.1904 50.7096 25.6647 50.8945C25.7723 50.9363 25.884 50.9572 25.9979 50.9572C26.3761 50.9572 26.7229 50.7211 26.8609 50.369L29.7652 42.9202L29.8174 42.9484C32.4281 44.3609 34.0495 47.075 34.0495 50.0326C34.0495 54.4706 30.439 58.0821 26 58.0821L26.0011 58.0832ZM26.0011 42.0896C21.6206 42.0896 18.057 45.6532 18.057 50.0337C18.057 54.4141 21.6206 57.9787 26.0011 57.9787C30.3815 57.9787 33.9461 54.4152 33.9461 50.0337C33.9461 47.1335 32.3675 44.4716 29.8205 43.0696L26.9591 50.4077C26.8065 50.7994 26.42 51.0627 25.999 51.0627C25.8715 51.0627 25.7472 51.0387 25.627 50.9927C25.0995 50.7858 24.8372 50.1893 25.043 49.6607L27.9045 42.3205C27.2829 42.167 26.6425 42.0896 26 42.0896H26.0011ZM57.2464 49.0955L51.1661 49.0474L51.1734 48.9889C51.4545 46.8337 52.6246 44.8529 54.3849 43.5543L54.433 43.5188L57.4093 48.8155C57.4417 48.874 57.4407 48.9461 57.4062 49.0036C57.3738 49.0589 57.3153 49.0924 57.2464 49.0945V49.0955ZM51.2852 48.944L57.2453 48.991C57.2756 48.991 57.3017 48.9764 57.3164 48.9513C57.332 48.9252 57.3331 48.8939 57.3174 48.8678L54.3995 43.6745C52.705 44.9449 51.5736 46.8588 51.2852 48.9451V48.944ZM49.3076 49.0328L45.3795 49.0015L45.4056 48.9315L50.2207 36.0219L53.523 41.8995L53.4844 41.9267C51.1327 43.5752 49.6126 46.1484 49.3128 48.9848L49.3076 49.0318V49.0328ZM45.5299 48.8981L49.2146 48.9273C49.528 46.0951 51.046 43.5272 53.3861 41.8692L50.2405 36.2695L45.5299 48.8981ZM43.7466 48.0957L32.8742 34.9542L33.5136 33.313L48.5637 35.1789L43.7455 48.0957H43.7466ZM32.9933 34.9344L43.711 47.8899L48.4196 35.2666L33.5805 33.4269L32.9923 34.9344H32.9933Z" fill="#FF6948"/>
<path d="M59.153 60.0347C56.6436 60.0347 54.2418 59.0976 52.3905 57.3958C50.5623 55.7148 49.4298 53.4394 49.1979 50.9833L44.7652 50.9478L43.8698 53.3464H44.6952C45.2625 53.3464 45.7232 53.8082 45.7232 54.3744C45.7232 54.9407 45.2625 55.4024 44.6952 55.4024H42.4146C42.3853 55.4045 42.3801 55.4035 42.3665 55.4024H40.4589C39.8916 55.4024 39.4309 54.9407 39.4309 54.3734C39.4309 53.8061 39.8926 53.3454 40.4589 53.3454H41.6749L42.8815 50.1099L32.1377 37.1231L30.5717 41.139C33.9221 42.8669 36.0011 46.2706 36.0011 50.0316C36.0011 55.5456 31.5151 60.0326 26 60.0326C20.485 60.0326 16 55.5487 16 50.0337C16 44.5186 20.486 40.0326 26.0011 40.0326C26.9016 40.0326 27.7948 40.1527 28.6578 40.3909L33.4227 28.1688C33.4331 28.1438 33.429 28.1145 33.4133 28.0915C33.3976 28.0696 33.3726 28.056 33.3443 28.056H28.2347C27.9432 28.056 27.6569 28.1741 27.4501 28.3809C27.2411 28.5898 27.1252 28.8688 27.1252 29.1644C27.1252 29.7766 27.6224 30.275 28.2336 30.275H29.2491V30.2938C29.7275 30.3857 30.0817 30.812 30.0817 31.303C30.0817 31.8703 29.6199 32.331 29.0537 32.331H28.2336C26.4889 32.331 25.0692 30.9112 25.0692 29.1655C25.0692 28.3193 25.3983 27.5242 25.9958 26.9267C26.5955 26.3291 27.3905 26 28.2357 26H33.3454C34.0527 26 34.7129 26.3489 35.112 26.9329C35.5111 27.5159 35.5957 28.2576 35.3387 28.9168L34.3515 31.4503L49.1582 33.2858L50.3763 30.019H49.5322C48.9649 30.019 48.5042 29.5583 48.5042 28.991C48.5042 28.4237 48.9649 27.963 49.5322 27.963H51.817C51.8233 27.963 51.8327 27.963 51.841 27.963H55.6145C56.1818 27.963 56.6425 28.4248 56.6425 28.991C56.6425 29.5573 56.1808 30.019 55.6145 30.019H52.5702L51.1672 33.7821C51.2236 33.8427 51.2706 33.9064 51.3082 33.9743L55.1757 40.86C56.4336 40.3126 57.7708 40.0347 59.1509 40.0347C64.6649 40.0347 69.1519 44.5207 69.1519 50.0357C69.1519 55.5508 64.6659 60.0368 59.1509 60.0368L59.153 60.0347ZM44.692 50.8433L49.293 50.8799L49.2971 50.9269C49.5165 53.3747 50.6406 55.6448 52.4616 57.3184C54.293 59.0025 56.6697 59.9302 59.153 59.9302C64.6095 59.9302 69.0496 55.4912 69.0496 50.0337C69.0496 44.5761 64.6106 40.1371 59.153 40.1371C57.7719 40.1371 56.4336 40.4181 55.1768 40.9718L55.1329 40.9906L51.2184 34.0224C51.1797 33.9545 51.1306 33.8886 51.07 33.828L51.047 33.804L52.4992 29.9114H55.6156C56.1254 29.9114 56.5391 29.4967 56.5391 28.9879C56.5391 28.4791 56.1243 28.0644 55.6156 28.0644H51.84C51.8337 28.0644 51.8264 28.0644 51.8191 28.0644H49.5322C49.0224 28.0644 48.6087 28.4791 48.6087 28.9879C48.6087 29.4967 49.0234 29.9114 49.5322 29.9114H50.5268L49.2271 33.3966L49.1864 33.3914L34.2052 31.5339L35.2415 28.8761C35.486 28.2493 35.4056 27.5441 35.0263 26.9893C34.6471 26.4336 34.0192 26.1024 33.3464 26.1024H28.2367C27.4198 26.1024 26.6509 26.421 26.0731 26.9987C25.4954 27.5765 25.1768 28.3464 25.1768 29.1644C25.1768 30.8517 26.5495 32.2255 28.2367 32.2255H29.0568C29.5667 32.2255 29.9804 31.8107 29.9804 31.3019C29.9804 30.8475 29.6419 30.4547 29.1916 30.3878L29.1467 30.3774H28.2357C27.5671 30.3774 27.0228 29.832 27.0228 29.1624C27.0228 28.8385 27.1492 28.5334 27.378 28.3046C27.6036 28.079 27.9171 27.9494 28.2357 27.9494H33.3454C33.4081 27.9494 33.4655 27.9797 33.5 28.0309C33.5355 28.0821 33.5428 28.1479 33.5199 28.2054L28.7194 40.5163L28.6734 40.5038C27.8063 40.2604 26.9068 40.136 26 40.136C20.5435 40.1381 16.1045 44.5771 16.1045 50.0337C16.1045 55.4902 20.5435 59.9302 26.0011 59.9302C31.4586 59.9302 35.8976 55.4912 35.8976 50.0337C35.8976 46.2957 33.8228 42.916 30.4839 41.2121L30.4421 41.1901L32.1064 36.9214L43.0017 50.0911L41.748 53.4509H40.4599C39.9501 53.4509 39.5364 53.8657 39.5364 54.3744C39.5364 54.8832 39.9511 55.298 40.4599 55.298H44.6952C45.205 55.298 45.6187 54.8832 45.6187 54.3744C45.6187 53.8657 45.2039 53.4509 44.6952 53.4509H43.7194L44.692 50.8423V50.8433ZM59.153 58.0832C55.0598 58.0832 51.6227 55.018 51.1578 50.953L51.1515 50.8945L57.2391 50.9426C57.963 50.9426 58.6348 50.5591 58.9994 49.9428C59.3671 49.3201 59.3745 48.5418 59.0203 47.9118L56.0429 42.612L56.0972 42.589C57.0698 42.1878 58.0989 41.9852 59.153 41.9852C63.5909 41.9852 67.2015 45.5957 67.2015 50.0337C67.2015 54.4716 63.5909 58.0832 59.153 58.0832V58.0832ZM51.2685 51C51.7533 54.9825 55.1319 57.9787 59.153 57.9787C63.5335 57.9787 67.097 54.4152 67.097 50.0337C67.097 45.6521 63.5335 42.0896 59.153 42.0896C58.1323 42.0896 57.1356 42.2829 56.1923 42.6632L59.1122 47.8596C59.4841 48.522 59.4758 49.34 59.0892 49.995C58.7058 50.6438 57.9996 51.046 57.2474 51.046H57.2307L51.2696 50.999L51.2685 51ZM26.0011 58.0832C21.5631 58.0832 17.9526 54.4726 17.9526 50.0337C17.9526 45.5947 21.5631 41.9852 26.0011 41.9852C26.6718 41.9852 27.3404 42.0688 27.9881 42.2338L28.0456 42.2484L25.1402 49.6983C24.9553 50.1726 25.1904 50.7096 25.6647 50.8945C25.7723 50.9363 25.884 50.9572 25.9979 50.9572C26.3761 50.9572 26.7229 50.7211 26.8609 50.369L29.7652 42.9202L29.8174 42.9484C32.4281 44.3609 34.0495 47.075 34.0495 50.0326C34.0495 54.4706 30.439 58.0821 26 58.0821L26.0011 58.0832ZM26.0011 42.0896C21.6206 42.0896 18.057 45.6532 18.057 50.0337C18.057 54.4141 21.6206 57.9787 26.0011 57.9787C30.3815 57.9787 33.9461 54.4152 33.9461 50.0337C33.9461 47.1335 32.3675 44.4716 29.8205 43.0696L26.9591 50.4077C26.8065 50.7994 26.42 51.0627 25.999 51.0627C25.8715 51.0627 25.7472 51.0387 25.627 50.9927C25.0995 50.7858 24.8372 50.1893 25.043 49.6607L27.9045 42.3205C27.2829 42.167 26.6425 42.0896 26 42.0896H26.0011ZM57.2464 49.0955L51.1661 49.0474L51.1734 48.9889C51.4545 46.8337 52.6246 44.8529 54.3849 43.5543L54.433 43.5188L57.4093 48.8155C57.4417 48.874 57.4407 48.9461 57.4062 49.0036C57.3738 49.0589 57.3153 49.0924 57.2464 49.0945V49.0955ZM51.2852 48.944L57.2453 48.991C57.2756 48.991 57.3017 48.9764 57.3164 48.9513C57.332 48.9252 57.3331 48.8939 57.3174 48.8678L54.3995 43.6745C52.705 44.9449 51.5736 46.8588 51.2852 48.9451V48.944ZM49.3076 49.0328L45.3795 49.0015L45.4056 48.9315L50.2207 36.0219L53.523 41.8995L53.4844 41.9267C51.1327 43.5752 49.6126 46.1484 49.3128 48.9848L49.3076 49.0318V49.0328ZM45.5299 48.8981L49.2146 48.9273C49.528 46.0951 51.046 43.5272 53.3861 41.8692L50.2405 36.2695L45.5299 48.8981ZM43.7466 48.0957L32.8742 34.9542L33.5136 33.313L48.5637 35.1789L43.7455 48.0957H43.7466ZM32.9933 34.9344L43.711 47.8899L48.4196 35.2666L33.5805 33.4269L32.9923 34.9344H32.9933Z" fill="white"/>
</svg>
