<svg width="85" height="84" viewBox="0 0 85 84" fill="none" xmlns="http://www.w3.org/2000/svg">
<path d="M31.2685 42.7668C30.7272 42.7668 30.29 42.3346 30.29 41.8035V29.1785C30.29 28.6445 30.7282 28.2152 31.2685 28.2152C31.8088 28.2152 32.248 28.6474 32.248 29.1785V41.8035C32.248 42.3346 31.8098 42.7668 31.2685 42.7668Z" fill="#FF6948"/>
<path d="M31.2683 42.8153C30.7015 42.8153 30.2407 42.3617 30.2407 41.8035V29.1785C30.2407 28.6203 30.7015 28.1667 31.2683 28.1667C31.8352 28.1667 32.2969 28.6203 32.2969 29.1785V41.8035C32.2969 42.3617 31.8352 42.8153 31.2683 42.8153ZM31.2683 28.2637C30.7555 28.2637 30.339 28.6746 30.339 29.1785V41.8035C30.339 42.3084 30.7565 42.7184 31.2683 42.7184C31.7801 42.7184 32.1986 42.3075 32.1986 41.8035V29.1785C32.1986 28.6736 31.7811 28.2637 31.2683 28.2637Z" fill="#FF6948"/>
<circle cx="42.5" cy="42" r="41" stroke="#FF6948" stroke-width="2"/>
<path d="M64.5137 55.5594H59.028C58.4867 55.5594 58.0495 55.1272 58.0495 54.5961C58.0495 52.7024 56.4915 51.1624 54.5777 51.1624C52.664 51.1624 51.0971 52.7024 51.0971 54.5961C51.0971 55.1272 50.659 55.5594 50.1186 55.5594H35.8788C35.3375 55.5594 34.8993 55.1272 34.8993 54.5961C34.8993 52.7024 33.3413 51.1624 31.4276 51.1624C29.5138 51.1624 27.9558 52.7024 27.9558 54.5961C27.9558 55.1272 27.5176 55.5594 26.9773 55.5594H21.4818C19.8647 55.5594 18.5493 54.2617 18.5493 52.6665V30.9413C18.5493 29.3461 19.8657 28.0485 21.4818 28.0485H58.6409C63.494 28.0485 67.4412 31.9425 67.4412 36.73V52.6665C67.4462 54.2617 66.1297 55.5594 64.5137 55.5594ZM59.9171 53.6299H64.5117C65.0501 53.6299 65.4902 53.1976 65.4902 52.6636V36.731C65.4902 33.0066 62.4183 29.979 58.6458 29.979H21.4867C20.9483 29.979 20.5102 30.4112 20.5102 30.9442V52.6694C20.5102 53.2005 20.9483 53.6347 21.4867 53.6347H26.0922C26.5529 51.1363 28.7712 49.2358 31.4315 49.2358C34.0918 49.2358 36.3091 51.1363 36.7718 53.6347H49.2306C49.6933 51.1363 51.9135 49.2358 54.5797 49.2358C57.2391 49.2309 59.4573 51.1324 59.9181 53.6308L59.9171 53.6299Z" fill="#FF6948"/>
<path d="M64.5135 55.6079H59.0278C58.461 55.6079 58.0002 55.1543 58.0002 54.5961C58.0002 52.7295 56.4647 51.2109 54.5775 51.2109C52.6904 51.2109 51.146 52.7295 51.146 54.5961C51.146 55.1543 50.6853 55.6079 50.1184 55.6079H35.8786C35.3118 55.6079 34.85 55.1543 34.85 54.5961C34.85 52.7295 33.3145 51.2109 31.4274 51.2109C29.5402 51.2109 28.0047 52.7295 28.0047 54.5961C28.0047 55.1543 27.5439 55.6079 26.9771 55.6079H21.4816C19.837 55.6079 18.5 54.2879 18.5 52.6665V30.9413C18.5 29.32 19.838 28 21.4816 28H58.6417C63.5213 28 67.4912 31.9163 67.4912 36.73V52.6665C67.4931 53.4496 67.1846 54.1871 66.6227 54.7434C66.0598 55.3006 65.3102 55.6079 64.5145 55.6079H64.5135ZM54.5766 51.114C56.5178 51.114 58.0975 52.6762 58.0975 54.5961C58.0975 55.101 58.515 55.511 59.0268 55.511H64.5125C65.2827 55.511 66.0068 55.2144 66.552 54.6746C67.0962 54.1367 67.3939 53.4234 67.3919 52.6665V36.73C67.3919 31.9696 63.4663 28.0969 58.6407 28.0969H21.4816C19.8921 28.0969 18.5982 29.3733 18.5982 30.9413V52.6665C18.5982 54.2346 19.8921 55.511 21.4816 55.511H26.9761C27.4889 55.511 27.9055 55.1 27.9055 54.5961C27.9055 52.6762 29.4852 51.114 31.4264 51.114C33.3676 51.114 34.9473 52.6762 34.9473 54.5961C34.9473 55.101 35.3648 55.511 35.8776 55.511H50.1165C50.6293 55.511 51.0458 55.1 51.0458 54.5961C51.0458 52.6762 52.6295 51.114 54.5756 51.114H54.5766ZM49.2716 53.6832H36.7313L36.7244 53.6434C36.2568 51.1169 34.0307 49.2842 31.4323 49.2842C28.8338 49.2842 26.6067 51.1178 26.1411 53.6434L26.1342 53.6832H21.4865C20.9206 53.6832 20.4609 53.2286 20.4609 52.6694V30.9442C20.4609 30.3851 20.9206 29.9305 21.4865 29.9305H58.6466C62.4475 29.9305 65.5401 32.9814 65.5401 36.731V52.6646C65.5401 53.2238 65.0794 53.6793 64.5125 53.6793H59.9179V53.6318L59.8697 53.6405C59.4041 51.1159 57.1848 49.2852 54.5893 49.2852H54.5795C51.9762 49.2852 49.7461 51.1188 49.2795 53.6444L49.2716 53.6841V53.6832ZM36.8129 53.5862H49.1901C49.6823 51.0345 51.9418 49.1863 54.5795 49.1863H54.5893C57.2182 49.1863 59.4689 51.0306 59.9581 53.5814H64.5115C65.0244 53.5814 65.4409 53.1695 65.4409 52.6636V36.731C65.4409 33.0347 62.3925 30.0274 58.6457 30.0274H21.4865C20.9747 30.0274 20.5591 30.4393 20.5591 30.9442V52.6694C20.5591 53.1753 20.9756 53.5862 21.4865 53.5862H26.0517C26.5419 51.0345 28.7985 49.1863 31.4323 49.1863C34.0661 49.1863 36.3207 51.0345 36.8129 53.5862Z" fill="#FF6948"/>
<path d="M66.4716 42.7668H19.5327C18.9914 42.7668 18.5562 42.3346 18.5562 41.8025C18.5562 41.2705 18.9943 40.8373 19.5327 40.8373H66.4716C67.0129 40.8373 67.451 41.2695 67.451 41.8025C67.451 42.3356 67.0129 42.7668 66.4716 42.7668Z" fill="#FF6948"/>
<path d="M66.4714 42.8153H19.5325C18.9666 42.8153 18.5068 42.3608 18.5068 41.8025C18.5068 41.2443 18.9666 40.7888 19.5325 40.7888H66.4714C67.0382 40.7888 67.5 41.2433 67.5 41.8025C67.5 42.3617 67.0382 42.8153 66.4714 42.8153ZM19.5325 40.8857C19.0206 40.8857 18.6051 41.2976 18.6051 41.8025C18.6051 42.3075 19.0216 42.7184 19.5325 42.7184H66.4714C66.9842 42.7184 67.4017 42.3075 67.4017 41.8025C67.4017 41.2976 66.9842 40.8857 66.4714 40.8857H19.5325Z" fill="#FF6948"/>
<path d="M54.7397 42.7668C54.1984 42.7668 53.7603 42.3346 53.7603 41.8035V29.1785C53.7603 28.6445 54.1984 28.2152 54.7397 28.2152C55.281 28.2152 55.7182 28.6474 55.7182 29.1785V41.8035C55.7162 42.3346 55.2781 42.7668 54.7397 42.7668Z" fill="#FF6948"/>
<path d="M54.7395 42.8153C54.1727 42.8153 53.7109 42.3617 53.7109 41.8035V29.1785C53.7109 28.6203 54.1727 28.1667 54.7395 28.1667C55.3064 28.1667 55.7671 28.6203 55.7671 29.1785V41.8035C55.7651 42.3617 55.3034 42.8153 54.7395 42.8153ZM54.7395 28.2637C54.2267 28.2637 53.8092 28.6746 53.8092 29.1785V41.8035C53.8092 42.3084 54.2267 42.7184 54.7395 42.7184C55.2523 42.7184 55.6669 42.3075 55.6689 41.8035V29.1785C55.6689 28.6736 55.2513 28.2637 54.7395 28.2637Z" fill="#FF6948"/>
<path d="M43.0043 42.7668C42.463 42.7668 42.0278 42.3346 42.0278 41.8035V29.1785C42.0278 28.6445 42.466 28.2152 43.0043 28.2152C43.5427 28.2152 43.9838 28.6474 43.9838 29.1785V41.8035C43.9818 42.3346 43.5456 42.7668 43.0043 42.7668Z" fill="#FF6948"/>
<path d="M43.0041 42.8153C42.4383 42.8153 41.9785 42.3617 41.9785 41.8035V29.1785C41.9785 28.6203 42.4383 28.1667 43.0041 28.1667C43.57 28.1667 44.0327 28.6203 44.0327 29.1785V41.8035C44.0307 42.3617 43.569 42.8153 43.0041 42.8153ZM43.0041 28.2637C42.4923 28.2637 42.0768 28.6746 42.0768 29.1785V41.8035C42.0768 42.3084 42.4933 42.7184 43.0041 42.7184C43.515 42.7184 43.9325 42.3075 43.9345 41.8035V29.1785C43.9345 28.6736 43.5169 28.2637 43.0041 28.2637Z" fill="#FF6948"/>
<path d="M31.4312 59.9516C28.4378 59.9516 26.0034 57.5501 26.0034 54.5971C26.0034 51.6441 28.4378 49.2339 31.4312 49.2339C34.4245 49.2339 36.8589 51.6393 36.8589 54.5971C36.8589 57.5549 34.4245 59.9516 31.4312 59.9516ZM31.4312 51.1615C29.5184 51.1615 27.9594 52.7015 27.9594 54.5952C27.9594 56.4889 29.5175 58.0201 31.4312 58.0201C33.3449 58.0201 34.903 56.483 34.903 54.5952C34.903 52.7073 33.3449 51.1615 31.4312 51.1615Z" fill="#FF6948"/>
<path d="M31.431 60C28.4111 60 25.9541 57.5762 25.9541 54.5971C25.9541 51.618 28.4111 49.1854 31.431 49.1854C34.4509 49.1854 36.9078 51.6131 36.9078 54.5971C36.9078 57.5811 34.4509 60 31.431 60ZM31.431 49.2823C28.4651 49.2823 26.0523 51.6664 26.0523 54.5971C26.0523 57.5278 28.4651 59.9031 31.431 59.9031C34.3968 59.9031 36.8096 57.5229 36.8096 54.5971C36.8096 51.6713 34.3968 49.2823 31.431 49.2823ZM31.431 58.0686C29.4897 58.0686 27.9101 56.5102 27.9101 54.5952C27.9101 52.6801 29.4897 51.113 31.431 51.113C33.3722 51.113 34.9519 52.6753 34.9519 54.5952C34.9519 56.515 33.3722 58.0686 31.431 58.0686ZM31.431 51.21C29.5438 51.21 28.0083 52.7286 28.0083 54.5952C28.0083 56.4617 29.5438 57.9716 31.431 57.9716C33.3182 57.9716 34.8536 56.4569 34.8536 54.5952C34.8536 52.7334 33.3182 51.21 31.431 51.21Z" fill="#FF6948"/>
<path d="M54.5797 59.9506C51.5814 59.9506 49.1431 57.5491 49.1431 54.5961C49.1431 51.6432 51.5814 49.2329 54.5797 49.2329C57.5779 49.2329 60.0074 51.6383 60.0074 54.5961C60.0074 57.5539 57.5711 59.9506 54.5797 59.9506ZM54.5797 51.1605C52.66 51.1605 51.099 52.7005 51.099 54.5942C51.099 56.4879 52.66 58.0191 54.5797 58.0191C56.4993 58.0191 58.0514 56.4821 58.0514 54.5942C58.0514 52.7063 56.4934 51.1605 54.5797 51.1605Z" fill="#FF6948"/>
<path d="M54.5795 59.9991C51.5547 59.9991 49.0938 57.5753 49.0938 54.5961C49.0938 51.617 51.5547 49.1844 54.5795 49.1844C57.6043 49.1844 60.0563 51.6121 60.0563 54.5961C60.0563 57.5801 57.5993 59.9991 54.5795 59.9991ZM54.5795 49.2814C51.6087 49.2814 49.192 51.6654 49.192 54.5961C49.192 57.5268 51.6087 59.9022 54.5795 59.9022C57.5502 59.9022 59.9581 57.522 59.9581 54.5961C59.9581 51.6703 57.5453 49.2814 54.5795 49.2814ZM54.5795 58.0666C52.6333 58.0666 51.0497 56.5082 51.0497 54.5932C51.0497 52.6782 52.6333 51.1111 54.5795 51.1111C56.5256 51.1111 58.1004 52.6733 58.1004 54.5932C58.1004 56.5131 56.5207 58.0666 54.5795 58.0666ZM54.5795 51.208C52.6874 51.208 51.1479 52.7267 51.1479 54.5932C51.1479 56.4598 52.6874 57.9697 54.5795 57.9697C56.4716 57.9697 58.0021 56.4549 58.0021 54.5932C58.0021 52.7315 56.4666 51.208 54.5795 51.208Z" fill="#FF6948"/>
</svg>
