<svg width="84" height="84" viewBox="0 0 84 84" fill="none" xmlns="http://www.w3.org/2000/svg">
<circle cx="42" cy="42" r="41" fill="#FF6948" stroke="#FF6948" stroke-width="2"/>
<path d="M64.0135 55.5594H58.5278C57.9865 55.5594 57.5493 55.1272 57.5493 54.5961C57.5493 52.7024 55.9912 51.1624 54.0775 51.1624C52.1638 51.1624 50.5969 52.7024 50.5969 54.5961C50.5969 55.1272 50.1587 55.5594 49.6184 55.5594H35.3786C34.8373 55.5594 34.3991 55.1272 34.3991 54.5961C34.3991 52.7024 32.841 51.1624 30.9273 51.1624C29.0136 51.1624 27.4555 52.7024 27.4555 54.5961C27.4555 55.1272 27.0174 55.5594 26.4771 55.5594H20.9815C19.3645 55.5594 18.0491 54.2617 18.0491 52.6665V30.9413C18.0491 29.3461 19.3655 28.0485 20.9815 28.0485H58.1407C62.9937 28.0485 66.941 31.9425 66.941 36.73V52.6665C66.9459 54.2617 65.6295 55.5594 64.0135 55.5594ZM59.4168 53.6299H64.0115C64.5498 53.6299 64.99 53.1976 64.99 52.6636V36.731C64.99 33.0066 61.918 29.979 58.1456 29.979H20.9864C20.4481 29.979 20.0099 30.4112 20.0099 30.9442V52.6694C20.0099 53.2005 20.4481 53.6347 20.9864 53.6347H25.5919C26.0527 51.1363 28.2709 49.2358 30.9312 49.2358C33.5916 49.2358 35.8088 51.1363 36.2716 53.6347H48.7303C49.193 51.1363 51.4132 49.2358 54.0795 49.2358C56.7388 49.2309 58.9571 51.1324 59.4178 53.6308L59.4168 53.6299Z" fill="white"/>
<path d="M64.0135 55.6079H58.5278C57.961 55.6079 57.5002 55.1543 57.5002 54.5961C57.5002 52.7295 55.9647 51.2109 54.0775 51.2109C52.1904 51.2109 50.646 52.7295 50.646 54.5961C50.646 55.1543 50.1853 55.6079 49.6184 55.6079H35.3786C34.8118 55.6079 34.35 55.1543 34.35 54.5961C34.35 52.7295 32.8145 51.2109 30.9274 51.2109C29.0402 51.2109 27.5047 52.7295 27.5047 54.5961C27.5047 55.1543 27.0439 55.6079 26.4771 55.6079H20.9816C19.337 55.6079 18 54.2879 18 52.6665V30.9413C18 29.32 19.338 28 20.9816 28H58.1417C63.0213 28 66.9912 31.9163 66.9912 36.73V52.6665C66.9931 53.4496 66.6846 54.1871 66.1227 54.7434C65.5598 55.3006 64.8102 55.6079 64.0145 55.6079H64.0135ZM54.0766 51.114C56.0178 51.114 57.5975 52.6762 57.5975 54.5961C57.5975 55.101 58.015 55.5109 58.5268 55.5109H64.0125C64.7827 55.5109 65.5068 55.2144 66.052 54.6746C66.5962 54.1367 66.8939 53.4234 66.8919 52.6665V36.73C66.8919 31.9696 62.9663 28.0969 58.1407 28.0969H20.9816C19.3921 28.0969 18.0982 29.3733 18.0982 30.9413V52.6665C18.0982 54.2346 19.3921 55.5109 20.9816 55.5109H26.4761C26.9889 55.5109 27.4055 55.1 27.4055 54.5961C27.4055 52.6762 28.9852 51.114 30.9264 51.114C32.8676 51.114 34.4473 52.6762 34.4473 54.5961C34.4473 55.101 34.8648 55.5109 35.3776 55.5109H49.6165C50.1293 55.5109 50.5458 55.1 50.5458 54.5961C50.5458 52.6762 52.1295 51.114 54.0756 51.114H54.0766ZM48.7716 53.6832H36.2313L36.2244 53.6434C35.7568 51.1169 33.5307 49.2842 30.9323 49.2842C28.3338 49.2842 26.1067 51.1178 25.6411 53.6434L25.6342 53.6832H20.9865C20.4206 53.6832 19.9609 53.2286 19.9609 52.6694V30.9442C19.9609 30.3851 20.4206 29.9305 20.9865 29.9305H58.1466C61.9475 29.9305 65.0401 32.9814 65.0401 36.731V52.6646C65.0401 53.2238 64.5794 53.6793 64.0125 53.6793H59.4179V53.6318L59.3697 53.6405C58.9041 51.1159 56.6848 49.2852 54.0893 49.2852H54.0795C51.4762 49.2852 49.2461 51.1188 48.7795 53.6444L48.7716 53.6841V53.6832ZM36.3129 53.5862H48.6901C49.1823 51.0345 51.4418 49.1863 54.0795 49.1863H54.0893C56.7182 49.1863 58.9689 51.0306 59.4581 53.5814H64.0115C64.5244 53.5814 64.9409 53.1695 64.9409 52.6636V36.731C64.9409 33.0347 61.8925 30.0274 58.1457 30.0274H20.9865C20.4747 30.0274 20.0591 30.4393 20.0591 30.9442V52.6694C20.0591 53.1753 20.4756 53.5862 20.9865 53.5862H25.5517C26.0419 51.0345 28.2985 49.1863 30.9323 49.1863C33.5661 49.1863 35.8207 51.0345 36.3129 53.5862Z" fill="white"/>
<path d="M65.9713 42.7668H19.0324C18.4911 42.7668 18.0559 42.3346 18.0559 41.8025C18.0559 41.2705 18.4941 40.8373 19.0324 40.8373H65.9713C66.5126 40.8373 66.9508 41.2695 66.9508 41.8025C66.9508 42.3356 66.5126 42.7668 65.9713 42.7668Z" fill="white"/>
<path d="M65.9714 42.8153H19.0325C18.4666 42.8153 18.0068 42.3608 18.0068 41.8025C18.0068 41.2443 18.4666 40.7888 19.0325 40.7888H65.9714C66.5382 40.7888 67 41.2433 67 41.8025C67 42.3617 66.5382 42.8153 65.9714 42.8153ZM19.0325 40.8857C18.5206 40.8857 18.1051 41.2976 18.1051 41.8025C18.1051 42.3075 18.5216 42.7184 19.0325 42.7184H65.9714C66.4842 42.7184 66.9017 42.3075 66.9017 41.8025C66.9017 41.2976 66.4842 40.8857 65.9714 40.8857H19.0325Z" fill="white"/>
<path d="M54.2397 42.7668C53.6984 42.7668 53.2603 42.3346 53.2603 41.8035V29.1785C53.2603 28.6445 53.6984 28.2152 54.2397 28.2152C54.781 28.2152 55.2182 28.6474 55.2182 29.1785V41.8035C55.2162 42.3346 54.7781 42.7668 54.2397 42.7668Z" fill="white"/>
<path d="M54.2398 42.8153C53.6729 42.8153 53.2112 42.3617 53.2112 41.8035V29.1785C53.2112 28.6203 53.6729 28.1667 54.2398 28.1667C54.8066 28.1667 55.2673 28.6203 55.2673 29.1785V41.8035C55.2654 42.3617 54.8036 42.8153 54.2398 42.8153ZM54.2398 28.2637C53.7269 28.2637 53.3094 28.6746 53.3094 29.1785V41.8035C53.3094 42.3084 53.7269 42.7184 54.2398 42.7184C54.7526 42.7184 55.1671 42.3075 55.1691 41.8035V29.1785C55.1691 28.6736 54.7516 28.2637 54.2398 28.2637V28.2637Z" fill="white"/>
<path d="M42.5038 42.7668C41.9625 42.7668 41.5273 42.3346 41.5273 41.8035V29.1785C41.5273 28.6445 41.9655 28.2152 42.5038 28.2152C43.0422 28.2152 43.4833 28.6474 43.4833 29.1785V41.8035C43.4813 42.3346 43.0451 42.7668 42.5038 42.7668V42.7668Z" fill="white"/>
<path d="M42.5039 42.8153C41.938 42.8153 41.4783 42.3617 41.4783 41.8035V29.1785C41.4783 28.6203 41.938 28.1667 42.5039 28.1667C43.0698 28.1667 43.5325 28.6203 43.5325 29.1785V41.8035C43.5305 42.3617 43.0688 42.8153 42.5039 42.8153V42.8153ZM42.5039 28.2637C41.9921 28.2637 41.5765 28.6746 41.5765 29.1785V41.8035C41.5765 42.3084 41.993 42.7184 42.5039 42.7184C43.0147 42.7184 43.4323 42.3075 43.4342 41.8035V29.1785C43.4342 28.6736 43.0167 28.2637 42.5039 28.2637V28.2637Z" fill="white"/>
<path d="M30.9312 59.9516C27.9378 59.9516 25.5034 57.5501 25.5034 54.5971C25.5034 51.6441 27.9378 49.2339 30.9312 49.2339C33.9245 49.2339 36.3589 51.6393 36.3589 54.5971C36.3589 57.5549 33.9245 59.9516 30.9312 59.9516ZM30.9312 51.1615C29.0184 51.1615 27.4594 52.7015 27.4594 54.5952C27.4594 56.4889 29.0175 58.0201 30.9312 58.0201C32.8449 58.0201 34.403 56.483 34.403 54.5952C34.403 52.7073 32.8449 51.1615 30.9312 51.1615V51.1615Z" fill="white"/>
<path d="M30.9312 60C27.9113 60 25.4543 57.5762 25.4543 54.5971C25.4543 51.618 27.9113 49.1854 30.9312 49.1854C33.9511 49.1854 36.4081 51.6131 36.4081 54.5971C36.4081 57.5811 33.9511 60 30.9312 60ZM30.9312 49.2823C27.9654 49.2823 25.5526 51.6664 25.5526 54.5971C25.5526 57.5278 27.9654 59.9031 30.9312 59.9031C33.8971 59.9031 36.3098 57.5229 36.3098 54.5971C36.3098 51.6713 33.8971 49.2823 30.9312 49.2823ZM30.9312 58.0686C28.99 58.0686 27.4103 56.5102 27.4103 54.5952C27.4103 52.6801 28.99 51.113 30.9312 51.113C32.8724 51.113 34.4521 52.6753 34.4521 54.5952C34.4521 56.515 32.8724 58.0686 30.9312 58.0686ZM30.9312 51.21C29.044 51.21 27.5085 52.7286 27.5085 54.5952C27.5085 56.4617 29.044 57.9716 30.9312 57.9716C32.8184 57.9716 34.3539 56.4569 34.3539 54.5952C34.3539 52.7334 32.8184 51.21 30.9312 51.21V51.21Z" fill="white"/>
<path d="M54.0794 59.9506C51.0811 59.9506 48.6428 57.5491 48.6428 54.5961C48.6428 51.6432 51.0811 49.2329 54.0794 49.2329C57.0777 49.2329 59.5072 51.6383 59.5072 54.5961C59.5072 57.5539 57.0708 59.9506 54.0794 59.9506ZM54.0794 51.1605C52.1598 51.1605 50.5988 52.7005 50.5988 54.5942C50.5988 56.4879 52.1598 58.0191 54.0794 58.0191C55.999 58.0191 57.5512 56.4821 57.5512 54.5942C57.5512 52.7063 55.9931 51.1605 54.0794 51.1605V51.1605Z" fill="white"/>
<path d="M54.0795 59.9991C51.0547 59.9991 48.5938 57.5753 48.5938 54.5961C48.5938 51.617 51.0547 49.1844 54.0795 49.1844C57.1043 49.1844 59.5563 51.6121 59.5563 54.5961C59.5563 57.5801 57.0993 59.9991 54.0795 59.9991ZM54.0795 49.2814C51.1087 49.2814 48.692 51.6654 48.692 54.5961C48.692 57.5268 51.1087 59.9022 54.0795 59.9022C57.0502 59.9022 59.4581 57.522 59.4581 54.5961C59.4581 51.6703 57.0453 49.2814 54.0795 49.2814ZM54.0795 58.0666C52.1333 58.0666 50.5497 56.5082 50.5497 54.5932C50.5497 52.6782 52.1333 51.1111 54.0795 51.1111C56.0256 51.1111 57.6004 52.6733 57.6004 54.5932C57.6004 56.5131 56.0207 58.0666 54.0795 58.0666ZM54.0795 51.208C52.1874 51.208 50.6479 52.7267 50.6479 54.5932C50.6479 56.4598 52.1874 57.9697 54.0795 57.9697C55.9716 57.9697 57.5021 56.4549 57.5021 54.5932C57.5021 52.7315 55.9666 51.208 54.0795 51.208V51.208Z" fill="white"/>
</svg>
