<svg width="85" height="84" viewBox="0 0 85 84" fill="none" xmlns="http://www.w3.org/2000/svg">
<circle cx="42.5" cy="42" r="41" stroke="#FF6948" stroke-width="2"/>
<path d="M21.7238 51.6031H23.4327C23.9854 54.7417 26.7457 57.1376 30.067 57.1376C33.3883 57.1376 36.1476 54.7417 36.7003 51.6031H49.8383C50.391 54.7417 53.1513 57.1376 56.4716 57.1376C59.7918 57.1376 62.5532 54.7417 63.1059 51.6031H69.3431C70.5998 51.6031 71.6212 50.5887 71.6212 49.3429V43.1243C71.6212 39.9476 69.0164 37.3635 65.8144 37.3635H58.8856C54.6123 33.3134 52.5955 28 46.3459 28H32.3514C29.1732 28 26.2511 29.5842 24.5329 32.2363L21.2168 37.3614H17.0784C16.4365 37.3614 15.917 37.8778 15.917 38.5136V45.8412C15.917 49.0179 18.5218 51.602 21.7238 51.602V51.6031ZM30.067 54.8333C27.6354 54.8333 25.658 52.8746 25.6497 50.4653C25.6497 50.4601 25.6528 50.456 25.6528 50.4509C25.6528 50.4457 25.6497 50.4416 25.6497 50.4365C25.658 48.0262 27.6364 46.0685 30.067 46.0685C32.4976 46.0685 34.4844 48.0344 34.4844 50.4519C34.4844 52.8694 32.5028 54.8343 30.067 54.8343V54.8333ZM56.4716 54.8333C54.0358 54.8333 52.0542 52.8674 52.0542 50.4509C52.0542 48.0344 54.0358 46.0675 56.4716 46.0675C58.9073 46.0675 60.8858 48.0293 60.8889 50.4437C60.8889 50.4468 60.8879 50.4488 60.8879 50.4509C60.8879 50.4529 60.8889 50.456 60.8889 50.4581C60.8848 52.8704 58.9042 54.8322 56.4705 54.8322L56.4716 54.8333ZM55.783 37.3624H41.014V30.3043H46.3469C51.0349 30.3043 52.5727 34.3174 55.783 37.3624ZM26.4896 33.4821C27.7785 31.4925 29.9685 30.3033 32.3535 30.3033H38.6923V37.3624H23.9771L26.4886 33.4831L26.4896 33.4821ZM18.2408 39.6668H65.8154C67.7368 39.6668 69.2995 41.2171 69.2995 43.1233L69.3441 49.2977H63.1069C62.5542 46.158 59.7939 43.7621 56.4726 43.7621C53.1513 43.7621 50.392 46.158 49.8393 49.2977H36.7013C36.1487 46.158 33.3883 43.7621 30.0681 43.7621C26.7478 43.7621 23.9864 46.158 23.4337 49.2977H21.7259C19.8045 49.2977 18.2418 47.7474 18.2418 45.8412V39.6668H18.2408Z" fill="#FF6948"/>
</svg>
