<svg width="84" height="84" viewBox="0 0 84 84" fill="none" xmlns="http://www.w3.org/2000/svg">
<circle cx="42" cy="42" r="41" fill="#FF6948" stroke="#FF6948" stroke-width="2"/>
<path d="M21.2238 51.6031H22.9327C23.4854 54.7417 26.2457 57.1376 29.567 57.1376C32.8883 57.1376 35.6476 54.7417 36.2003 51.6031H49.3383C49.891 54.7417 52.6513 57.1376 55.9716 57.1376C59.2918 57.1376 62.0532 54.7417 62.6059 51.6031H68.8431C70.0998 51.6031 71.1212 50.5887 71.1212 49.3429V43.1243C71.1212 39.9476 68.5164 37.3635 65.3144 37.3635H58.3856C54.1123 33.3134 52.0955 28 45.8459 28H31.8514C28.6732 28 25.7511 29.5842 24.0329 32.2363L20.7168 37.3614H16.5784C15.9365 37.3614 15.417 37.8778 15.417 38.5136V45.8412C15.417 49.0179 18.0218 51.602 21.2238 51.602V51.6031ZM29.567 54.8333C27.1354 54.8333 25.158 52.8746 25.1497 50.4653C25.1497 50.4601 25.1528 50.456 25.1528 50.4509C25.1528 50.4457 25.1497 50.4416 25.1497 50.4365C25.158 48.0262 27.1364 46.0685 29.567 46.0685C31.9976 46.0685 33.9844 48.0344 33.9844 50.4519C33.9844 52.8694 32.0028 54.8343 29.567 54.8343V54.8333ZM55.9716 54.8333C53.5358 54.8333 51.5542 52.8674 51.5542 50.4509C51.5542 48.0344 53.5358 46.0675 55.9716 46.0675C58.4073 46.0675 60.3858 48.0293 60.3889 50.4437C60.3889 50.4468 60.3879 50.4488 60.3879 50.4509C60.3879 50.4529 60.3889 50.456 60.3889 50.4581C60.3848 52.8704 58.4042 54.8322 55.9705 54.8322L55.9716 54.8333ZM55.283 37.3624H40.514V30.3043H45.8469C50.5349 30.3043 52.0727 34.3174 55.283 37.3624V37.3624ZM25.9896 33.4821C27.2785 31.4925 29.4685 30.3033 31.8535 30.3033H38.1923V37.3624H23.4771L25.9886 33.4831L25.9896 33.4821ZM17.7408 39.6668H65.3154C67.2368 39.6668 68.7995 41.2171 68.7995 43.1233L68.8441 49.2977H62.6069C62.0542 46.158 59.2939 43.7621 55.9726 43.7621C52.6513 43.7621 49.892 46.158 49.3393 49.2977H36.2013C35.6487 46.158 32.8883 43.7621 29.5681 43.7621C26.2478 43.7621 23.4864 46.158 22.9337 49.2977H21.2259C19.3045 49.2977 17.7418 47.7474 17.7418 45.8412V39.6668H17.7408Z" fill="white"/>
</svg>
