<svg width="84" height="84" viewBox="0 0 84 84" fill="none" xmlns="http://www.w3.org/2000/svg">
<circle cx="42" cy="42" r="41" fill="#FF6948" stroke="#FF6948" stroke-width="2"/>
<path d="M17.7705 51.9885L37.7014 52.1516C37.7269 52.1516 37.7505 52.1546 37.7751 52.1605C42.7441 53.3469 57.9772 53.4492 65.9698 51.3289C66.7621 51.1313 67.3145 49.9164 67.3784 48.2355C67.4413 46.589 66.9764 44.7469 65.9639 44.4087L40.0497 34.0108C40.032 34.0039 40.0133 34 39.9947 34H39.9937C37.9815 34.0187 36.0451 35.1884 35.3904 36.7799C35.3422 36.8968 35.2371 36.9774 35.1152 36.9922C29.122 37.697 24.4273 36.832 20.341 34.2703C20.2781 34.231 20.1946 34.2457 20.1503 34.3047C16.7827 38.8657 16.9301 41.4038 17.0726 43.8593C17.1316 44.8816 17.1876 45.8468 17.0019 46.9419C16.9999 46.9556 16.9989 46.9684 17.0019 46.9822L17.6319 51.8646C17.6408 51.9344 17.7008 51.9875 17.7715 51.9885H17.7705ZM54.7403 42.4988C54.817 42.3366 55.0067 42.2609 55.1728 42.3268C57.0867 43.0925 59.2571 43.9605 61.0707 44.7076C61.2142 44.7665 61.2977 44.9101 61.2771 45.0644C61.2565 45.2187 61.1385 45.3367 60.9842 45.3563C58.9936 45.6099 56.3563 45.9019 53.6 45.9019C52.5964 45.9333 51.5889 45.9471 50.5971 45.9471C46.7005 45.9471 43.0331 45.7407 40.6474 45.606C40.5058 45.5981 40.3869 45.5067 40.3436 45.374C40.2994 45.2413 40.3407 45.0968 40.4488 45.0074L40.9177 44.6161C40.9688 44.5739 41.0297 44.5473 41.0936 44.5395C42.749 44.336 44.6088 44.451 46.4076 44.5631C50.0859 44.7921 53.5597 45.0084 54.7413 42.4988H54.7403ZM20.2319 37.6852C20.285 37.583 20.3509 37.4679 20.4138 37.3569C20.4442 37.3038 20.4747 37.2507 20.5042 37.1986C20.5937 37.0394 20.7912 36.9804 20.9554 37.0639C25.2186 39.2461 32.2704 39.5813 36.742 38.7881C36.7921 38.7792 36.8344 38.7419 36.8511 38.6917C37.3062 37.3234 37.8931 36.4977 38.6441 36.1684C39.6005 35.7487 40.7073 36.1743 41.7581 36.6472C41.8574 36.6914 41.9272 36.7779 41.9498 36.885C41.9724 36.9922 41.9439 37.1003 41.8712 37.1809C41.5763 37.5122 41.3669 37.8218 41.244 38.0243C41.2234 38.0587 41.2185 38.098 41.2293 38.1364C41.2401 38.1747 41.2666 38.2062 41.303 38.2248L42.8443 38.9955C42.9121 39.0299 42.9947 39.0043 43.0311 38.9375C43.1717 38.6819 43.4882 38.2003 44.0219 37.8474C44.1055 37.7923 44.2136 37.7786 44.3119 37.811L44.3404 37.8208C44.4495 37.8572 44.5311 37.9457 44.5606 38.0567C44.5891 38.1688 44.5606 38.2868 44.482 38.3713C44.1074 38.7802 43.8646 39.1272 43.727 39.3464C43.7054 39.3808 43.6995 39.4201 43.7103 39.4595C43.7211 39.4988 43.7477 39.5302 43.784 39.5479L45.3283 40.3205C45.3942 40.353 45.4757 40.3304 45.5131 40.2675C45.6773 39.9922 46.0685 39.4604 46.8372 38.9975C46.9217 38.9463 47.0239 38.9365 47.1173 38.967C47.2304 39.0043 47.3139 39.0967 47.3395 39.2127C47.366 39.3297 47.3296 39.4496 47.2431 39.5332C46.7428 40.0139 46.4627 40.4641 46.3408 40.6892C46.3054 40.754 46.327 40.8366 46.3899 40.8759L47.827 41.7901C47.8919 41.8314 47.9755 41.8147 48.0187 41.7527C48.2871 41.3674 48.8768 40.6459 49.8087 40.1485C49.8991 40.1004 50.0092 40.0974 50.1036 40.1397L52.7095 41.2976C52.8137 41.3438 52.8874 41.4392 52.9071 41.5512C52.9257 41.6613 52.8903 41.7724 52.8097 41.8481C51.7078 42.8989 47.2775 42.7613 43.7182 42.6512C42.7824 42.6217 41.8977 42.5942 41.1959 42.5942C39.8118 42.5942 38.4573 43.6027 38.0444 44.9405C37.9992 45.087 37.8665 45.1814 37.722 45.1814C37.6925 45.1814 37.663 45.1774 37.6336 45.1696C35.4523 44.5778 31.5656 44.5778 27.8058 44.5778L27.7763 44.5739L27.7281 44.5591L27.7114 44.512C26.5387 41.16 23.7647 38.732 20.4708 38.1737C20.3636 38.155 20.2742 38.0892 20.225 37.9909C20.1769 37.8936 20.1779 37.7815 20.228 37.6852H20.2319ZM19.2716 40.5791C19.2784 40.3933 19.4367 40.2449 19.6235 40.2527C22.2254 40.3412 24.4047 41.8451 25.4505 44.2741C25.4948 44.3773 25.4849 44.4952 25.424 44.5906C25.3621 44.6869 25.2559 44.7449 25.1419 44.7459C24.3791 44.7557 23.5967 44.7951 22.8407 44.8334C22.0622 44.8727 21.327 44.9091 20.7008 44.9091H19.4623C19.3699 44.9091 19.2834 44.8727 19.2185 44.8059C19.1536 44.739 19.1202 44.6515 19.1241 44.5582L19.2716 40.5791ZM19.0524 46.9635C19.1143 46.8957 19.1998 46.8573 19.2912 46.8544L19.8407 46.8377C25.6481 46.6647 34.4251 46.4022 37.7505 47.1945C41.9066 48.1539 58.0873 48.3819 65.1441 46.5339L65.1599 46.53L65.2739 46.5379L65.1127 49.2725C65.1038 49.419 65.0036 49.5418 64.863 49.5802C61.572 50.4609 56.954 50.7332 53.7662 50.86C52.3772 50.9229 50.9961 50.9505 49.6632 50.9505C44.0789 50.9505 39.3203 50.4767 38.1998 50.1965C36.0844 49.708 23.2428 49.8623 19.4544 50.0235C19.2706 50.0294 19.1123 49.8879 19.1025 49.704L18.9639 47.2122C18.959 47.1198 18.9904 47.0323 19.0524 46.9645V46.9635Z" fill="white"/>
</svg>
