<svg width="85" height="84" viewBox="0 0 85 84" fill="none" xmlns="http://www.w3.org/2000/svg">
<circle cx="42.5" cy="42" r="41" stroke="#FF6948" stroke-width="2"/>
<path d="M18.2705 51.9885L38.2014 52.1516C38.2269 52.1516 38.2505 52.1546 38.2751 52.1605C43.2441 53.3469 58.4772 53.4492 66.4698 51.3289C67.2621 51.1313 67.8145 49.9164 67.8784 48.2355C67.9413 46.589 67.4764 44.7469 66.4639 44.4087L40.5497 34.0108C40.532 34.0039 40.5133 34 40.4947 34H40.4937C38.4815 34.0187 36.5451 35.1884 35.8904 36.7799C35.8422 36.8968 35.7371 36.9774 35.6152 36.9922C29.622 37.697 24.9273 36.832 20.841 34.2703C20.7781 34.231 20.6946 34.2457 20.6503 34.3047C17.2827 38.8657 17.4301 41.4038 17.5726 43.8593C17.6316 44.8816 17.6876 45.8468 17.5019 46.9419C17.4999 46.9556 17.4989 46.9684 17.5019 46.9822L18.1319 51.8646C18.1408 51.9344 18.2008 51.9875 18.2715 51.9885H18.2705ZM55.2403 42.4988C55.317 42.3366 55.5067 42.2609 55.6728 42.3268C57.5867 43.0925 59.7571 43.9605 61.5707 44.7076C61.7142 44.7665 61.7977 44.9101 61.7771 45.0644C61.7565 45.2187 61.6385 45.3367 61.4842 45.3563C59.4936 45.6099 56.8563 45.9019 54.1 45.9019C53.0964 45.9333 52.0889 45.9471 51.0971 45.9471C47.2005 45.9471 43.5331 45.7407 41.1474 45.606C41.0058 45.5981 40.8869 45.5067 40.8436 45.374C40.7994 45.2413 40.8407 45.0968 40.9488 45.0074L41.4177 44.6161C41.4688 44.5739 41.5297 44.5473 41.5936 44.5395C43.249 44.336 45.1088 44.451 46.9076 44.5631C50.5859 44.7921 54.0597 45.0084 55.2413 42.4988H55.2403ZM20.7319 37.6852C20.785 37.583 20.8509 37.4679 20.9138 37.3569C20.9442 37.3038 20.9747 37.2507 21.0042 37.1986C21.0937 37.0394 21.2912 36.9804 21.4554 37.0639C25.7186 39.2461 32.7704 39.5813 37.242 38.7881C37.2921 38.7792 37.3344 38.7419 37.3511 38.6917C37.8062 37.3234 38.3931 36.4977 39.1441 36.1684C40.1005 35.7487 41.2073 36.1743 42.2581 36.6472C42.3574 36.6914 42.4272 36.7779 42.4498 36.885C42.4724 36.9922 42.4439 37.1003 42.3712 37.1809C42.0763 37.5122 41.8669 37.8218 41.744 38.0243C41.7234 38.0587 41.7185 38.098 41.7293 38.1364C41.7401 38.1747 41.7666 38.2062 41.803 38.2248L43.3443 38.9955C43.4121 39.0299 43.4947 39.0043 43.5311 38.9375C43.6716 38.6819 43.9882 38.2003 44.5219 37.8474C44.6055 37.7923 44.7136 37.7786 44.8119 37.811L44.8404 37.8208C44.9495 37.8572 45.0311 37.9457 45.0606 38.0567C45.0891 38.1688 45.0606 38.2868 44.982 38.3713C44.6074 38.7802 44.3646 39.1272 44.227 39.3464C44.2054 39.3808 44.1995 39.4201 44.2103 39.4595C44.2211 39.4988 44.2477 39.5302 44.284 39.5479L45.8283 40.3205C45.8942 40.353 45.9757 40.3304 46.0131 40.2675C46.1773 39.9922 46.5685 39.4604 47.3372 38.9975C47.4217 38.9463 47.5239 38.9365 47.6173 38.967C47.7304 39.0043 47.8139 39.0967 47.8395 39.2127C47.866 39.3297 47.8296 39.4496 47.7431 39.5332C47.2428 40.0139 46.9627 40.4641 46.8408 40.6892C46.8054 40.754 46.827 40.8366 46.8899 40.8759L48.327 41.7901C48.3919 41.8314 48.4755 41.8147 48.5187 41.7527C48.7871 41.3674 49.3768 40.6459 50.3087 40.1485C50.3991 40.1004 50.5092 40.0974 50.6036 40.1397L53.2095 41.2976C53.3137 41.3438 53.3874 41.4392 53.4071 41.5512C53.4257 41.6613 53.3903 41.7724 53.3097 41.8481C52.2078 42.8989 47.7775 42.7613 44.2182 42.6512C43.2824 42.6217 42.3977 42.5942 41.6959 42.5942C40.3118 42.5942 38.9573 43.6027 38.5444 44.9405C38.4992 45.087 38.3665 45.1814 38.222 45.1814C38.1925 45.1814 38.163 45.1774 38.1336 45.1696C35.9523 44.5778 32.0656 44.5778 28.3058 44.5778L28.2763 44.5739L28.2281 44.5591L28.2114 44.512C27.0387 41.16 24.2647 38.732 20.9708 38.1737C20.8636 38.155 20.7742 38.0892 20.725 37.9909C20.6769 37.8936 20.6779 37.7815 20.728 37.6852H20.7319ZM19.7716 40.5791C19.7784 40.3933 19.9367 40.2449 20.1235 40.2527C22.7254 40.3412 24.9047 41.8451 25.9505 44.2741C25.9948 44.3773 25.985 44.4952 25.924 44.5906C25.8621 44.6869 25.7559 44.7449 25.6419 44.7459C24.8791 44.7557 24.0967 44.795 23.3407 44.8334C22.5622 44.8727 21.827 44.9091 21.2008 44.9091H19.9623C19.8699 44.9091 19.7833 44.8727 19.7185 44.8059C19.6536 44.739 19.6202 44.6515 19.6241 44.5582L19.7716 40.5791ZM19.5524 46.9635C19.6143 46.8957 19.6998 46.8573 19.7912 46.8544L20.3407 46.8377C26.1481 46.6647 34.9251 46.4022 38.2505 47.1945C42.4066 48.1539 58.5873 48.3819 65.6441 46.5339L65.6599 46.53L65.7739 46.5379L65.6127 49.2725C65.6038 49.419 65.5036 49.5418 65.363 49.5802C62.072 50.4609 57.454 50.7332 54.2662 50.86C52.8772 50.9229 51.4961 50.9505 50.1632 50.9505C44.5789 50.9505 39.8203 50.4767 38.6998 50.1965C36.5844 49.708 23.7428 49.8623 19.9544 50.0235C19.7706 50.0294 19.6123 49.8879 19.6025 49.704L19.4639 47.2122C19.459 47.1198 19.4904 47.0323 19.5524 46.9645V46.9635Z" fill="#FF6948"/>
</svg>
