<svg width="177" height="168" viewBox="0 0 177 168" fill="none" xmlns="http://www.w3.org/2000/svg">
<g clip-path="url(#clip0_245_568)">
<path d="M54.7548 34.1378L43.0588 37.3284L43.4469 34.6398C44.6153 26.5498 44.0434 16.6336 42.3398 8.61242L42.8505 8.16297L54.0195 0.157959L54.7548 34.1378Z" fill="#F0E0E0"/>
<path d="M119.918 35.3241L53.909 32.5789L42.7891 37.1867L114.264 40.3207L119.918 35.3241Z" fill="#93B79B"/>
<path d="M42.6627 36.4457C44.6195 36.0975 46.5354 35.0002 48.4351 34.158C50.2162 33.3685 51.9933 32.5829 53.7663 31.8015C54.0482 31.6759 54.1789 32.5708 53.897 32.6963C51.981 33.5426 50.0651 34.3929 48.1409 35.2472C46.3394 36.0449 44.5337 37.045 42.679 37.377C42.389 37.4297 42.3726 36.4984 42.6627 36.4457V36.4457Z" fill="#ABC1BB"/>
<path d="M53.9253 1.38889C49.9054 3.5268 45.9591 6.23158 42.1149 9.51537C41.7187 9.8555 41.3469 8.62458 41.7473 8.28041C45.6486 4.95207 49.644 2.1906 53.7251 0.0243519C54.1459 -0.198347 54.342 1.16619 53.9253 1.38889Z" fill="#ABC1BB"/>
<path d="M119.954 3.24335L53.4756 0.133667L53.8759 7.45034C54.1987 13.3701 54.2845 19.2939 54.1374 25.165L53.9086 32.5789L119.917 35.3241L119.979 34.8909C121.429 24.6589 121.421 13.6535 119.954 3.24335V3.24335Z" fill="#8EC39E"/>
<path d="M63.4598 1.34031C63.3454 0.404972 61.887 0.445463 62.0014 1.3889C63.1984 11.2443 63.0676 21.1565 61.5765 30.9714C61.4335 31.9027 62.8511 32.255 62.9941 31.3156C64.5015 21.3751 64.669 11.3253 63.4557 1.34031H63.4598Z" fill="#4284AF"/>
<path d="M111.94 3.96402C111.817 3.02868 110.359 3.08537 110.481 4.0288C111.764 13.8721 111.719 23.7883 110.314 33.6154C110.179 34.5507 111.601 34.8868 111.735 33.9474C113.157 23.9948 113.235 13.9409 111.936 3.96807L111.94 3.96402Z" fill="#4284AF"/>
<path opacity="0.64" d="M81.9413 16.3138C81.9373 20.5167 78.5629 23.9139 74.4082 23.9058C70.2536 23.8977 66.8914 20.4803 66.8955 16.2773C66.8996 12.0744 70.274 8.67722 74.4286 8.68532C78.5833 8.69342 81.9454 12.1108 81.9413 16.3138V16.3138Z" fill="#4284AF"/>
<path d="M41.6325 55.2658L22.53 57.6548L23.1183 56.0068C24.8913 51.0386 23.7842 45.0298 20.8633 40.2154L21.6926 39.9239L39.8473 34.6237L41.6284 55.2658H41.6325Z" fill="#F3D7C3"/>
<path d="M148.363 53.4841L40.219 54.3506L22.0889 57.5818L139.187 56.7396L148.363 53.4841Z" fill="#CE6255"/>
<path d="M21.8721 57.1365C25.0708 56.849 28.1919 56.108 31.2844 55.5249C34.1849 54.9783 37.0813 54.4317 39.9737 53.885C40.4312 53.8 40.6641 54.3385 40.2065 54.4236C37.0854 55.0147 33.9602 55.6059 30.8269 56.1971C27.8937 56.7518 24.9523 57.432 21.917 57.7033C21.4391 57.7479 21.4023 57.181 21.8762 57.1365H21.8721Z" fill="#CCA184"/>
<path d="M39.7162 35.3767C33.1676 36.8304 26.7538 38.6281 20.5157 40.7742C19.8702 40.9969 19.2411 40.2599 19.8906 40.0372C26.2227 37.8588 32.7182 36.0286 39.3648 34.5548C40.0471 34.405 40.3984 35.2269 39.7121 35.3767H39.7162Z" fill="#CCA184"/>
<path d="M147.876 33.9677L38.96 34.6276L39.7361 39.0654C40.3653 42.6529 40.6104 46.2525 40.4674 49.8319L40.2182 54.3507L148.358 53.4842L148.452 53.2169C150.65 46.9368 150.454 40.2397 147.876 33.9677V33.9677Z" fill="#FF9C92"/>
<path d="M148.637 79.6857L21.1494 76.9364C20.9983 76.9364 20.8798 76.7623 20.8839 76.5558L21.3782 52.8809C21.3823 52.6744 21.5089 52.5084 21.656 52.5124L149.143 55.2617C149.294 55.2617 149.413 55.4358 149.409 55.6423L148.914 79.3172C148.91 79.5238 148.784 79.6898 148.637 79.6857Z" fill="#EC975E"/>
<path d="M37.7437 70.0732L35.8154 70.0286L36.0238 60.0355L37.952 60.076L37.7437 70.0732Z" fill="#E5D6BB"/>
<path d="M43.8022 70.2028L41.874 70.1623L42.0824 60.1652L44.0106 60.2097L43.8022 70.2028Z" fill="#E5D6BB"/>
<path d="M162.445 97.4288L2.10808 97.0441C1.90382 97.0441 1.73633 96.8741 1.73633 96.6676L1.76492 75.4018C1.76492 75.1953 1.93242 75.0253 2.13668 75.0253L162.473 75.4099C162.677 75.4099 162.845 75.58 162.845 75.7865L162.816 97.0522C162.816 97.2587 162.649 97.4288 162.445 97.4288Z" fill="#B4A8A8"/>
<path d="M22.2437 81.3135L22.2314 90.8571L27.3053 86.6178L22.2437 81.3135Z" fill="#F3E4E5"/>
<path d="M28.691 82.2488L28.6787 89.9542L32.7762 86.5286L28.691 82.2488Z" fill="#F3E4E5"/>
<path d="M10.4791 75.0525L10.4248 97.0673L11.152 97.069L11.2062 75.0543L10.4791 75.0525Z" fill="#F3E4E5"/>
<path d="M13.9029 75.0566L13.8486 97.0713L14.5799 97.0731L14.6342 75.0583L13.9029 75.0566Z" fill="#F3E4E5"/>
<path d="M154.38 129.117L18.7021 128.789L18.7471 96.4934L154.425 96.8214L154.556 97.2627C157.624 107.665 157.563 118.755 154.38 129.117Z" fill="#EF6982"/>
<path d="M51.5306 128.87L32.5752 128.825L32.6201 96.5258L51.5796 96.5743L51.5306 128.87Z" fill="#7F9198"/>
<path d="M27.3988 131.789L2.22979 128.056L3.14079 130.906C5.87789 139.478 4.97097 149.884 1.62109 158.201L2.71593 158.695L26.7288 167.644L27.4029 131.785L27.3988 131.789Z" fill="#F3D7C3"/>
<path d="M174.381 132.587L25.6176 133.417L1.66602 128.194L161.116 126.865L174.381 132.587Z" fill="#DFB291"/>
<path d="M1.4255 128.975C5.60058 129.4 9.72665 130.619 13.8119 131.566C17.652 132.457 21.4921 133.348 25.3281 134.239C25.9368 134.381 26.1982 133.433 25.5895 133.291C21.443 132.328 17.2965 131.368 13.1501 130.404C9.27319 129.505 5.39224 128.392 1.42958 127.991C0.808629 127.926 0.808629 128.91 1.42958 128.975H1.4255Z" fill="#CCA184"/>
<path d="M26.4923 166.348C17.8358 163.898 9.36712 160.865 1.11907 157.25C0.265262 156.877 -0.478247 158.145 0.379648 158.521C8.74208 162.194 17.321 165.287 26.1001 167.769C27.0071 168.024 27.3952 166.603 26.4882 166.348H26.4923Z" fill="#CCA184"/>
<path d="M174.333 168L25.5654 167.644L26.2231 159.983C26.7583 153.767 26.7869 147.516 26.3089 141.292L25.6145 133.417L174.382 132.587L174.525 133.073C177.891 144.479 177.821 156.638 174.333 168Z" fill="#F2C5A2"/>
<path opacity="0.11" d="M18.5918 98.1738L154.903 98.5018C154.903 98.5018 155.777 101.798 156.092 104.004L18.743 99.0079L18.5918 98.1738V98.1738Z" fill="black"/>
</g>
<defs>
<clipPath id="clip0_245_568">
<rect width="177" height="168" fill="white"/>
</clipPath>
</defs>
</svg>
