<svg width="184" height="356" viewBox="0 0 184 356" fill="none" xmlns="http://www.w3.org/2000/svg">
<g clip-path="url(#clip0_245_345)">
<path d="M24.3172 276.547C24.3172 276.547 27.0825 299.212 23.083 309.017L31.5936 309.818L31.9334 273.793L24.3172 276.547V276.547Z" fill="#E2E4E3"/>
<path d="M31.527 305.892C29.1094 306.064 26.6917 306.131 24.2662 306.088C23.8757 306.08 23.8952 306.721 24.2818 306.728C26.7073 306.767 29.125 306.705 31.5426 306.533C31.9293 306.506 31.9137 305.865 31.527 305.892V305.892Z" fill="#DEDBDB"/>
<path d="M31.4329 302.494C29.2691 302.599 27.1053 302.709 24.9415 302.814C24.5548 302.834 24.5704 303.474 24.9571 303.455C27.1209 303.345 29.2847 303.24 31.4485 303.135C31.8351 303.115 31.8195 302.474 31.4329 302.494V302.494Z" fill="#DEDBDB"/>
<path d="M31.3553 299.564C29.293 299.845 27.2347 299.908 25.1569 299.751C24.7702 299.72 24.7897 300.361 25.1725 300.392C27.2464 300.548 29.3087 300.486 31.3709 300.209C31.7537 300.158 31.738 299.517 31.3553 299.568V299.564Z" fill="#DEDBDB"/>
<path d="M31.8631 295.486C29.7579 295.806 27.6449 295.982 25.5162 296.021C25.1257 296.029 25.1452 296.669 25.5318 296.662C27.6605 296.622 29.7735 296.447 31.8787 296.126C32.2576 296.068 32.2458 295.427 31.8631 295.486Z" fill="#DEDBDB"/>
<path d="M31.6053 291.81C29.543 291.939 27.4769 292.009 25.4069 292.017C25.0163 292.017 25.0358 292.657 25.4225 292.657C27.4886 292.65 29.5548 292.583 31.617 292.45C32.0037 292.427 31.988 291.786 31.6014 291.81H31.6053Z" fill="#DEDBDB"/>
<path d="M31.3514 288.149C29.3438 288.349 27.3324 288.474 25.317 288.521C24.9264 288.528 24.946 289.169 25.3326 289.161C27.348 289.114 29.3595 288.989 31.367 288.79C31.7537 288.751 31.7381 288.11 31.3514 288.149Z" fill="#DEDBDB"/>
<path d="M31.3947 283.997C29.2387 284.266 27.0788 284.446 24.9111 284.54C24.8447 284.54 24.7978 284.567 24.7549 284.598C24.7549 284.626 24.7549 284.649 24.7549 284.677C24.7822 284.837 24.8057 284.997 24.8252 285.157C24.8564 285.169 24.8838 285.184 24.9267 285.184C27.0944 285.095 29.2543 284.915 31.4103 284.641C31.793 284.595 31.7813 283.954 31.3947 284.001V283.997Z" fill="#DEDBDB"/>
<path d="M31.5891 279.872C29.4761 279.997 27.3631 280.118 25.2501 280.243C24.8634 280.266 24.879 280.907 25.2657 280.883C27.3787 280.758 29.4917 280.637 31.6047 280.512C31.9914 280.489 31.9758 279.848 31.5891 279.872Z" fill="#DEDBDB"/>
<path d="M71.7836 32.935L60.6015 36.0133L60.9725 33.4194C62.0896 25.6144 61.5428 16.0476 59.9141 8.30895L60.4023 7.87534L71.0806 0.152344L71.7836 32.935V32.935Z" fill="#F0E0E0"/>
<path d="M134.084 34.0795L70.9752 31.4309L60.3438 35.8764L128.679 38.9L134.084 34.0795Z" fill="#93B79B"/>
<path d="M60.2267 35.1617C62.0976 34.8258 63.9294 33.7671 65.7455 32.9546C67.4484 32.1928 69.1474 31.435 70.8425 30.681C71.112 30.5599 71.237 31.4233 70.9675 31.5444C69.1357 32.3608 67.3039 33.1812 65.4643 34.0054C63.7419 34.775 62.0155 35.7399 60.2423 36.0602C59.965 36.111 59.9494 35.2125 60.2267 35.1617V35.1617Z" fill="#ABC1BB"/>
<path d="M70.9911 1.33983C67.1479 3.40242 63.3749 6.01191 59.6996 9.18002C59.3208 9.50816 58.9653 8.32061 59.3481 7.98856C63.0781 4.77748 66.8979 2.1133 70.7998 0.0233676C71.2021 -0.191486 71.3895 1.12498 70.9911 1.33983V1.33983Z" fill="#ABC1BB"/>
<path d="M134.12 3.12904L70.5615 0.128906L70.9443 7.18781C71.2528 12.899 71.3349 18.6141 71.1943 24.2784L70.9755 31.4311L134.085 34.0796L134.143 33.6616C135.53 23.7901 135.522 13.1724 134.12 3.12904V3.12904Z" fill="#8EC39E"/>
<path d="M80.1071 1.29289C79.9977 0.390508 78.6034 0.429572 78.7127 1.33977C79.8571 10.848 79.7321 20.4109 78.3065 29.8801C78.1698 30.7786 79.5251 31.1184 79.6618 30.2121C81.1031 20.6219 81.2632 10.9261 80.1032 1.29289H80.1071Z" fill="#4284AF"/>
<path d="M126.457 3.82422C126.339 2.92184 124.945 2.97653 125.062 3.88673C126.289 13.3832 126.246 22.9501 124.902 32.4309C124.773 33.3333 126.132 33.6576 126.261 32.7513C127.621 23.1493 127.695 13.4496 126.453 3.82813L126.457 3.82422Z" fill="#4284AF"/>
<path opacity="0.64" d="M97.7765 15.7389C97.7726 19.7937 94.5464 23.0712 90.5743 23.0634C86.6021 23.0556 83.3877 19.7586 83.3916 15.7037C83.3955 11.6488 86.6217 8.37135 90.5938 8.37916C94.566 8.38698 97.7804 11.684 97.7765 15.7389V15.7389Z" fill="#4284AF"/>
<path d="M59.2387 53.3187L40.9754 55.6235L41.5378 54.0336C43.2329 49.2404 42.1744 43.4433 39.3818 38.7986L40.1747 38.5173L57.5319 33.4038L59.2348 53.3187H59.2387Z" fill="#F3D7C3"/>
<path d="M161.28 51.5999L57.8865 52.4358L40.5527 55.5532L152.507 54.7406L161.28 51.5999Z" fill="#CE6255"/>
<path d="M40.3457 55.1236C43.4039 54.8463 46.3879 54.1314 49.3446 53.5689C52.1177 53.0415 54.8869 52.5141 57.6521 51.9868C58.0896 51.9047 58.3122 52.4243 57.8748 52.5063C54.8908 53.0767 51.9029 53.647 48.9072 54.2173C46.1028 54.7525 43.2907 55.4088 40.3887 55.6705C39.9317 55.7135 39.8966 55.1666 40.3496 55.1236H40.3457Z" fill="#CCA184"/>
<path d="M57.4065 34.1304C51.1456 35.5328 45.0135 37.2672 39.0494 39.3376C38.4323 39.5525 37.8309 38.8415 38.4519 38.6266C44.5058 36.525 50.7159 34.7593 57.0706 33.3373C57.7228 33.1928 58.0587 33.9858 57.4026 34.1304H57.4065Z" fill="#CCA184"/>
<path d="M160.815 32.771L56.6836 33.4077L57.4257 37.6892C58.0272 41.1503 58.2615 44.6231 58.1248 48.0764L57.8866 52.4359L161.276 51.5999L161.366 51.3421C163.467 45.2833 163.279 38.822 160.815 32.771V32.771Z" fill="#FF9C92"/>
<path d="M161.542 76.8784L39.6553 74.226C39.5108 74.226 39.3976 74.058 39.4015 73.8588L39.8741 51.0179C39.878 50.8187 39.999 50.6585 40.1397 50.6624L162.026 53.3149C162.171 53.3149 162.284 53.4829 162.28 53.6821L161.808 76.5229C161.804 76.7222 161.683 76.8823 161.542 76.8784Z" fill="#EC975E"/>
<path d="M55.5203 67.6047L53.6768 67.5617L53.876 57.9207L55.7195 57.9597L55.5203 67.6047Z" fill="#E5D6BB"/>
<path d="M61.3123 67.7297L59.4688 67.6906L59.6679 58.0457L61.5115 58.0886L61.3123 67.7297Z" fill="#E5D6BB"/>
<path d="M168.744 356L15.4511 355.629C15.2558 355.629 15.0957 355.465 15.0957 355.266L15.1309 329.659C15.1309 329.46 15.291 329.296 15.4863 329.296L168.779 329.667C168.975 329.667 169.135 329.831 169.135 330.03L169.1 355.637C169.1 355.836 168.939 356 168.744 356Z" fill="#FFDA7F"/>
<path d="M42.456 355.695L26.3408 355.656L26.3799 329.319L42.4911 329.358L42.456 355.695Z" fill="#756153"/>
<path d="M46.2245 329.371L46.1602 355.708L49.7417 355.716L49.8061 329.379L46.2245 329.371Z" fill="#756153"/>
<path d="M63.3865 342.577C63.3865 345.156 61.3321 347.238 58.809 347.23C56.2859 347.222 54.2432 345.128 54.2471 342.554C54.251 339.98 56.3015 337.894 58.8246 337.901C61.3477 337.909 63.3904 340.003 63.3865 342.577Z" fill="#756153"/>
<path d="M170.041 329.96L16.748 329.589C16.5527 329.589 16.3926 329.425 16.3926 329.225L16.4199 308.709C16.4199 308.51 16.5801 308.345 16.7753 308.345L170.068 308.717C170.264 308.717 170.424 308.881 170.424 309.08L170.396 329.596C170.396 329.796 170.236 329.96 170.041 329.96Z" fill="#B4A8A8"/>
<path d="M35.999 314.408L35.9873 323.616L40.8382 319.526L35.999 314.408Z" fill="#F3E4E5"/>
<path d="M42.1631 315.311L42.1514 322.744L46.0688 319.444L42.1631 315.311Z" fill="#F3E4E5"/>
<path d="M24.755 308.378L24.7031 329.617L25.3984 329.619L25.4502 308.38L24.755 308.378Z" fill="#F3E4E5"/>
<path d="M28.0285 308.366L27.9766 329.605L28.6757 329.607L28.7276 308.368L28.0285 308.366Z" fill="#F3E4E5"/>
<path d="M43.1548 115.618L18.3103 119.72L19.1306 116.243C21.599 105.782 20.3726 92.9492 16.752 82.5737L17.8338 81.9917L41.5535 71.6592L43.1548 115.614V115.618Z" fill="#F3D7C3"/>
<path d="M181.59 117.286L41.3544 113.599L17.7363 119.54L169.584 123.736L181.59 117.286Z" fill="#CE6255"/>
<path d="M17.4704 118.579C21.6261 118.134 25.6959 116.716 29.7267 115.634C33.5074 114.618 37.2804 113.606 41.0455 112.595C41.6431 112.435 41.9243 113.595 41.3268 113.755C37.2609 114.849 33.1872 115.943 29.1017 117.04C25.278 118.068 21.4426 119.361 17.5017 119.783C16.8806 119.849 16.8533 118.646 17.4704 118.579V118.579Z" fill="#CCA184"/>
<path d="M41.3501 73.2531C32.8082 76.0071 24.4342 79.4994 16.2712 83.7418C15.4276 84.1793 14.6347 82.5855 15.4901 82.1441C23.7742 77.8431 32.2614 74.2805 40.9282 71.4874C41.8187 71.1983 42.2445 72.9679 41.354 73.2531H41.3501Z" fill="#CCA184"/>
<path d="M181.633 75.7883L40.4014 71.6279L41.2567 81.0932C41.948 88.7498 42.1433 96.4142 41.8348 104.012L41.3544 113.602L181.59 117.29L181.719 116.728C184.785 103.493 184.762 89.2576 181.629 75.7922L181.633 75.7883Z" fill="#DD6854"/>
<path d="M159.339 308.467L29.6211 308.15L29.6641 276.993L159.382 277.309L159.507 277.735C162.44 287.77 162.382 298.47 159.339 308.467Z" fill="#EF6982"/>
<path d="M61.0114 308.228L42.8848 308.182L42.9277 277.024L61.0543 277.067L61.0114 308.228Z" fill="#7F9198"/>
<path d="M30.1599 244.018L6.10051 240.417L6.97149 243.167C9.58835 251.437 8.72127 261.476 5.51855 269.5L6.5653 269.977L29.5233 278.61L30.1678 244.015L30.1599 244.018Z" fill="#F3D7C3"/>
<path d="M170.685 244.792L28.4531 245.593L5.55762 240.554L158.003 239.272L170.685 244.792Z" fill="#DFB291"/>
<path d="M5.32807 241.304C9.31975 241.714 13.2646 242.89 17.1703 243.804C20.8417 244.663 24.5131 245.522 28.1806 246.382C28.7626 246.519 29.0126 245.604 28.4306 245.468C24.4663 244.538 20.5019 243.612 16.5376 242.682C12.831 241.815 9.12055 240.741 5.33197 240.354C4.7383 240.292 4.7383 241.241 5.33197 241.304H5.32807Z" fill="#CCA184"/>
<path d="M29.2894 277.36C21.0131 274.996 12.9165 272.07 5.03081 268.582C4.2145 268.223 3.50366 269.445 4.32386 269.809C12.3189 273.352 20.521 276.336 28.9145 278.731C29.7816 278.977 30.1526 277.606 29.2855 277.36H29.2894Z" fill="#CCA184"/>
<path d="M170.638 278.954L28.4062 278.61L29.0351 271.219C29.5467 265.223 29.5741 259.191 29.1171 253.187L28.4531 245.589L170.685 244.788L170.822 245.257C174.04 256.261 173.974 267.992 170.638 278.954V278.954Z" fill="#F2C5A2"/>
<path d="M156.949 242.585L22.1572 242.257C21.9619 242.257 21.8018 242.093 21.8018 241.893L21.8447 210.33C21.8447 210.13 22.0049 209.966 22.2001 209.966L156.992 210.294C157.187 210.294 157.347 210.459 157.347 210.658L157.304 242.222C157.304 242.421 157.144 242.585 156.949 242.585Z" fill="#4284AF"/>
<path d="M175.657 187.469L9.01851 187.067C8.82322 187.067 8.66309 186.903 8.66309 186.703L8.69433 163.855C8.69433 163.656 8.85447 163.491 9.04976 163.491L175.689 163.894C175.884 163.894 176.044 164.058 176.044 164.257L176.013 187.106C176.013 187.305 175.853 187.469 175.657 187.469Z" fill="#5EA192"/>
<path d="M148.945 164.269L42.7246 164.011L42.791 117.45L149.012 117.708L149.395 120.302C151.418 134.021 151.398 147.971 149.336 161.679L148.945 164.269V164.269Z" fill="#E5D6BB"/>
<path d="M75.5754 163.781L54.5 163.73L54.5664 117.786L75.6418 117.837L75.5754 163.781Z" fill="#FFDA7F"/>
<path d="M70.8579 163.769L59.0234 163.742L59.0898 117.798L70.9243 117.825L70.8579 163.769Z" fill="#FFE3A6"/>
<path opacity="0.13" d="M42.791 117.708L149.012 117.966L150.477 129.959L42.7871 120.232L42.791 117.708Z" fill="black"/>
<path d="M25.3832 175.07C23.9537 173.258 22.3133 171.715 20.4425 170.383C19.7043 169.855 19.0051 171.09 19.7355 171.609C21.3291 172.746 22.7156 174.066 23.9654 175.566C22.6102 177.152 21.165 178.629 19.5949 180.004C18.9114 180.602 19.8996 181.606 20.5792 181.012C22.3133 179.496 23.9069 177.856 25.3793 176.078C25.641 175.762 25.6332 175.394 25.3793 175.07H25.3832Z" fill="#E5D6BB"/>
<path d="M33.4957 174.793C32.5466 173.32 30.7773 172.054 29.5314 170.835C28.883 170.203 27.8949 171.207 28.5432 171.839C29.5978 172.867 31.1132 173.941 32.035 175.156C31.5038 175.812 30.6055 176.418 30.047 176.941C29.2971 177.64 28.5511 178.34 27.8051 179.035C27.1411 179.656 28.1292 180.66 28.7893 180.043C29.6876 179.203 30.5859 178.367 31.4804 177.527C32.1443 176.906 33.0505 176.312 33.4957 175.504C33.6129 175.289 33.6324 174.996 33.4957 174.785V174.793Z" fill="#E5D6BB"/>
<path d="M37.8618 169.316C37.2213 168.671 36.2331 169.675 36.8736 170.32C37.2603 170.707 38.0102 172.047 37.0689 172.226C36.1901 172.398 36.5573 173.769 37.4361 173.601C38.3149 173.429 38.8578 172.621 38.8968 171.738C38.9359 170.824 38.4867 169.945 37.8618 169.316V169.316Z" fill="#E5D6BB"/>
<path d="M45.6263 172.957C45.431 172.672 45.1302 172.601 44.8646 172.664C43.6968 172.058 42.2126 172.289 41.3534 173.336C40.5058 174.367 40.6269 175.953 41.4979 176.934C42.4587 178.02 44.0835 178.043 45.1771 177.141C46.4191 176.117 46.5129 174.25 45.6224 172.957H45.6263ZM44.3491 176.004C43.8062 176.496 42.9625 176.519 42.486 175.93C41.5096 174.715 42.9508 173.219 44.2202 173.918C44.353 173.992 44.4858 174.015 44.6069 174.004C44.9232 174.664 44.9389 175.469 44.3491 176V176.004Z" fill="#E5D6BB"/>
<path d="M139.033 242.604L137.428 242.601L137.475 210.185L139.08 210.189L139.033 242.604Z" fill="#E5D6BB"/>
<path d="M145.54 242.62L143.935 242.616L143.981 210.201L145.587 210.205L145.54 242.62Z" fill="#E5D6BB"/>
<path opacity="0.11" d="M29.5156 278.614L159.839 278.93C159.839 278.93 160.675 282.11 160.975 284.239L29.6601 279.419L29.5156 278.614V278.614Z" fill="black"/>
<path d="M166.994 210.599L0.355423 210.197C0.160136 210.197 0 210.033 0 209.833L0.031246 186.985C0.031246 186.785 0.191382 186.621 0.386669 186.621L167.026 187.024C167.221 187.024 167.381 187.188 167.381 187.387L167.35 210.236C167.35 210.435 167.19 210.599 166.994 210.599Z" fill="#756153"/>
<path d="M21.8561 203.286L19.3369 203.278L19.3486 193.633L21.8717 193.641L21.8561 203.286Z" fill="#E5D6BB"/>
<path d="M27.2765 193.658L27.2529 203.303L29.7721 203.309L29.7957 193.664L27.2765 193.658Z" fill="#E5D6BB"/>
<path d="M176.29 187.035L9.16665 186.864C8.67453 186.864 8.31129 186.399 8.41675 185.91L175.876 184.766L176.29 187.035Z" fill="#F3E4E5"/>
<path d="M175.681 186.02L8.55728 185.848C8.06515 185.848 7.70192 185.383 7.80737 184.895L175.267 183.75L175.681 186.02Z" fill="#E7D9D9"/>
<path d="M35.1952 121.193C35.1952 121.193 40.136 150.729 34.207 162.917L42.7255 164.011L42.7919 117.708L35.1952 121.193V121.193Z" fill="#E2E4E3"/>
</g>
<defs>
<clipPath id="clip0_245_345">
<rect width="184" height="356" fill="white"/>
</clipPath>
</defs>
</svg>
